<svg id="Layer_2" data-name="Layer 2" xmlns="http://www.w3.org/2000/svg" viewBox="0 0 1293.66 950.25"><defs><style>.cls-1{fill:#027e94;}</style></defs><title>ai</title><path class="cls-1" d="M699.18,975.13V906.76C681.24,899.21,664,892.19,647,884.68c-9.2-4.06-9-4.43-16.4,2.94-13,13-26.06,26-39,39-2.31,2.34-3.86,2.75-6.4.19q-46.89-47.1-94.15-94.24c15.59-15.55,31.05-31,46.62-46.42,2.37-2.35,3-3.7,1.06-7.33-9.69-18-17.92-36.65-22.87-57h-70.6V584.12h5.51c20.14,0,40.29,0,60.43,0,3,0,4.39-.63,5.58-3.84,7.15-19.25,14.73-38.34,22.33-57.94-15.44-15.36-32-31.86-48.53-48.29L588.65,376l48.44,48.49c18-7.21,35.35-14.45,52.94-21.17,9-3.45,9.18-3,9.18-13V330.1H836.7v70.43a254.63,254.63,0,0,1,59.07,24.09c1,.6,3.86-.62,5.06-1.8,14.35-14.13,28.56-28.41,42.78-42.68,1.35-1.35,2.53-2.87,3.88-4.42,31.75,31.76,63,63.13,94.48,94.37,3,3,1.65,4.55-.6,6.78-14.42,14.31-28.72,28.74-43.19,43-2.31,2.28-3.07,4.11-1.28,7.13,9.75,16.48,16.72,34.14,21.86,52.55.41,1.45,1,2.86,1.57,4.52h69.88V721.8h-70a251.19,251.19,0,0,1-23.12,56.61c-2,3.51-1.14,5.42,1.45,8,14.22,14,28.22,28.27,42.46,42.26,3,2.93,3.48,4.69.2,8q-45,44.58-89.56,89.56c-3.26,3.28-5,2.79-7.95-.2-13.74-14-27.85-27.65-41.45-41.78-3.49-3.63-6.22-4-10.17-1.48a67.1,67.1,0,0,1-10.81,6c-14.56,5.89-29.23,11.49-44.42,17.41v69Zm-55.74-322c1.35,69.1,55.09,123.85,123.78,124,70.51.11,124.92-54.22,124.94-124.59,0-69.27-54.87-122.77-122-123.86C699,527.45,644.29,584.21,643.44,653.11Z" transform="translate(-103.17 -24.87)"/><path class="cls-1" d="M103.17,440.08Q111,418,118.91,395.81c3.19-9,6.3-18,9.55-27.32l38.17,12.7L192,351.86c-5.58-11.18-11.47-23-17.53-35.14a32.78,32.78,0,0,1,3.33-2.23c21.6-10.68,43.24-21.28,64.8-32,3.36-1.67,4.91-.77,6.37,2.4,4.54,9.83,9.19,19.62,14.08,29.28a6.07,6.07,0,0,0,4.54,2.85c10.9-.44,21.81-1.05,32.66-2.19,1.72-.18,3.83-3.06,4.56-5.12,3.88-11,7.38-22.07,11.17-33.59l76.07,26.1c-4.38,13.13-8.68,26-12.76,38.22l29.13,25.26,36.2-17.3,35.28,72-36.13,18c.67,11.5,1.46,23,1.93,34.5.12,2.86.87,4.22,3.72,5.14,10.27,3.3,20.41,7,30.64,10.41,2.59.87,4.34,1.76,3.18,5.08q-12.34,35.38-24.53,70.82a13,13,0,0,1-.85,1.59c-11-3.78-22-7.35-32.85-11.44-4-1.5-5.88-1.14-8.69,2.5-6.67,8.64-14.27,16.56-21.9,25.25l18,36-72.17,35.42-18-36.28-38.53,2.8L270.5,658.09l-76.06-26c4.05-11.68,7.82-22.86,11.84-34,1.23-3.37.95-5.15-2.26-7.66-8.73-6.84-16.82-14.49-25.39-22l-36.76,17.6c-3.48-7.51-6.79-15-10.43-22.39-7.4-15-14.81-30-22.58-44.75-2.15-4.09-1.13-5.63,2.65-7.43,10.73-5.09,21.29-10.54,31.37-15.58-.62-11.67-1.13-23-1.95-34.39-.12-1.69-1.34-4.3-2.65-4.75-11.63-4-23.39-7.7-35.11-11.46Zm261.77,27.19c1.28-40-33-72.47-71.68-72.17-40.2.31-72,31.49-72,72.25,0,38.95,29.46,69.06,68.09,71.56C332.36,541.7,366.3,505.21,364.94,467.27Z" transform="translate(-103.17 -24.87)"/><path class="cls-1" d="M601.42,24.87c14.27,5.59,28.52,11.22,42.82,16.74,6.71,2.59,13.42,5.2,20.29,7.3,3.42,1.05,3.55,2.79,2.54,5.41-3.47,9.12-6.9,18.26-10.54,27.3-1.39,3.43-1.25,5.21,2.2,7.93,8.19,6.44,15.51,14,23.18,21.09l34.32-15.7,31.42,68.64-22.41,10.5c-.15.07-.37,0-.52.06-3.4,1.65-7.84,2.53-9.88,5.22-1.75,2.31-.9,6.69-.94,10.17-.09,8.57,0,17.15,0,26,10.73,4,21.34,8.21,32.13,11.92,3.31,1.14,4,2,2.69,5.42-8.36,21.9-16.44,43.9-25,66.86L688.05,286.7c-6.17,6.86-12.09,13.8-18.38,20.38s-6.26,6.3-2.19,14.9c3.94,8.33,7.55,16.82,11.56,25.81L610.4,379.2l-15.52-33.74c-11.62,0-22.92-.07-34.21.12a4.61,4.61,0,0,0-3.2,2.59c-4.16,10.86-8.11,21.8-12.37,33.39l-70.77-26.35c4-11.17,7.7-21.8,11.79-32.27,1.22-3.11.43-4.82-1.78-6.74-7.8-6.79-15.52-13.67-23.9-21.06l-34.22,15.54c-8.63-19.08-17.1-37.83-25.6-56.58-1.35-3-2.68-6-4.26-8.83-1.44-2.59-1.09-3.75,1.86-5,9.63-4.1,19.08-8.61,28.61-13,2.42-1.1,3-2.19,2.71-5.44-.89-9.41-.37-18.94-.73-28.41-.06-1.56-1.48-3.9-2.84-4.43-9.72-3.8-19.58-7.25-29.41-10.75-2.67-.95-3.92-2.13-2.71-5.32,8.24-21.77,16.32-43.59,24.46-65.39a14.65,14.65,0,0,1,.91-1.7L454,118.74c7.39-7.58,14.32-15,21.61-22,2.68-2.59,3.67-4.55,1.89-8.21-4.8-9.86-9.17-19.92-14.05-30.65L532,26.45c2.93,6.06,5.73,11.66,8.34,17.36,2.28,5,4.28,10.1,6.5,15.11.86,2,1.79,2.48,4.59,2.24,9.77-.82,19.65-.35,29.45-.88,1.66-.09,3.93-2.4,4.64-4.19,4.11-10.32,7.83-20.79,11.69-31.22ZM570.77,135.22a67.47,67.47,0,0,0-67,66.12c-.82,40.48,31,69.26,67.21,69.09,39.09-.18,67.56-28.92,67.91-67.91C639.24,165.89,609.54,135.42,570.77,135.22Z" transform="translate(-103.17 -24.87)"/><path class="cls-1" d="M1248.94,282.41c14.27,5.58,28.52,11.22,42.82,16.73,6.7,2.59,13.42,5.21,20.28,7.31,3.42,1.05,3.55,2.78,2.55,5.41-3.48,9.11-6.9,18.25-10.55,27.3-1.38,3.43-1.24,5.21,2.21,7.92,8.19,6.45,15.51,14,23.18,21.09l34.32-15.7,31.41,68.65-22.41,10.49c-.15.07-.36,0-.51.07-3.41,1.65-7.85,2.52-9.88,5.21-1.75,2.31-.91,6.7-.94,10.17-.09,8.58,0,17.16,0,26,10.72,4,21.34,8.21,32.12,11.91,3.31,1.14,4,2,2.69,5.42-8.36,21.9-16.44,43.91-25,66.87l-35.65-13.06c-6.17,6.87-12.09,13.8-18.39,20.38s-6.26,6.3-2.19,14.9c3.94,8.34,7.56,16.83,11.57,25.81l-68.64,31.42c-5.31-11.55-10.59-23-15.52-33.74-11.63,0-22.92-.08-34.21.11a4.6,4.6,0,0,0-3.2,2.6c-4.16,10.86-8.11,21.79-12.37,33.38l-70.78-26.35c4-11.16,7.7-21.8,11.8-32.26,1.22-3.12.43-4.82-1.79-6.75-7.8-6.78-15.52-13.66-23.89-21.05l-34.23,15.54c-8.63-19.09-17.1-37.84-25.59-56.58-1.35-3-2.68-6-4.27-8.83-1.44-2.59-1.08-3.75,1.86-5,9.63-4.1,19.09-8.61,28.62-12.95,2.42-1.1,3-2.19,2.71-5.45-.89-9.4-.37-18.94-.74-28.41-.06-1.55-1.48-3.89-2.83-4.42-9.72-3.8-19.58-7.25-29.41-10.76-2.67-.95-3.93-2.13-2.72-5.32,8.25-21.76,16.32-43.59,24.47-65.39a14,14,0,0,1,.91-1.7l34.78,12.86c7.39-7.58,14.32-15,21.61-22,2.69-2.58,3.68-4.55,1.9-8.2-4.81-9.86-9.18-19.93-14-30.65L1179.53,284c2.92,6.06,5.73,11.67,8.33,17.37,2.28,5,4.29,10.09,6.5,15.11.87,2,1.8,2.47,4.6,2.24,9.77-.83,19.64-.36,29.45-.89,1.66-.09,3.92-2.39,4.63-4.18,4.11-10.32,7.84-20.8,11.69-31.22Zm-30.65,110.35a67.46,67.46,0,0,0-67,66.12c-.82,40.48,31,69.26,67.21,69.09,39.08-.18,67.56-28.93,67.91-67.91C1286.76,423.42,1257.06,393,1218.29,392.76Z" transform="translate(-103.17 -24.87)"/></svg>