<svg id="Layer_1" data-name="Layer 1" xmlns="http://www.w3.org/2000/svg" xmlns:xlink="http://www.w3.org/1999/xlink" viewBox="0 0 500 500"><defs><style>.cls-1,.cls-10,.cls-2,.cls-3,.cls-4,.cls-5,.cls-6,.cls-7,.cls-8,.cls-9{stroke-miterlimit:10;stroke-width:3px;}.cls-1{fill:url(#New_Gradient_Swatch_1);stroke:url(#New_Gradient_Swatch_1-2);}.cls-2{fill:url(#New_Gradient_Swatch_1-3);stroke:url(#New_Gradient_Swatch_1-4);}.cls-3{fill:url(#New_Gradient_Swatch_1-5);stroke:url(#New_Gradient_Swatch_1-6);}.cls-4{fill:url(#New_Gradient_Swatch_1-7);stroke:url(#New_Gradient_Swatch_1-8);}.cls-5{fill:url(#New_Gradient_Swatch_1-9);stroke:url(#New_Gradient_Swatch_1-10);}.cls-6{fill:url(#New_Gradient_Swatch_1-11);stroke:url(#New_Gradient_Swatch_1-12);}.cls-7{fill:url(#New_Gradient_Swatch_1-13);stroke:url(#New_Gradient_Swatch_1-14);}.cls-8{fill:url(#New_Gradient_Swatch_1-15);stroke:url(#New_Gradient_Swatch_1-16);}.cls-9{fill:url(#New_Gradient_Swatch_1-17);stroke:url(#New_Gradient_Swatch_1-18);}.cls-10{fill:url(#New_Gradient_Swatch_1-19);stroke:url(#New_Gradient_Swatch_1-20);}</style><linearGradient id="New_Gradient_Swatch_1" x1="25" y1="250" x2="475" y2="250" gradientUnits="userSpaceOnUse"><stop offset="0" stop-color="#6cdac5"/><stop offset="1" stop-color="#048ac4"/></linearGradient><linearGradient id="New_Gradient_Swatch_1-2" x1="23.5" x2="476.5" xlink:href="#New_Gradient_Swatch_1"/><linearGradient id="New_Gradient_Swatch_1-3" x1="408.09" y1="375.07" x2="456.65" y2="375.07" xlink:href="#New_Gradient_Swatch_1"/><linearGradient id="New_Gradient_Swatch_1-4" x1="406.59" y1="375.07" x2="458.15" y2="375.07" xlink:href="#New_Gradient_Swatch_1"/><linearGradient id="New_Gradient_Swatch_1-5" x1="408.1" y1="208.07" x2="456.65" y2="208.07" xlink:href="#New_Gradient_Swatch_1"/><linearGradient id="New_Gradient_Swatch_1-6" x1="406.6" y1="208.07" x2="458.15" y2="208.07" xlink:href="#New_Gradient_Swatch_1"/><linearGradient id="New_Gradient_Swatch_1-7" x1="145.13" y1="190.44" x2="197.08" y2="190.44" xlink:href="#New_Gradient_Swatch_1"/><linearGradient id="New_Gradient_Swatch_1-8" x1="143.63" y1="190.44" x2="198.58" y2="190.44" xlink:href="#New_Gradient_Swatch_1"/><linearGradient id="New_Gradient_Swatch_1-9" x1="107.43" y1="278.2" x2="196.39" y2="278.2" xlink:href="#New_Gradient_Swatch_1"/><linearGradient id="New_Gradient_Swatch_1-10" x1="105.93" y1="278.26" x2="197.89" y2="278.26" xlink:href="#New_Gradient_Swatch_1"/><linearGradient id="New_Gradient_Swatch_1-11" x1="58.24" y1="222.87" x2="132.48" y2="222.87" xlink:href="#New_Gradient_Swatch_1"/><linearGradient id="New_Gradient_Swatch_1-12" x1="56.74" y1="222.87" x2="133.98" y2="222.87" xlink:href="#New_Gradient_Swatch_1"/><linearGradient id="New_Gradient_Swatch_1-13" x1="150.57" y1="81.33" x2="221.75" y2="81.33" xlink:href="#New_Gradient_Swatch_1"/><linearGradient id="New_Gradient_Swatch_1-14" x1="149.07" y1="81.33" x2="223.25" y2="81.33" xlink:href="#New_Gradient_Swatch_1"/><linearGradient id="New_Gradient_Swatch_1-15" x1="156.5" y1="358.91" x2="218.66" y2="358.91" xlink:href="#New_Gradient_Swatch_1"/><linearGradient id="New_Gradient_Swatch_1-16" x1="155" y1="358.91" x2="220.16" y2="358.91" xlink:href="#New_Gradient_Swatch_1"/><linearGradient id="New_Gradient_Swatch_1-17" x1="149.02" y1="419.76" x2="193.76" y2="419.76" xlink:href="#New_Gradient_Swatch_1"/><linearGradient id="New_Gradient_Swatch_1-18" x1="147.52" y1="419.76" x2="195.26" y2="419.76" xlink:href="#New_Gradient_Swatch_1"/><linearGradient id="New_Gradient_Swatch_1-19" x1="97.13" y1="356.85" x2="130.55" y2="356.85" xlink:href="#New_Gradient_Swatch_1"/><linearGradient id="New_Gradient_Swatch_1-20" x1="95.63" y1="356.85" x2="132.05" y2="356.85" xlink:href="#New_Gradient_Swatch_1"/></defs><title>Artboard 1Icons</title><path class="cls-1" d="M441.92,274.23c-3.15,1.2-4.65.6-6.75-1.5-24.44-24.58-49-49-73.48-73.73a15.51,15.51,0,0,0-12-4.8c-29.25.15-58.64,0-87.88,0h-5.25V156.28a20.15,20.15,0,0,1,2.85-.15c54.59,0,109.32,0,163.91-.15,3.3,0,4.05,1.5,5.1,4.05a24.24,24.24,0,0,0,27.15,13.79c11.55-2.55,19.49-12.29,19.34-23.83a24.39,24.39,0,0,0-19-23.83c-11.4-2.4-22.95,3.3-27.3,13.94-1.35,3.15-3,3.74-5.85,3.74-54-.15-108.13,0-162.11-.15-1.35,0-2.85-.15-4.05-.15V116.42h5.1c30,0,60-.15,90,0a11.09,11.09,0,0,0,8.55-3.45c7-7.34,14.39-14.24,21.44-21.58,2.1-2.25,3.9-2.85,7.05-1.8,13.5,4.65,27.75-3.44,31.19-17.53,3.3-13.34-5.84-27.28-19.34-29.53C386,40.14,372.78,50,372,64.57c-.3,5.24,1.5,10.49,2.55,16.63-6.15,6.14-13,13.34-20.39,20.08a10,10,0,0,1-6.3,2.7c-29.25.15-58.34.15-87.43.15h-4.35c0-3.75.15-6.89,0-10a70,70,0,0,0-52.19-67c-2.55-.75-4.95-1.35-7.5-2.1H176.17c-5.25,1.65-10.8,2.7-15.9,4.8C135.38,40.29,120.83,59,116.63,85.7c-.45,3-1.35,3.89-4,4.49-34.64,6.75-56.09,43-45.44,76.58,1,3.3.3,4.8-2.25,6.9-22.34,17.38-35.54,40.31-39,68.49a11.37,11.37,0,0,1-.9,2.4V263a29.22,29.22,0,0,1,.9,3.45c3.6,26.82,15.75,49,36.74,66.09,2.85,2.24,3.3,4.34,2.7,7.49-5.55,31.17,15,61.9,46,68.79a44.88,44.88,0,0,1,4.8,1.2c4.8,37.61,33,63.69,69.14,64.29a70.9,70.9,0,0,0,71.39-70.74c.45,0,1.05-.15,1.5-.15,21-.15,42-.15,62.83,0,1.65,0,3.6,1.35,4.65,2.7,7.2,9,14.25,18.14,21.45,27.13,1.8,2.25,2.25,3.74.75,6.44-4.95,9.14-3.15,20.08,3.75,27.73,7.2,7.79,17.84,9.29,27.14,5.84,12.15-4.34,18.15-18,14.1-30.12A24.17,24.17,0,0,0,363,427.39c-3.3.9-4.8.3-6.75-2.4-7.65-9.89-15.6-19.63-23.25-29.67a10.2,10.2,0,0,0-9-4.35c-21,.15-41.84,0-62.84,0h-4.64V354.11c20.39,0,40.49.15,60.58,0,2.85,0,4.2.75,5.4,3.59a24.18,24.18,0,0,0,27.3,14.09A24.52,24.52,0,0,0,369,348a24.24,24.24,0,0,0-19.64-24,23.9,23.9,0,0,0-26.85,14.24c-1.35,3.15-3,3.75-5.85,3.75-18.59-.15-37.19-.15-55.78-.15-1.5,0-2.85-.15-4.35-.15V305h5.1c31,0,62.08.15,93.13,0,3.45,0,5.25.75,6.75,4.2,4.64,10.49,16.34,15.88,27.44,13.34a24.36,24.36,0,0,0-.45-47.51,24,24,0,0,0-27,13.19c-.75,1.49-1.35,3-2,4.34H256.41V255.8c11.09,0,21.74.14,32.39,0,3-.15,4.5.59,5.85,3.59a24.26,24.26,0,0,0,46.19-10.94c-.3-12-8.55-21.28-20.4-23.53-11.09-1.95-22,4.35-26.54,15-.45,1.2-.9,2.4-1.35,3.3H256.41V206.79c1,0,1.65-.15,2.4-.15,30,0,60.13,0,90.13.15a8.84,8.84,0,0,1,5.55,2.7c24,23.83,48,47.95,72.13,71.93,2.1,2.1,2.55,3.6,1.35,6.6a24,24,0,0,0,9.6,29.22,24.31,24.31,0,0,0,33.59-33.57C464.87,273.93,452.57,269.73,441.92,274.23ZM450.77,138a12,12,0,0,1-.15,24,11.81,11.81,0,0,1-12-11.84A12,12,0,0,1,450.77,138ZM396.33,54.67a11.91,11.91,0,0,1,11.85,12,12.12,12.12,0,0,1-12,12,11.93,11.93,0,0,1-12-12A11.7,11.7,0,0,1,396.33,54.67ZM243.81,249.5c0,51.11.15,102.21,0,153.16,0,30.13-19.95,53.51-49.64,58.45-31.5,5.25-63.14-19.63-65.54-51.4,0-1.2-.15-2.25-.15-3.45-.45-6.44-1.5-7.49-7.8-8.39C97.29,394.72,81.09,380,77.49,357.55c-1-6.59,0-13.63,1.05-20.38,1-6.29,1.2-7-4.2-10.94Q45.77,305.09,39,270.18C32.35,236,47.2,200,76.14,180.56c7-4.79,7.2-5.54,4.2-13.19a48.1,48.1,0,0,1,39.74-66.09c6.75-.6,8-2,8.4-9.74A57.72,57.72,0,0,1,243.81,95C244,146.54,243.81,198,243.81,249.5ZM369.18,438.63a12.23,12.23,0,0,1,12.45,12,12.07,12.07,0,1,1-12.45-12Zm-24-102.81a12,12,0,0,1,11.55,12.29,11.71,11.71,0,0,1-12.15,11.69,11.93,11.93,0,0,1-12-12A12.26,12.26,0,0,1,345.19,335.82Zm38.54-49.15A12,12,0,0,1,395.43,299a12.08,12.08,0,0,1-24.15-.15A12.25,12.25,0,0,1,383.73,286.67Zm-67.34-49.76a11.91,11.91,0,0,1,12.15,12.14,12,12,0,1,1-12.15-12.14ZM450.32,308.7a12,12,0,0,1,.3-24,11.9,11.9,0,0,1,12,11.84A12,12,0,0,1,450.32,308.7Z"/><path class="cls-2" d="M456.65,374.93a24.28,24.28,0,1,1-24.76-24.14A24.13,24.13,0,0,1,456.65,374.93Zm-12.32.37A12,12,0,1,0,432.21,387,11.81,11.81,0,0,0,444.33,375.3Z"/><path class="cls-3" d="M408.1,207.85a24.28,24.28,0,1,1,24.39,24.51A24,24,0,0,1,408.1,207.85Zm24.59-11.75A12,12,0,0,0,431.8,220a11.91,11.91,0,0,0,12.53-11.78A11.76,11.76,0,0,0,432.69,196.1Z"/><path class="cls-4" d="M197.08,190.8c-.79,7.07-.81,14.35-2.54,21.2-4.45,17.7-21.4,30.66-39.2,30.86-4.78,0-7.49-2.08-7.56-5.94s2.39-6,6.88-6.33c17.94-1.42,29.42-13.72,29.4-31.77,0-8,.38-16.17-.81-24-2.09-13.78-13.79-23.51-27.71-24.3-1.31-.07-2.63,0-3.94-.16-4.12-.37-6.53-2.73-6.47-6.28s2.56-5.75,6.72-6A42.83,42.83,0,0,1,192.09,162C196.59,171.17,196.65,180.9,197.08,190.8Z"/><path class="cls-5" d="M170.66,305.54c-9-.71-18.23-.46-27-2.33-20.16-4.27-34.92-22.34-36.18-42.78-.39-6.3,1.41-9.36,5.63-9.56,4-.2,6.1,2.58,6.61,8.56,1.38,16,11.82,28.55,27.27,32,4.78,1.08,9.87,1,14.82,1.1,8.92.16,17.85,0,26.78.07,5.1,0,7.9,2.36,7.8,6.25-.11,3.71-2.86,5.94-7.68,6-6,.07-12,0-18,0Z"/><path class="cls-6" d="M58.28,250.52c1.62-35.44,31.56-64.56,66.29-64.8,5.19,0,7.88,2,7.91,6s-2.6,6.09-7.79,6.29c-29.49,1.15-52.52,23.88-54.14,53.43a20.26,20.26,0,0,1-.44,3.9c-.82,3.33-3.17,5-6.46,4.64a5.54,5.54,0,0,1-5.35-5.42C58.18,253.12,58.28,251.65,58.28,250.52Z"/><path class="cls-7" d="M150.58,94c.68-17.69,14.92-32,33.39-33.5,17.09-1.42,33.79,11.37,37,28.41a34.81,34.81,0,0,1,.75,7c-.07,3.73-2.17,6-5.93,6.33-3.27.28-5.8-2.31-6.27-6a51.13,51.13,0,0,0-.88-6.06c-2.65-10.6-13.21-18.24-23.93-17.4-11.67.92-20.75,9.62-21.82,20.93,0,.43,0,.87-.1,1.31-.49,4.79-2.87,7.43-6.53,7.26C152.4,102.07,150.38,99.15,150.58,94Z"/><path class="cls-8" d="M156.53,337.33c0-1.16-.08-2.34,0-3.5.28-3.52,2.05-5.78,5.73-6s5.77,1.77,6.32,5.32.61,7,1.38,10.39a43.46,43.46,0,0,0,38.38,33.85c1.6.16,3.21.26,4.8.46,3.62.44,5.56,2.57,5.51,6.14s-2.3,5.75-5.8,5.9a46.09,46.09,0,0,1-9.59-.69A56.38,56.38,0,0,1,156.53,337.33Z"/><path class="cls-9" d="M185.83,442.11c-19.38-.58-36.24-17.4-36.81-36.74-.14-4.74,1.93-7.65,5.64-7.94s6.29,2.43,6.65,7.45a26.45,26.45,0,0,0,24.92,24.95c5.06.38,7.79,2.77,7.51,6.6S190.52,442.25,185.83,442.11Z"/><path class="cls-10" d="M97.13,345.25a19,19,0,0,1,.31-3.38c.81-3.64,3.06-5.69,6.91-5.2,3.63.47,5.14,2.86,5.2,6.44.2,13.38,3.66,18,16.16,21.91,3.58,1.11,5.35,3.53,4.72,7.29-.57,3.4-3.9,5.31-7.74,4.66C108.06,374.5,97.08,361.3,97.13,345.25Z"/></svg>