<svg xmlns="http://www.w3.org/2000/svg" xmlns:xlink="http://www.w3.org/1999/xlink" viewBox="0 0 500 500"><defs><style>.cls-1,.cls-2,.cls-3{stroke-miterlimit:10;stroke-width:3px;}.cls-1{fill:url(#New_Gradient_Swatch_1);stroke:url(#New_Gradient_Swatch_1-2);}.cls-2{fill:url(#New_Gradient_Swatch_1-3);stroke:url(#New_Gradient_Swatch_1-4);}.cls-3{fill:url(#New_Gradient_Swatch_1-5);stroke:url(#New_Gradient_Swatch_1-6);}</style><linearGradient id="New_Gradient_Swatch_1" x1="188.64" y1="250" x2="311.62" y2="250" gradientUnits="userSpaceOnUse"><stop offset="0" stop-color="#6cdac5"/><stop offset="1" stop-color="#048ac4"/></linearGradient><linearGradient id="New_Gradient_Swatch_1-2" x1="187.14" x2="313.14" xlink:href="#New_Gradient_Swatch_1"/><linearGradient id="New_Gradient_Swatch_1-3" x1="351.87" y1="250.37" x2="475" y2="250.37" xlink:href="#New_Gradient_Swatch_1"/><linearGradient id="New_Gradient_Swatch_1-4" x1="350.37" y1="250.37" x2="476.5" y2="250.37" xlink:href="#New_Gradient_Swatch_1"/><linearGradient id="New_Gradient_Swatch_1-5" x1="25" y1="250.32" x2="148" y2="250.32" xlink:href="#New_Gradient_Swatch_1"/><linearGradient id="New_Gradient_Swatch_1-6" x1="23.5" y1="250.32" x2="149.5" y2="250.32" xlink:href="#New_Gradient_Swatch_1"/></defs><title>Artboard 2Icons</title><g id="Layer_2" data-name="Layer 2"><path class="cls-1" d="M311.62,106.85c-.48,2.29-.85,5-1.58,7.57q-40.23,140.91-80.51,281.81c-3.55,12.42-12.44,19-23.26,17.34-12.37-1.88-20.2-13.18-16.85-25.25,7.83-28.26,16-56.43,24.05-84.62Q242.21,203,271,102.33c3-10.43,10.46-16.3,20.41-16.15a20.07,20.07,0,0,1,19.29,15.06C311.15,102.91,311.27,104.68,311.62,106.85Z"/><path class="cls-2" d="M425.28,250.33c-1.37-1.44-2.54-2.71-3.76-3.93q-31.49-31.52-63-63c-5.95-5.94-8.09-13-5.67-21,2.3-7.63,7.68-12.38,15.52-14.05a19,19,0,0,1,18.06,5.31q41.44,41.2,82.64,82.66a19.59,19.59,0,0,1,0,28.1Q427.94,305.92,386.41,347a20,20,0,0,1-28.81-.55c-7.8-8.14-7.66-20.49.63-28.84q31.56-31.78,63.31-63.38C422.76,253,423.92,251.76,425.28,250.33Z"/><path class="cls-3" d="M74.63,250.34c1.36,1.44,2.52,2.72,3.74,3.93q31.16,31.17,62.34,62.3c6.33,6.3,8.93,13.57,6.15,22.19A20.24,20.24,0,0,1,113.43,347c-8-7.56-15.63-15.52-23.42-23.31q-28.64-28.62-57.24-57.25c-10.36-10.38-10.36-21.88,0-32.26Q72.4,194.54,112,154.92c5.31-5.32,11.5-8.1,19-6.7,8,1.5,13.63,6.32,16,14.14,2.42,8,.28,15.11-5.66,21q-31.52,31.5-63,63C77.15,247.62,76,248.9,74.63,250.34Z"/></g></svg>