<?xml version="1.0" encoding="utf-8"?>
<!-- Generator: Adobe Illustrator 23.0.1, SVG Export Plug-In . SVG Version: 6.00 Build 0)  -->
<svg version="1.1" id="Layer_1" xmlns="http://www.w3.org/2000/svg" xmlns:xlink="http://www.w3.org/1999/xlink" x="0px" y="0px"
	 viewBox="0 0 1300.7 940" style="enable-background:new 0 0 1300.7 940;" xml:space="preserve">
<style type="text/css">
	.st0{fill:#6CDAC5;stroke:#6CDAC5;stroke-width:50;stroke-miterlimit:10;}
	.st1{fill:#6CDAC5;stroke:#6CDAC5;stroke-width:15.72;stroke-miterlimit:10;}
</style>
<title>grow</title>
<g id="Layer_3">
	<path class="st0" d="M649.9,216c42.8,0,85.5,0.3,128.3-0.2c13-0.2,21.3,4.9,27.8,16c42.8,74.5,85.8,148.8,129,223.1
		c6,10.3,6.3,19.5,0.4,29.8c-43.5,75.1-87,150.2-130.3,225.4c-4.8,9.2-14.5,14.8-24.9,14.1c-86.4-0.2-172.8-0.2-259.3,0
		c-10.8,0.7-20.9-5.2-25.8-14.8c-43.1-74.8-86.3-149.5-129.6-224.2c-6.2-10.7-5.9-20.3,0.4-31c43.2-74.2,86.1-148.6,128.8-223.1
		c6.1-10.7,14.4-15.4,26.9-15.3C564.4,216.2,607.2,216,649.9,216z M783.9,660.9c1.5-2.1,2.4-3.1,3.1-4.2
		c34.6-59.9,69.2-119.7,103.3-179.8c2.1-3.8,1.4-11.1-0.9-15.2c-32.8-57.8-66.2-115.3-99.5-172.9c-1.7-2.6-3.6-5.2-5.6-7.6
		c-1.5,2.1-2.6,3.4-3.5,4.9c-33.9,58.7-68,117.3-101.3,176.4c-2.5,4.4-1.5,12.8,1.1,17.5c21.1,38.1,43.1,75.8,64.8,113.6
		C758.1,615.6,770.7,637.7,783.9,660.9L783.9,660.9z M418.9,449h14.5c63.9,0,127.8-0.2,191.6,0.2c9.6,0,14.8-2.6,19.6-11.1
		c31.9-56.4,64.5-112.3,96.8-168.3c1.9-3.2,3.3-6.7,5.5-11.4c-71.8,0-141.8,0-211.8,0.4c-4,0-9.4,4.2-11.6,7.9
		c-33.3,56.9-66.2,114.2-99.2,171.3C422.6,441,421.3,444,418.9,449z M745.4,681.7c-0.3-1.8-0.8-3.3-1.4-5
		c-34-59.6-68-119.3-102.5-178.6c-2.1-3.7-9-6.4-13.7-6.4c-66.1-0.4-132.2-0.3-198.3-0.3c-2.9,0-5.8,0.3-9.2,0.5
		c0,1.5,0.3,3.1,0.7,4.5c34.5,59.8,69.1,119.5,103.9,179.3c2.4,3.4,6.2,5.5,10.3,5.8C604.7,681.8,674.3,681.7,745.4,681.7
		L745.4,681.7z"/>
	<path class="st1" d="M1198.4,496.1H1100c-13.7,0-27.4,0.2-41,0c-18-0.4-29.4-10.9-29.4-26.2s11.5-26.1,29.4-26.1
		c58.5-0.2,64.9,0,123.4,0h21.2c-14.4-14.1-25.8-24.8-36.6-36c-13.8-14.1-14.9-28.9-3.5-40.5s26.5-10.9,40.4,2.9
		c26.2,25.7,52,51.7,77.6,77.8c15.2,15.5,15.2,28.4-0.2,44c-25.6,26.2-51.5,52.1-77.6,77.8c-13.9,13.7-29.1,14.3-40.4,2.5
		c-10.8-11.3-10.1-26.2,2.8-39.2c11-11.3,22.9-21.9,34.4-32.7L1198.4,496.1z"/>
	<path class="st1" d="M1056.4,101l-69.5,69.5c-9.7,9.7-19.2,19.5-29,29c-13,12.4-28.5,13.1-39.3,2.3s-10.3-26.6,2.3-39.3
		c41.2-41.5,45.9-45.9,87.3-87.3l15-15c-20.2,0.2-35.7,0.7-51.3,0.5c-19.8-0.2-30.9-9.9-31.1-26.1s11.1-26.4,30.7-26.5
		c36.7-0.3,73.3-0.2,109.9,0.2c21.7,0.2,30.8,9.3,31,31.3c0.4,36.6,0.4,73.2,0.1,109.9c-0.1,19.5-10.4,30.7-26.8,30.4
		c-15.7-0.3-25.7-11.3-25.8-29.7c-0.2-15.8,0.7-31.6,1.2-47.4L1056.4,101z"/>
	<path class="st1" d="M281.4,64l69.5,69.5c9.7,9.7,19.5,19.2,29,29c12.4,13,13.1,28.5,2.3,39.3s-26.6,10.4-39.3-2.3
		c-41.5-41.2-45.9-45.9-87.3-87.3l-15-14.9c0.2,20.2,0.7,35.7,0.5,51.3c-0.2,19.8-9.9,31-26.1,31.1s-26.4-11.1-26.5-30.6
		c-0.3-36.7-0.2-73.3,0.2-109.9c0.2-21.7,9.3-30.8,31.3-31c36.6-0.4,73.2-0.4,109.9-0.1c19.5,0.1,30.7,10.4,30.4,26.8
		c-0.3,15.6-11.3,25.6-29.7,25.7c-15.8,0.2-31.6-0.7-47.4-1.2L281.4,64z"/>
	<path class="st1" d="M102.4,443.9h98.3c13.7,0,27.4-0.2,41,0c18,0.4,29.4,10.9,29.4,26.2c0,15.3-11.5,26.2-29.4,26.2
		c-58.5,0.2-64.9,0-123.4,0H97.1c14.4,14.1,25.8,24.7,36.6,36c13.8,14.2,14.9,28.9,3.5,40.5s-26.5,10.9-40.4-2.9
		c-26.1-25.7-52-51.7-77.6-77.8C4,476.5,4,463.6,19.4,447.9C45,421.8,70.9,395.9,97,370.2c13.9-13.7,29.1-14.4,40.4-2.5
		c10.9,11.3,10.1,26.2-2.8,39.2c-11,11.3-22.9,21.9-34.4,32.7L102.4,443.9z"/>
	<path class="st1" d="M244.4,839l69.5-69.5c9.7-9.7,19.2-19.5,29-29c13-12.4,28.5-13.1,39.3-2.3c10.8,10.8,10.3,26.6-2.3,39.3
		c-41.2,41.5-45.9,45.9-87.3,87.3l-15,15c20.2-0.2,35.7-0.7,51.3-0.5c19.8,0.2,31,9.9,31.1,26.1c0.2,16.3-11.1,26.4-30.6,26.5
		c-36.7,0.3-73.3,0.2-109.9-0.2c-21.7-0.2-30.8-9.3-31-31.3c-0.4-36.6-0.4-73.2-0.1-109.9c0.1-19.5,10.4-30.7,26.8-30.4
		c15.6,0.3,25.7,11.3,25.8,29.7c0.2,15.8-0.7,31.6-1.2,47.4L244.4,839z"/>
	<path class="st1" d="M1019.4,876l-69.5-69.5c-9.7-9.7-19.5-19.2-29-29c-12.4-13-13.1-28.5-2.3-39.3s26.6-10.3,39.3,2.3
		c41.5,41.2,45.9,45.9,87.3,87.3l15,15c-0.2-20.2-0.7-35.7-0.5-51.3c0.2-19.8,9.9-31,26.1-31.1s26.4,11.1,26.5,30.7
		c0.3,36.7,0.2,73.3-0.2,109.9c-0.2,21.7-9.3,30.8-31.3,31c-36.6,0.4-73.2,0.4-109.9,0.1c-19.5-0.1-30.7-10.4-30.4-26.8
		c0.3-15.7,11.3-25.7,29.7-25.8c15.8-0.2,31.6,0.7,47.4,1.2L1019.4,876z"/>
</g>
</svg>
