<svg xmlns="http://www.w3.org/2000/svg" xmlns:xlink="http://www.w3.org/1999/xlink" viewBox="0 0 500 500"><defs><style>.cls-1,.cls-10,.cls-11,.cls-2,.cls-3,.cls-4,.cls-5,.cls-6,.cls-7,.cls-8,.cls-9{fill:none;stroke-miterlimit:10;stroke-width:3px;}.cls-1{opacity:0.3;stroke:url(#New_Gradient_Swatch_1);}.cls-2{stroke:url(#New_Gradient_Swatch_1-2);}.cls-3{stroke:url(#New_Gradient_Swatch_1-3);}.cls-4{stroke:url(#New_Gradient_Swatch_1-4);}.cls-5{stroke:url(#New_Gradient_Swatch_1-5);}.cls-6{stroke:url(#New_Gradient_Swatch_1-6);}.cls-7{stroke:url(#New_Gradient_Swatch_1-7);}.cls-8{stroke:url(#New_Gradient_Swatch_1-8);}.cls-9{stroke:url(#New_Gradient_Swatch_1-9);}.cls-10{stroke:url(#New_Gradient_Swatch_1-10);}.cls-11{stroke:url(#New_Gradient_Swatch_1-11);}</style><linearGradient id="New_Gradient_Swatch_1" x1="10.5" y1="250" x2="489.5" y2="250" gradientUnits="userSpaceOnUse"><stop offset="0" stop-color="#027e94"/><stop offset="1" stop-color="#027e94"/></linearGradient><linearGradient id="New_Gradient_Swatch_1-2" x1="152.03" y1="249.94" x2="347.93" y2="249.94" xlink:href="#New_Gradient_Swatch_1"/><linearGradient id="New_Gradient_Swatch_1-3" x1="214.61" y1="73.21" x2="285.38" y2="73.21" xlink:href="#New_Gradient_Swatch_1"/><linearGradient id="New_Gradient_Swatch_1-4" x1="214.62" y1="426.75" x2="285.36" y2="426.75" xlink:href="#New_Gradient_Swatch_1"/><linearGradient id="New_Gradient_Swatch_1-5" x1="52.78" y1="156.87" x2="141.27" y2="156.87" xlink:href="#New_Gradient_Swatch_1"/><linearGradient id="New_Gradient_Swatch_1-6" x1="358.68" y1="156.84" x2="447.31" y2="156.84" xlink:href="#New_Gradient_Swatch_1"/><linearGradient id="New_Gradient_Swatch_1-7" x1="52.69" y1="343.1" x2="140.98" y2="343.1" xlink:href="#New_Gradient_Swatch_1"/><linearGradient id="New_Gradient_Swatch_1-8" x1="358.93" y1="343.14" x2="447.22" y2="343.14" xlink:href="#New_Gradient_Swatch_1"/><linearGradient id="New_Gradient_Swatch_1-9" x1="175.85" y1="198.89" x2="325.16" y2="198.89" xlink:href="#New_Gradient_Swatch_1"/><linearGradient id="New_Gradient_Swatch_1-10" x1="168.16" y1="275.55" x2="243.54" y2="275.55" xlink:href="#New_Gradient_Swatch_1"/><linearGradient id="New_Gradient_Swatch_1-11" x1="256.51" y1="275.46" x2="331.81" y2="275.46" xlink:href="#New_Gradient_Swatch_1"/></defs><title>Artboard 3Icons</title><g id="Layer_3" data-name="Layer 3"><rect class="cls-1" x="12" y="12" width="476" height="476" rx="91.78"/><path class="cls-2" d="M153.6,250.09c0-16.23.11-32.46-.07-48.69-.06-4.94,1.84-8.1,6.08-10.53q42.39-24.35,84.64-48.94c3.89-2.26,7.42-2.38,11.29-.14q42.73,24.78,85.52,49.43a9.93,9.93,0,0,1,5.36,9.44q-.12,49.18,0,98.37a10.29,10.29,0,0,1-5.61,9.81Q298.24,333.37,255.74,358c-4.06,2.35-7.69,2.22-11.75-.14Q201.74,333.3,159.33,309c-4.07-2.33-5.84-5.47-5.79-10.2C153.69,282.55,153.6,266.32,153.6,250.09Zm168.81-50.85c-.78-.57-1.16-.91-1.59-1.16-22.71-13.11-45.4-26.27-68.21-39.2-1.44-.81-4.23-.54-5.76.33-21.93,12.46-43.75,25.11-65.59,37.74a33.78,33.78,0,0,0-2.89,2.14c.79.57,1.28,1,1.84,1.32,22.28,12.87,44.52,25.79,66.93,38.43,1.65.93,4.85.58,6.65-.41,14.46-8,28.75-16.35,43.1-24.57C305.25,209.06,313.63,204.27,322.41,199.24ZM242,337.77v-5.51c0-24.24-.08-48.48.09-72.72,0-3.64-1-5.63-4.23-7.45C216.46,240,195.24,227.63,174,215.37c-1.23-.71-2.56-1.25-4.31-2.09,0,27.23,0,53.8.14,80.37,0,1.5,1.6,3.56,3,4.39,21.62,12.65,43.34,25.14,65,37.65C239,336.33,240.12,336.84,242,337.77Zm88.36-123.89a11.15,11.15,0,0,0-1.95.53c-22.63,12.92-45.27,25.8-67.79,38.91-1.39.81-2.43,3.42-2.44,5.21-.16,25.08-.11,50.15-.1,75.23,0,1.11.11,2.22.18,3.49a5.88,5.88,0,0,0,1.72-.28Q294,317.33,328,297.56a5.3,5.3,0,0,0,2.2-3.9C330.34,267.24,330.31,240.83,330.31,213.88Z"/><path class="cls-3" d="M258,53.9v46c0,4.18.07,8.37,0,12.54-.13,5.5-3.32,9-8,9s-8-3.52-8-9c-.07-17.89,0-35.78,0-53.67V52.3c-4.32,4.42-7.57,7.88-11,11.2-4.33,4.23-8.83,4.56-12.38,1.08s-3.32-8.11.89-12.37q11.81-12,23.8-23.73c4.73-4.65,8.68-4.65,13.47.05q12,11.76,23.79,23.73c4.19,4.25,4.39,8.9.78,12.36-3.45,3.32-8,3.1-12-.86-3.46-3.38-6.69-7-10-10.52Z"/><path class="cls-4" d="M259.31,446.6c3.34-3.5,6.59-7.11,10.06-10.49,4-3.94,8.57-4.12,12-.74s3.37,8-.54,12q-12.12,12.36-24.5,24.45c-4.34,4.25-8.37,4.22-12.72,0q-12.37-12.1-24.49-24.46c-3.9-4-3.93-8.64-.45-12s7.83-3.15,11.64.54c3.59,3.47,6.88,7.26,11.32,12,.16-3.1.31-4.65.31-6.2,0-17.89,0-35.78,0-53.67,0-6.21,3.89-10.12,9.05-9.4,4.42.6,7,3.93,7,9.47q.06,26.6,0,53.18v4.85Z"/><path class="cls-5" d="M83.15,144.29l34.92,20.25c5.36,3.09,10.75,6.12,16.07,9.26s7,7.69,4.4,12-6.94,5-12.26,2C110.9,179,95.57,170.1,80.22,161.26c-1.44-.83-2.89-1.63-5.16-2.9,1.42,5.36,2.68,9.95,3.85,14.57,1.53,6-.6,10.48-5.43,11.64-4.65,1.11-8.53-1.65-10.09-7.38q-4.32-16-8.51-31.95c-1.71-6.53.17-10,6.52-11.73q16.41-4.55,32.9-8.86c6.07-1.59,10.29.5,11.54,5.49,1.18,4.65-1.46,8.3-7.38,10C93.84,141.47,89.18,142.66,83.15,144.29Z"/><path class="cls-6" d="M417,144.26c-6.15-1.67-11.1-2.94-16-4.37-5.43-1.58-7.81-5.28-6.61-10s5.18-6.82,10.67-5.42q17.2,4.41,34.34,9.18c5.36,1.5,7.4,5.33,6,10.87q-4.35,16.72-9,33.36c-1.46,5.27-5.6,7.82-10.1,6.6s-6.69-5.47-5.41-10.82c1.16-4.83,2.55-9.61,4.09-15.33-5.7,3.25-10.58,6-15.43,8.8-11.87,6.83-23.71,13.71-35.6,20.5-5.58,3.19-10.09,2.4-12.61-2s-.91-8.69,4.65-11.9q22.77-13.17,45.59-26.25C413,146.68,414.41,145.81,417,144.26Z"/><path class="cls-7" d="M75,341.72l48.48-28a48,48,0,0,1,4.37-2.43,8,8,0,0,1,10.45,3.06c2.16,3.64,1.24,7.93-2.39,10.64a40.25,40.25,0,0,1-3.86,2.32q-21.66,12.53-43.34,25.07c-1.5.87-3,1.85-5.29,3.33,5.62,1.51,10.25,2.66,14.81,4,5.33,1.57,8,5.52,7,9.91-1.16,4.72-5.51,7.06-11.11,5.61q-16.71-4.32-33.34-9c-5.42-1.51-7.56-5.32-6.14-10.76q4.44-16.95,9.16-33.81c1.54-5.53,5.23-8,9.84-6.82,4.86,1.19,7,5.22,5.56,11.05C78,331,76.57,335.88,75,341.72Z"/><path class="cls-8" d="M416.94,355.68l-43.33-25.1c-2.31-1.34-4.63-2.66-6.93-4-5.94-3.48-7.68-7.66-5.06-12.13s7.2-5.08,13.07-1.73q21.75,12.41,43.46,24.89c2,1.14,4,2.26,6.75,3.82-1.38-5.27-2.6-9.74-3.74-14.23-1.45-5.72.59-9.92,5.34-11.15s8.59,1.29,10.16,7.08Q441,339.05,445.19,355c1.6,6.11-.41,9.73-6.42,11.4q-16.39,4.54-32.87,8.84c-5.61,1.45-10-.87-11.13-5.59-1.08-4.42,1.64-8.41,6.93-9.93C406.28,358.44,410.91,357.28,416.94,355.68Z"/><path class="cls-9" d="M322.41,199.24c-8.78,5-17.16,9.82-25.52,14.62-14.35,8.22-28.64,16.54-43.1,24.57-1.8,1-5,1.34-6.65.41-22.41-12.64-44.65-25.56-66.93-38.43-.56-.32-1.05-.75-1.84-1.32a33.78,33.78,0,0,1,2.89-2.14c21.84-12.63,43.66-25.28,65.59-37.74,1.53-.87,4.32-1.14,5.76-.33,22.81,12.93,45.5,26.09,68.21,39.2C321.25,198.33,321.63,198.67,322.41,199.24Z"/><path class="cls-10" d="M242,337.77c-1.83-.93-3-1.44-4.09-2.08-21.7-12.51-43.42-25-65-37.65-1.42-.83-3-2.89-3-4.39-.19-26.57-.14-53.14-.14-80.37,1.75.84,3.08,1.38,4.31,2.09,21.27,12.26,42.49,24.6,63.84,36.72,3.19,1.82,4.26,3.81,4.23,7.45-.17,24.24-.09,48.48-.09,72.72Z"/><path class="cls-11" d="M330.31,213.88c0,27,0,53.36-.1,79.78a5.3,5.3,0,0,1-2.2,3.9q-34,19.85-68.08,39.41a5.88,5.88,0,0,1-1.72.28c-.07-1.27-.18-2.38-.18-3.49,0-25.08-.06-50.15.1-75.23,0-1.79,1.05-4.4,2.44-5.21,22.52-13.11,45.16-26,67.79-38.91A11.15,11.15,0,0,1,330.31,213.88Z"/></g></svg>