<svg id="Layer_1" data-name="Layer 1" xmlns="http://www.w3.org/2000/svg" xmlns:xlink="http://www.w3.org/1999/xlink" viewBox="0 0 1200 1000"><defs><style>.cls-1,.cls-2{fill:none;}.cls-2,.cls-3,.cls-8{stroke-miterlimit:10;}.cls-2{stroke-width:2.98px;stroke:url(#linear-gradient);}.cls-3{stroke-width:2.77px;fill:url(#linear-gradient-2);stroke:url(#linear-gradient-3);}.cls-4{clip-path:url(#clip-path);}.cls-5{opacity:0.5;}.cls-6{clip-path:url(#clip-path-2);}.cls-7{opacity:0.9;}.cls-16,.cls-8{fill:#fff;}.cls-8{stroke:#fff;stroke-width:0.57px;}.cls-9{fill:#ebebeb;}.cls-10{opacity:0.9;}.cls-11{fill:url(#linear-gradient-4);}.cls-12{fill:url(#linear-gradient-5);}.cls-13{fill:url(#linear-gradient-6);}.cls-14{fill:silver;}.cls-15{fill:#cfcfcf;}.cls-16{opacity:0.7;}.cls-17{fill:url(#linear-gradient-7);}.cls-18{fill:url(#linear-gradient-8);}.cls-19{fill:url(#linear-gradient-9);}.cls-20{fill:url(#linear-gradient-10);}.cls-21{fill:url(#linear-gradient-11);}.cls-22{fill:url(#linear-gradient-12);}.cls-23{fill:url(#linear-gradient-13);}.cls-24{fill:url(#linear-gradient-14);}.cls-25{fill:url(#linear-gradient-15);}.cls-26{fill:url(#linear-gradient-16);}.cls-27{fill:url(#linear-gradient-17);}.cls-28{fill:url(#linear-gradient-18);}.cls-29{fill:url(#linear-gradient-19);}.cls-30{fill:url(#linear-gradient-20);}.cls-31{fill:url(#linear-gradient-21);}</style><linearGradient id="linear-gradient" x1="27.51" y1="502" x2="1172.49" y2="502" gradientTransform="matrix(1, 0, 0, -1, 0, 1002)" gradientUnits="userSpaceOnUse"><stop offset="0" stop-color="#027e94"/><stop offset="0" stop-color="#027e94"/><stop offset="1" stop-color="#027e94"/></linearGradient><linearGradient id="linear-gradient-2" x1="69.31" y1="500" x2="1130.69" y2="500" gradientTransform="matrix(1, 0, 0, 1, 0, 0)" xlink:href="#linear-gradient"/><linearGradient id="linear-gradient-3" x1="67.93" x2="1132.07" xlink:href="#linear-gradient"/><clipPath id="clip-path"><path class="cls-1" d="M291.65,57.11h616.7c122.2,0,221.27,84.37,221.27,188.45V754.44c0,104.08-99.07,188.45-221.27,188.45H291.65c-122.2,0-221.27-84.37-221.27-188.45V245.56C70.38,141.48,169.45,57.11,291.65,57.11Z"/></clipPath><clipPath id="clip-path-2"><rect id="SVGID" class="cls-1" x="6.18" y="-69.87" width="1160.75" height="1139.74" rx="242.48"/></clipPath><linearGradient id="linear-gradient-4" x1="505.05" y1="722.07" x2="886.56" y2="715.47" gradientTransform="matrix(1, 0.07, -0.05, 0.73, 36.2, 2.22)" gradientUnits="userSpaceOnUse"><stop offset="0.14" stop-color="#e5e5e5"/><stop offset="0.66" stop-color="#e6e6e6"/><stop offset="0.8" stop-color="#e1e1e1"/><stop offset="0.95" stop-color="#d4d4d4"/><stop offset="1" stop-color="#cecece"/></linearGradient><linearGradient id="linear-gradient-5" x1="572.69" y1="791.22" x2="560.27" y2="1179.11" gradientTransform="matrix(1, 0.07, -0.05, 0.73, 36.2, 2.22)" gradientUnits="userSpaceOnUse"><stop offset="0.19" stop-color="#e6e6e6"/><stop offset="0.4" stop-color="#e1e1e1"/><stop offset="0.64" stop-color="#d4d4d4"/><stop offset="0.72" stop-color="#cecece"/></linearGradient><linearGradient id="linear-gradient-6" x1="621.26" y1="734.74" x2="883.63" y2="1104.92" gradientTransform="matrix(1, 0.07, -0.05, 0.73, 36.2, 2.22)" gradientUnits="userSpaceOnUse"><stop offset="0.15" stop-color="#cecece"/><stop offset="0.45" stop-color="#c6c6c6"/><stop offset="0.9" stop-color="#b1b1b1"/><stop offset="1" stop-color="#acacac"/></linearGradient><linearGradient id="linear-gradient-7" x1="529.53" y1="439.06" x2="911.05" y2="432.47" xlink:href="#linear-gradient-4"/><linearGradient id="linear-gradient-8" x1="597.17" y1="508.22" x2="584.76" y2="896.1" xlink:href="#linear-gradient-5"/><linearGradient id="linear-gradient-9" x1="645.75" y1="451.74" x2="908.12" y2="821.91" xlink:href="#linear-gradient-6"/><linearGradient id="linear-gradient-10" x1="737.87" y1="771.82" x2="1119.39" y2="765.22" xlink:href="#linear-gradient-4"/><linearGradient id="linear-gradient-11" x1="805.51" y1="840.97" x2="793.1" y2="1228.86" xlink:href="#linear-gradient-5"/><linearGradient id="linear-gradient-12" x1="854.08" y1="784.5" x2="1116.45" y2="1154.67" xlink:href="#linear-gradient-6"/><linearGradient id="linear-gradient-13" x1="759.16" y1="495.61" x2="1140.67" y2="489.01" xlink:href="#linear-gradient-4"/><linearGradient id="linear-gradient-14" x1="826.8" y1="564.76" x2="814.38" y2="952.65" xlink:href="#linear-gradient-5"/><linearGradient id="linear-gradient-15" x1="875.37" y1="508.28" x2="1137.74" y2="878.45" xlink:href="#linear-gradient-6"/><linearGradient id="linear-gradient-16" x1="-128.35" y1="826.27" x2="253.16" y2="819.67" gradientTransform="matrix(-1, 0.07, 0.05, 0.73, 261.04, 2.22)" xlink:href="#linear-gradient-4"/><linearGradient id="linear-gradient-17" x1="-60.71" y1="895.43" x2="-73.13" y2="1283.31" gradientTransform="matrix(-1, 0.07, 0.05, 0.73, 261.04, 2.22)" xlink:href="#linear-gradient-5"/><linearGradient id="linear-gradient-18" x1="-12.14" y1="838.95" x2="250.23" y2="1209.12" gradientTransform="matrix(-1, 0.07, 0.05, 0.73, 261.04, 2.22)" xlink:href="#linear-gradient-6"/><linearGradient id="linear-gradient-19" x1="455.61" y1="164.76" x2="837.12" y2="158.16" xlink:href="#linear-gradient-4"/><linearGradient id="linear-gradient-20" x1="523.25" y1="233.91" x2="510.83" y2="621.8" xlink:href="#linear-gradient-5"/><linearGradient id="linear-gradient-21" x1="571.82" y1="177.43" x2="834.19" y2="547.6" xlink:href="#linear-gradient-6"/></defs><title>Artboard 1artwork-Nauvis3</title><path class="cls-2" d="M267.56,22.5H932.44c131.75,0,238.56,91,238.56,203.18V774.32c0,112.21-106.81,203.18-238.56,203.18H267.56C135.81,977.5,29,886.53,29,774.32V225.68C29,113.47,135.81,22.5,267.56,22.5Z"/><path class="cls-3" d="M291,56.21H909c122.45,0,221.72,84.55,221.72,188.84V755c0,104.29-99.27,188.84-221.72,188.84H291C168.58,943.79,69.31,859.24,69.31,755V245.05C69.31,140.76,168.58,56.21,291,56.21Z"/><g class="cls-4"><g class="cls-5"><g class="cls-6"><g class="cls-7"><path class="cls-8" d="M534.61,1067.49c-25.95,0-59.95-12.53-102.61-37.72-59.81-35.3-128.49-90.15-194.92-143.19C124.83,797,18.81,712.27-17.36,745.58c-21.46,19.76-17.18,79.49,13.08,182.61l-1.25.52C-36,824.87-40.13,764.56-18.17,744.35c36.93-34,143.33,51,256,140.93,66.38,53,135,107.83,194.77,143.11,67.5,39.85,113,47.91,139.15,24.62,19.73-17.59,28.87-54,27.16-108.35C597,884.92,582,801.18,554.15,695.81c-28.86-109.35-44.93-195.2-47.74-255.16-2.56-54.36,5.71-89,24.58-103.12,63.12-47.06,231.75,142.55,343.33,268,52.41,58.93,97.68,109.8,104.29,103.31,7.82-7.67-37.07-94.82-71.53-159.71C840,422.75,815.63,364.08,825.71,353s52.91,26.86,112.09,79.51c50.11,44.57,112.45,100,169.7,137.38,66.79,43.57,113.84,54.5,143.82,33.4,35.26-24.81,46.3-95.95,32.83-211.44l1.3-.22c7.07,60.56,7.46,109.39,1.17,145.16-5.81,32.94-17.45,55.77-34.62,67.84-10.42,7.33-22.54,10.63-36,10.63-75,0-190.84-103-279-181.5-56.46-50.22-101.07-89.9-110.4-79.6S843.25,426,908.15,548.29c71.27,134.21,76,157.1,71.26,161.76a3.07,3.07,0,0,1-2.23.84c-10.58,0-44.22-37.22-103.81-104.22C762.08,481.54,593.91,292.44,531.64,338.86c-39,29.07-31,149,23.73,356.46,53.8,203.87,59.4,321.28,17.14,358.95C562.63,1063.07,550.05,1067.49,534.61,1067.49Z"/><path class="cls-8" d="M524.37,1052.45c-26,0-59.75-11.68-101.74-35.14C362,983.46,292.5,930.21,225.22,878.72,111.65,791.78,4.38,709.63-32.32,744.09c-21.5,20.19-17.63,78.8,11.83,179.19l-1.24.52c-29.66-101.1-33.4-160.29-11.41-180.95C4.31,707.71,112,790.13,225.94,877.4c67.23,51.47,136.73,104.7,197.23,138.5,68.41,38.22,114.56,45.07,141.15,20.94,19.81-18,29.19-54.19,27.86-107.61-1.46-58.69-15.88-140.49-42.85-243.13-28-106.75-43.45-190.78-45.81-249.73C501.38,382.89,510,348.46,529,334,593.2,285.36,763.1,470.17,875.54,592.45c52.72,57.35,98.25,106.88,105,100.15,7.85-7.9-36.78-92.9-71-156.16C842.82,413.36,818.68,356,828.74,344.61c10.2-11.56,53.39,25.39,113.14,76.51,50.62,43.3,113.62,97.19,171.55,133.1,67.61,41.93,115.35,51.72,145.92,29.94,35.57-25.34,47.32-95.4,34.91-208.23l1.31-.2c6.51,59.14,6.44,107-.2,142.24-6.12,32.48-18,55.2-35.33,67.54-31,22.08-79.16,12.31-147.19-29.89-58-36-121-89.91-171.71-133.23-57-48.78-102.06-87.32-111.47-76.66-9.27,10.48,16.47,70.82,80.93,189.85C981.47,666.45,986.14,689,981.38,693.79c-7.25,7.29-41.58-29.35-106.7-100.19-112.13-122-281.59-306.3-344.95-258.26C490.37,365.18,497.4,483,550.63,685.62c52.19,198.66,56.94,314,14.52,352.46C554.59,1047.67,541.05,1052.45,524.37,1052.45Z"/><path class="cls-8" d="M514,1037.82c-26.07,0-59.46-10.85-100.72-32.62-61.43-32.41-131.9-84.08-200-134C98.27,786.85-10.33,707.22-47.54,742.88-69,763.5-65.57,821-36.91,918.69l-1.24.51C-67,820.81-70.37,762.75-48.37,741.66-10.44,705.33,98.55,785.23,214,869.84c68.1,49.93,138.53,101.58,199.87,133.93C483.15,1040.36,530,1046,557,1021c19.88-18.39,29.48-54.34,28.52-106.88-1-57.65-14.83-137.55-41-237.47-27.25-104.18-42-186.42-43.91-244.38C499,379.67,507.82,345.49,527,330.69c65.31-50.36,236.61,129.76,350,248.91,55.26,58.11,98.9,104,105.67,97,7.87-8.15-36.5-91-70.57-152.66-66.21-119.81-90.19-175.91-80.15-187.6,10.24-11.93,53.87,23.92,114.26,73.54,51.16,42,114.84,94.36,173.51,128.88,68.46,40.3,116.91,48.94,148.09,26.46,35.87-25.86,48.3-94.84,37-205.06L1306,360c5.93,57.74,5.42,104.64-1.57,139.36-6.43,32-18.53,54.65-36,67.24-31.61,22.79-80.46,14.15-149.37-26.38-58.73-34.59-122.46-87-173.66-129-57.62-47.35-103.12-84.74-112.59-73.71-9.23,10.75,16.31,69.72,80.34,185.61,70.48,127.54,75.1,149.79,70.32,154.71-7.28,7.54-41.83-28.1-107.39-97C763.06,461.92,592.22,282.29,527.74,332c-39.69,30.61-33.6,146.41,18.12,344.19,50.6,193.53,54.52,306.71,12,346C546.62,1032.62,532.05,1037.82,514,1037.82Z"/><path class="cls-8" d="M503.54,1023.56c-26.07,0-59.08-10-99.56-30.15-62.29-31-133.73-81.06-202.8-129.5C84.72,782.22-25.29,705.09-63,741.93c-21.5,21-18.41,77.43,9.48,172.45l-1.25.52c-28.1-95.69-31.07-152.67-9.08-174.17C-25.43,703.17,85,780.59,201.84,862.55,270.88,911,342.27,961,404.48,991.94c70.34,35,117.9,39.38,145.33,13.49,19.93-18.79,29.74-54.5,29.14-106.14-.65-56.62-13.81-134.64-39.12-231.88-26.45-101.66-40.59-182.11-42-239.11-1.32-51.75,7.83-85.69,27.16-100.86,66.43-52.12,239.23,123.35,353.59,239.45C934.2,623.4,978.15,668,985,660.8c7.89-8.38-36.24-89.17-70.13-149.22C849,395,825.22,340.13,835.21,328.16c10.28-12.32,54.38,22.46,115.42,70.58,51.75,40.78,116.14,91.58,175.56,124.69,69.36,38.67,118.54,46.17,150.36,23,36.14-26.38,49.25-94.33,38.92-201.95l1.32-.18c5.41,56.38,4.45,102.33-2.87,136.54-6.75,31.56-19.09,54.08-36.71,66.93-32.21,23.51-81.8,16-151.6-22.88-59.5-33.17-123.95-84-175.73-124.81-58.25-45.91-104.25-82.19-113.77-70.78-9.2,11,16.15,68.68,79.78,181.44C986,635,990.58,656.93,985.8,662a3.59,3.59,0,0,1-2.74,1.08c-11.28,0-45.48-34.14-105.38-95-114-115.81-286.4-290.81-352-239.32-40,31.4-34.82,145.17,15.39,338.19,49,188.45,52.15,299.56,9.54,339.72C538.72,1017.93,523.07,1023.56,503.54,1023.56Z"/><path class="cls-8" d="M492.93,1009.68c-26,0-58.6-9.24-98.25-27.76C331.47,952.4,259,903.86,189,856.92c-118-79.08-229.5-153.76-267.73-115.64C-100.24,762.71-97.5,818-70.39,910.42l-1.25.52c-27.32-93.08-29.91-149-8-170.87,38.93-38.81,150.79,36.12,269.23,115.48,70,46.91,142.42,95.41,205.55,124.9,71.38,33.33,119.65,36.5,147.56,9.69,20-19.16,30-54.65,29.71-105.41-.27-55.61-12.83-131.76-37.31-226.34-25.67-99.16-39.19-177.85-40.2-233.89-.91-50.92,8.5-84.62,28-100.17,67.55-53.91,242,117,357.38,230.05,56.07,54.93,100.34,98.34,107.2,90.83,7.89-8.62-36-87.36-69.72-145.83-65.38-113.39-89-167-79.1-179.29,10.28-12.72,54.9,21,116.64,67.64,52.36,39.57,117.53,88.79,177.73,120.52,70.3,37.08,120.26,43.42,152.7,19.46,36.41-26.89,50.17-93.8,40.88-198.86l1.31-.17c4.86,55,3.46,100-4.17,133.73-7,31.12-19.61,53.54-37.33,66.63-32.84,24.25-83.19,17.92-153.93-19.35-60.3-31.78-125.5-81.05-177.9-120.64-58.9-44.49-105.43-79.66-115-67.87-9.15,11.31,16,67.65,79.27,177.33,69.77,121,74.3,142.67,69.52,147.88a3.76,3.76,0,0,1-2.94,1.16c-11.53,0-45.93-33.13-106-91.94C764.35,442.82,590.38,272.38,523.65,325.67c-40.29,32.17-36,144,12.75,332.29,47.46,183.42,49.82,292.48,7.17,333.44C530.86,1003.57,514.06,1009.68,492.93,1009.68Z"/><path class="cls-8" d="M482.16,996.16c-25.91,0-58-8.46-96.74-25.41-64.16-28.08-137.68-75.06-208.78-120.49C57,773.78-56.07,701.54-94.79,740.94c-21.43,21.8-19,76,7.32,165.82l-1.24.52c-26.54-90.46-28.81-145.26-6.92-167.54,39.39-40.1,152.81,32.39,272.88,109.13,71.05,45.41,144.52,92.37,208.61,120.41,72.47,31.72,121.48,33.63,149.85,5.86,20-19.55,30.16-54.77,30.24-104.66.09-54.6-11.86-128.92-35.55-220.89C505.51,552.91,492.59,476,492,420.86c-.53-50.09,9.14-83.57,28.75-99.49C589.45,265.55,765.61,431.92,882.18,542c56.5,53.39,101.17,95.54,108,87.82,7.89-8.86-35.8-85.57-69.36-142.5-65-110.29-88.53-162.71-78.66-175.25,10.31-13.12,55.44,19.53,117.92,64.7,53,38.34,118.95,86.06,180,116.42,71.3,35.43,122,40.64,155.13,15.91,36.66-27.39,51.06-93.28,42.79-195.8l1.31-.15c8.32,103.18-6.28,169.55-43.38,197.28-33.49,25-84.62,19.85-156.34-15.8-61.14-30.4-127.16-78.13-180.18-116.5-59.6-43.14-106.68-77.2-116.27-65-9.1,11.58,15.94,66.64,78.78,173.28C991.4,604.26,995.89,625.62,991.13,631c-7.37,8.27-42.71-24.39-109.76-87.73-116.27-109.81-292-275.75-359.85-220.59C481,355.59,484.39,465.43,531.68,649.1c46,178.45,47.54,285.5,4.89,327.24C523.08,989.56,505,996.16,482.16,996.16Z"/><path class="cls-8" d="M471.21,983c-25.73,0-57.28-7.71-95-23.14-65.17-26.64-139.82-72.08-212-116-121.4-73.89-236.07-143.7-275.28-103-21.36,22.18-19.3,75.36,6.31,162.56l-1.25.51c-25.79-87.86-27.72-141.6-5.91-164.24C-72.06,698.26,43,768.31,164.8,842.46c72.14,43.92,146.75,89.35,211.83,115.94,73.6,30.08,123.39,30.73,152.22,2,20-19.92,30.33-54.89,30.72-103.93C560,802.87,548.64,730.37,525.75,641c-24.12-94.22-36.44-169.46-36.6-223.62-.15-49.27,9.76-82.52,29.46-98.83,69.82-57.77,247.84,104.18,365.65,211.33,57,51.84,102,92.78,108.92,84.8,7.87-9.11-35.59-83.79-69-139.21-63.77-105.79-87.9-158.6-78.25-171.26,10.33-13.54,56,18.06,119.25,61.8,53.69,37.13,120.5,83.33,182.41,112.28,72.34,33.83,123.9,37.87,157.65,12.36,36.89-27.87,51.91-92.73,44.64-192.79l1.31-.13c7.32,100.68-7.91,166-45.23,194.25-14.75,11.15-32.84,16.73-54.5,16.73-28.44,0-63-9.64-104.35-28.95-62-29-128.87-75.24-182.59-112.39-60.34-41.74-108-74.7-117.62-62.1-9,11.84,15.86,65.62,78.33,169.28,69.14,114.69,73.61,135.76,68.86,141.26a4.08,4.08,0,0,1-3.29,1.32c-12.8,0-51.55-35.24-107.34-86C766,424.22,588.4,262.7,519.38,319.82c-19.32,16-29.05,48.8-28.92,97.53.17,54,12.47,129.09,36.56,223.19,44.43,173.55,45.3,278.58,2.68,321.07C515.37,975.86,496,983,471.21,983Z"/><path class="cls-8" d="M460.07,970.22c-25.49,0-56.41-7-93.09-20.93-66.2-25.19-142-69.1-215.38-111.56C28.39,766.38-88,699-127.69,741.06c-21.26,22.54-19.52,74.65,5.32,159.31l-1.24.52c-25.06-85.33-26.67-138-5-161,40.35-42.77,157.12,24.84,280.74,96.42,73.29,42.44,149.08,86.33,215.21,111.48,74.79,28.45,125.38,27.8,154.67-1.93,20-20.28,30.44-55,31.14-103.18.79-52.6-10-123.3-32.13-210.11C497.7,540.76,486,467.21,486.21,414c.21-48.47,10.36-81.5,30.15-98.18,71-59.78,251,97.76,370.1,202C944,568.14,989.4,607.89,996.32,599.62c7.85-9.34-35.45-82.07-68.7-136-63.4-102.78-87.43-154.4-77.86-167.32,10.32-14,56.59,16.6,120.64,58.9,54.39,35.92,122.09,80.63,184.92,108.2,73.4,32.21,125.83,35.08,160.26,8.79,37.09-28.34,52.71-92.2,46.43-189.79l1.32-.12c6.33,98.21-9.49,162.55-47,191.24-34.79,26.59-87.6,23.77-161.43-8.63-62.92-27.62-130.67-72.36-185.1-108.31-61.12-40.36-109.37-72.23-119-59.23-8.94,12.11,15.83,64.65,78,165.36,68.83,111.59,73.3,132.39,68.59,138a4.36,4.36,0,0,1-3.53,1.43c-13.1,0-52.07-34.11-108-83.1-118.81-104-298.35-261.14-368.55-202-19.43,16.37-29.39,49-29.6,96.91-.24,53.08,11.48,126.46,34.81,218.13,42.94,168.69,43.13,271.73.58,314.95C507.7,962.5,486.89,970.22,460.07,970.22Z"/><path class="cls-8" d="M448.72,957.8c-25.18,0-55.38-6.28-90.93-18.81-67.3-23.72-144.37-66.12-218.9-107.1C13.78,763.09-104.4,698.12-144.56,741.56c-21.13,22.86-19.71,73.92,4.4,156.08l-1.24.52c-24.31-82.82-25.63-134.43-4-157.77,40.83-44.14,159.39,21.05,284.9,90.09,74.49,41,151.52,83.32,218.74,107,76,26.81,127.45,24.89,157.2-5.89,19.92-20.62,30.53-55.08,31.54-102.41,1.11-51.61-9.16-120.52-30.48-204.84C493.83,535,482.69,463.1,483.29,410.77c.57-47.69,10.93-80.5,30.81-97.55,72.14-61.88,254.24,91.33,374.77,192.7,58,48.84,103.91,87.42,110.85,78.88,7.81-9.58-35.31-80.37-68.43-132.79-63.07-99.83-87-150.23-77.54-163.42,10.29-14.39,57.19,15.13,122.09,56,55.14,34.72,123.77,78,187.55,104.14,74.52,30.6,127.84,32.3,163,5.19,37.28-28.8,53.49-91.66,48.17-186.83l1.32-.1c5.35,95.79-11,159.11-48.77,188.24-35.48,27.41-89.16,25.76-164.11-5C1099.08,424,1030.41,380.75,975.23,346c-61.94-39-110.86-69.83-120.47-56.41-8.85,12.36,15.8,63.67,77.59,161.47,68.56,108.54,73,129.06,68.32,134.82a4.58,4.58,0,0,1-3.78,1.56c-13.41,0-52.62-33-108.79-80.24C767.89,406.07,586.24,253.27,514.87,314.49c-19.52,16.74-29.7,49.13-30.26,96.29-.62,52.16,10.52,123.87,33.1,213.13,41.46,163.93,41,265-1.46,308.88C500.1,949.46,477.75,957.8,448.72,957.8Z"/><path class="cls-8" d="M437.14,945.73c-24.79,0-54.21-5.59-88.52-16.76C280.19,906.69,201.81,865.84,126,826.32c-127.11-66.27-247.15-128.83-287.81-84-21,23.18-19.86,73.17,3.53,152.89l-1.24.51c-23.58-80.34-24.62-130.89-3.17-154.54,41.29-45.54,161.71,17.24,289.22,83.71C202.31,864.39,280.63,905.22,349,927.47c77.33,25.18,129.6,21.94,159.79-9.89,19.87-21,30.59-55.14,31.88-101.63,1.41-50.62-8.31-117.78-28.87-199.61-21.88-87.05-32.47-157.26-31.48-208.67.91-46.9,11.46-79.5,31.41-96.92,73.3-64,257.67,84.9,379.64,183.42,58.66,47.35,105,84.76,111.93,75.93,7.76-9.82-35.2-78.69-68.18-129.65-62.76-96.92-86.57-146.14-77.25-159.59C868.13,266,915.65,294.55,981.43,334c55.93,33.54,125.54,75.26,190.3,100.1,75.72,29,129.94,29.52,165.77,1.55,37.45-29.22,54.23-91.09,49.87-183.89l1.32-.09c4.39,93.39-12.58,155.72-50.46,185.31-36.18,28.24-90.78,27.8-166.89-1.37-64.88-24.84-134.54-66.62-190.5-100.19-62.77-37.65-112.37-67.38-122-53.53-8.74,12.6,15.82,62.7,77.27,157.63,54.35,83.94,74.71,123.32,68.1,131.68a4.86,4.86,0,0,1-4.05,1.68c-13.72,0-53.19-31.89-109.56-77.4C769,397.16,585,248.63,512.49,312c-19.59,17.11-30,49.31-30.88,95.69-1,51.25,9.59,121.29,31.43,208.19,40,159.21,38.9,258.28-3.4,302.86C492.55,936.74,468.55,945.73,437.14,945.73Z"/><path class="cls-8" d="M425.28,934c-24.31,0-52.84-4.94-85.81-14.8C269.85,898.41,190.12,859.08,113,821c-129.17-63.72-251.17-123.9-292.28-77.63-20.85,23.46-20,72.42,2.7,149.67l-1.24.52c-22.86-77.89-23.64-127.4-2.38-151.34,41.73-47,164.12,13.41,293.7,77.33,77.06,38,156.75,77.33,226.28,98.12,78.68,23.53,131.83,19,162.5-14,19.8-21.25,30.62-55.17,32.17-100.82,1.69-49.65-7.5-115.06-27.31-194.44C486,523.79,476,455.23,477.31,404.7c1.23-46.11,12-78.51,32-96.28,74.48-66.25,261.22,78.41,384.79,174.13,59.25,45.89,106,82.13,113,73,7.7-10.05-35.11-77.05-68-126.55-62.44-94.05-86.19-142.1-77-155.8,10.24-15.26,58.43,12.23,125.15,50.25,56.75,32.35,127.38,72.61,193.18,96,77,27.4,132.12,26.7,168.67-2.1,37.61-29.66,54.94-90.54,51.5-181l1.32-.08c3.46,91-14.07,152.38-52.09,182.36-36.89,29.08-92.43,29.84-169.77,2.29-65.91-23.46-136.59-63.76-193.38-96.13-63.68-36.27-114-65-123.55-50.68-8.62,12.83,15.85,61.73,77,153.86,54.16,81.56,74.47,120,67.91,128.58-7.71,10.07-50.27-22.88-114.69-72.78C770.07,388.41,583.8,244.09,510.07,309.67c-19.65,17.48-30.23,49.47-31.45,95.08-1.34,50.35,8.68,118.75,29.78,203.3,38.58,154.56,36.87,251.67-5.24,296.86C485.07,924.34,459.3,934,425.28,934Z"/><path class="cls-8" d="M413.1,922.68c-23.72,0-51.25-4.32-82.78-12.93-70.85-19.35-152-57.16-230.48-93.72-131.34-61.17-255.39-119-297-71.27-20.67,23.73-20,71.65,1.93,146.5l-1.25.52c-22.15-75.49-22.68-123.95-1.58-148.15,42.16-48.4,166.59,9.57,298.34,70.94,78.44,36.54,159.54,74.32,230.29,93.65,80.09,21.88,134.14,16,165.27-18.05,19.71-21.53,30.61-55.17,32.42-100,2-48.68-6.72-112.37-25.79-189.33-20.42-82.4-29.92-149.33-28.22-199,1.54-45.34,12.48-77.52,32.49-95.65C582.46,237.71,771.72,378.17,897,471.09c59.88,44.44,107.18,79.55,114.14,70.16,7.63-10.29-35-75.41-67.78-123.49-62.14-91.23-85.82-138.14-76.77-152.07,10.17-15.68,59.07,10.77,126.75,47.39,57.61,31.17,129.3,70,196.19,92,78.23,25.79,134.37,23.91,171.66-5.77,37.74-30,55.61-89.95,53.09-178.08l1.31-.05c2.54,88.7-15.52,149.07-53.67,179.44-37.62,29.94-94.12,31.88-172.74,6-67-22.08-138.73-60.9-196.39-92.09-64.61-35-115.62-62.56-125.16-47.86-8.49,13.07,15.9,60.77,76.74,150.12,54,79.24,74.24,116.79,67.76,125.52a5.39,5.39,0,0,1-4.65,2c-14.39,0-54.37-29.66-111.18-71.83C771.32,379.72,582.51,239.6,507.59,307.49c-19.7,17.83-30.45,49.62-32,94.47-1.68,49.45,7.79,116.23,28.18,198.46,19.12,77.11,27.81,141,25.85,189.85-1.82,45.23-12.87,79.24-32.84,101.06C477.62,912.27,450,922.68,413.1,922.68Z"/><path class="cls-8" d="M400.61,911.68c-23,0-49.44-3.71-79.42-11.16-72.13-17.87-154.77-54.15-234.68-89.23-133.59-58.65-259.78-114-301.79-64.88-20.46,24-20.07,70.84,1.2,143.33l-1.25.51c-21.45-73.11-21.74-120.53-.87-145C-173.62,695.43-47,751,87,809.8c79.87,35.06,162.46,71.32,234.5,89.17C403,919.18,458,911.92,489.57,876.78c19.59-21.79,30.57-55.14,32.63-99.11,2.22-47.7-6-109.7-24.31-184.28C478.18,513.28,469.21,448,471.23,399.21c1.85-44.58,12.94-76.56,33-95C581.05,233.29,773,369.56,900,459.74c60.57,43,108.4,77,115.34,67.29,7.54-10.51-35-73.81-67.65-120.49-61.85-88.45-85.47-134.21-76.59-148.37,10.12-16.12,59.75,9.32,128.44,44.53,58.49,30,131.31,67.32,199.33,88,79.55,24.18,136.71,21.08,174.75-9.47,37.85-30.4,56.23-89.35,54.61-175.21l1.32,0c1.62,86.38-16.94,145.81-55.2,176.54s-95.88,34-175.82,9.7c-68.11-20.71-141-58.06-199.51-88.07-65.58-33.61-117.37-60.17-126.86-45-8.34,13.3,16,59.83,76.55,146.45,53.8,76.94,74,113.58,67.63,122.51-1,1.43-2.7,2.11-5,2.11-14.74,0-55-28.58-112-69.08C772.61,371.14,581.15,235.2,505,305.44c-19.71,18.16-30.63,49.76-32.46,93.86-2,48.57,6.94,113.72,26.6,193.66,18.39,74.75,26.58,136.94,24.36,184.81-2.07,44.39-13.19,78.09-33,100.18C470.23,900.47,440.54,911.68,400.61,911.68Z"/><path class="cls-8" d="M387.75,901q-33.28,0-75.68-9.48C238.62,875.17,154.44,840.42,73,806.82c-135.94-56.11-264.34-109.11-306.77-58.47-20.23,24.19-20.07,70,.54,140.17l-1.25.52c-20.76-70.77-20.84-117.15-.2-141.8,43-51.33,171.78,1.82,308.13,58.11C154.83,838.93,239,873.66,312.33,890c83.05,18.54,139,9.91,171.06-26.38,19.47-22,30.49-55.08,32.76-98.21,2.46-46.71-5.23-107-22.86-179.29-19-77.85-27.46-141.59-25.13-189.45,2.13-43.81,13.37-75.56,33.39-94.38,78-73.33,272.76,58.8,401.62,146.24C964.44,490.12,1012.85,523,1019.74,513c5.67-8.16-15.79-45.52-67.52-117.53-61.58-85.71-85.16-130.35-76.46-144.73,10-16.56,60.43,7.87,130.18,41.69,59.45,28.81,133.41,64.66,202.58,84,80.93,22.56,139.14,18.24,178-13.2,38-30.77,56.83-88.73,56.09-172.35h1.32c.74,84.16-18.32,142.61-56.67,173.67-39.13,31.7-97.68,36.09-179,13.42-69.28-19.31-143.3-55.19-202.77-84-66.6-32.29-119.2-57.8-128.62-42.24-8.17,13.51,16.09,58.88,76.38,142.8,53.66,74.68,73.86,110.43,67.54,119.54-1.07,1.54-2.86,2.28-5.33,2.28-15.11,0-55.67-27.52-112.93-66.36C774,362.69,579.69,230.87,502.35,303.54c-19.72,18.54-30.78,49.89-32.89,93.23-2.33,47.69,6.11,111.25,25.07,188.92,17.67,72.42,25.39,132.92,22.92,179.82-2.29,43.54-13.45,76.94-33.17,99.24C462.88,889,431,901,387.75,901Z"/><path class="cls-8" d="M374.48,890.77q-31.83,0-71.52-7.93c-74.83-14.9-160.63-48.1-243.61-80.22-138.39-53.56-269.11-104.16-311.94-52-20,24.34-20,69.16-.13,137l-1.24.52c-20.1-68.47-20-113.82.43-138.66,43.4-52.82,174.49-2.08,313.28,51.64,82.93,32.11,168.69,65.29,243.43,80.16,84.62,16.85,141.56,6.83,174.08-30.61,19.32-22.25,30.38-55,32.86-97.28C512.81,707.62,505.59,649,488.65,579,470.34,503.39,462.39,441.24,465,394.25c2.4-43.06,13.76-74.59,33.73-93.72,79.27-75.79,277,52.22,407.75,136.93,62,40.16,111,71.88,117.9,61.62,5.59-8.33-15.84-44.74-67.44-114.59-61.33-83-84.87-126.55-76.34-141.14,9.93-17,61.12,6.43,132,38.85,60.4,27.64,135.58,62,206,79.93,82.37,20.94,141.65,15.41,181.25-16.93,38-31.06,57.39-88.1,57.52-169.52h1.32c-.13,82-19.67,139.44-58.09,170.82-39.92,32.58-99.54,38.21-182.28,17.16-70.48-17.92-145.7-52.34-206.15-80-67.63-30.94-121.06-55.38-130.4-39.4-8,13.72,16.22,57.93,76.25,139.2,53.52,72.45,73.7,107.33,67.48,116.61-1.12,1.67-3,2.45-5.72,2.45-15.48,0-56.35-26.45-113.82-63.68C775.4,354.33,578.16,226.63,499.61,301.77c-19.69,18.85-30.89,50-33.27,92.6-2.62,46.8,5.32,108.8,23.58,184.23,17,70.12,24.22,129,21.52,174.91-2.51,42.69-13.71,75.76-33.26,98.3C455.57,877.83,421.36,890.77,374.48,890.77Z"/><path class="cls-8" d="M-273.73,887.53c-19.44-66.22-19.11-110.55,1-135.5,43.78-54.34,177.28-6,318.61,45.15,84.54,30.6,172,62.25,248.16,75.63,86.24,15.15,144.22,3.74,177.19-34.89,19.16-22.44,30.23-54.84,32.92-96.3,2.89-44.79-3.88-101.82-20.12-169.49C466.41,498.72,459,438.12,461.86,392c2.67-42.3,14.14-73.61,34.11-93.06,80.45-78.36,281.24,45.54,414.12,127.54,62.8,38.75,112.41,69.37,119.24,58.82,5.49-8.48-15.92-44-67.39-111.71-61.08-80.37-84.61-122.8-76.28-137.58,9.82-17.42,61.83,5,133.82,36,61.41,26.46,137.84,59.39,209.47,75.9,83.85,19.32,144.26,12.56,184.65-20.69,38.11-31.35,57.93-87.44,58.89-166.71l1.32,0c-1,79.8-21,136.32-59.46,168-40.71,33.49-101.44,40.35-185.65,20.94C1157,332.92,1080.48,300,1019,273.49c-68.74-29.62-123-53-132.28-36.6-7.83,13.88,16.38,57,76.17,135.65,52.68,69.33,73.49,104.38,67.45,113.71-1.16,1.79-3.22,2.65-6.12,2.65-15.88,0-57-25.41-114.77-61C776.9,346.08,576.54,222.46,496.79,300.17c-19.65,19.15-31,50.09-33.62,91.94-2.9,45.93,4.55,106.35,22.13,179.58,16.3,67.84,23.08,125.06,20.17,170-2.71,41.85-13.92,74.59-33.31,97.31-33.29,39-91.61,50.54-178.31,35.32C217.59,861,130.11,829.31,45.52,798.69c-140.94-51-274.06-99.21-317.28-45.57-19.74,24.49-20,68.28-.71,133.89Z"/><path class="cls-8" d="M-293.82,887.23c-18.78-64-18.27-107.3,1.56-132.38,44.15-55.82,180.14-9.93,324.13,38.65,86.24,29.1,175.41,59.2,253.06,71.06,87.94,13.43,146.94.6,180.37-39.2,19-22.62,30.07-54.67,32.93-95.29,3.1-43.82-3.23-99.24-18.8-164.68-17-71.23-23.94-130.29-20.76-175.54,2.91-41.52,14.45-72.63,34.36-92.36,81.65-81,285.72,38.87,420.75,118.16,63.62,37.36,113.87,66.87,120.64,56,5.4-8.64-16-43.23-67.35-108.85-60.87-77.77-84.39-119.1-76.27-134.08,9.69-17.85,62.56,3.55,135.73,33.17,62.46,25.29,140.18,56.75,213.12,71.86,85.38,17.69,146.93,9.68,188.16-24.47,38.16-31.61,58.42-86.75,60.21-163.92l1.32,0c-1.81,77.69-22.25,133.26-60.78,165.17-41.52,34.4-103.39,42.48-189.13,24.72-73-15.13-150.82-46.62-213.32-71.92-69.87-28.29-125.06-50.63-134.21-33.8-7.63,14,16.56,56,76.12,132.15,52.58,67.17,73.38,101.36,67.45,110.85-1.2,1.92-3.41,2.83-6.55,2.83-16.29,0-57.76-24.36-115.73-58.4C778.46,337.92,574.85,218.36,493.88,298.67c-19.61,19.47-31,50.17-33.9,91.29-3.17,45.06,3.81,103.93,20.72,175,15.61,65.62,22,121.23,18.85,165.24-2.9,41-14.09,73.41-33.31,96.27-33.74,40.17-93.1,53.15-181.48,39.67-77.74-11.87-167-42-253.25-71.11-143.59-48.46-279.21-94.23-322.82-39.09-19.45,24.61-19.87,67.38-1.27,130.78Z"/><path class="cls-8" d="M-314.22,887.23c-18.14-61.82-17.47-104.1,2.05-129.25,20.35-26.22,60.43-33.5,126.09-22.9,58.25,9.4,128.91,31.56,203.71,55,88,27.59,179,56.12,258.16,66.45C365.48,868.24,425.55,854,459.43,813c18.79-22.74,29.86-54.45,32.9-94.22,3.28-42.87-2.64-96.67-17.54-159.94-16.29-69.1-22.81-126.61-19.39-171,3.15-40.8,14.8-71.63,34.6-91.63,82.85-83.64,290.35,32.12,427.66,108.73,64.47,36,115.39,64.38,122.09,53.25,5.29-8.79-16.11-42.48-67.36-106-60.66-75.22-84.16-115.5-76.27-130.61,9.56-18.28,63.32,2.11,137.72,30.33,63.54,24.1,142.61,54.09,216.88,67.8,87,16.05,149.71,6.8,191.78-28.27,38.2-31.84,58.89-86,61.48-161.15l1.32.06c-2.59,75.61-23.49,130.24-62,162.39-42.37,35.3-105.41,44.63-192.73,28.52-74.37-13.72-153.49-43.75-217.08-67.85-71.05-27-127.16-48.23-136.19-31-7.42,14.19,16.75,55.09,76.09,128.69,52.49,65.07,73.29,98.39,67.48,108-1.24,2.07-3.62,3-7,3-16.7,0-58.5-23.32-116.7-55.79-137-76.43-344.05-191.93-426.24-108.95-19.54,19.73-31,50.21-34.14,90.58-3.41,44.19,3.1,101.53,19.34,170.43,15,63.44,20.88,117.46,17.58,160.49-3.06,40.16-14.26,72.19-33.26,95.2-34.19,41.37-94.61,55.76-184.73,44-79.27-10.36-170.31-38.91-258.35-66.51C-129,745.73-267.24,702.39-311.2,759c-19.16,24.69-19.74,66.45-1.77,127.67Z"/><path class="cls-8" d="M-334.94,887.53c-17.52-59.67-16.69-100.94,2.49-126.14,20.5-26.91,61.18-35.09,128-25.75C-145.09,743.91-73.07,764.82,3.21,787,93,813,185.89,840,266.66,848.76c91.51,10,152.67-5.72,187-47.94,38.93-47.9,44.35-129.15,16.51-248.4-15.63-67-21.7-123-18-166.5,3.36-40,15.06-70.63,34.77-90.88,84-86.38,295.13,25.34,434.82,99.25,65.37,34.58,117,61.91,123.61,50.49,5.17-8.93-16.25-41.74-67.4-103.26-60.43-72.71-84-111.93-76.32-127.19,9.4-18.69,64.09.69,139.75,27.5,64.65,22.93,145.12,51.43,220.78,63.74,88.61,14.4,152.57,3.91,195.51-32.07,38.24-32,59.34-85.35,62.71-158.41l1.32.08c-3.39,73.58-24.68,127.29-63.26,159.61C1415.2,311,1350.94,321.57,1262,307.13c-75.76-12.32-156.29-40.86-221-63.77-72.27-25.61-129.36-45.85-138.24-28.2-7.21,14.33,17,54.13,76.11,125.27,52.39,63,73.23,95.48,67.56,105.26-1.29,2.22-3.83,3.25-7.53,3.25-17.15,0-59.27-22.3-117.71-53.2C851.51,358.87,764.79,313,684,286.51c-95.29-31.22-159.48-28-196.22,9.74-19.45,20-31,50.19-34.34,89.84-3.63,43.32,2.42,99.14,18,165.91,14.32,61.31,19.82,113.75,16.35,155.84-3.22,39.3-14.39,71-33.18,94.07C420,844.5,358.46,860.33,266.53,850.34c-80.86-8.8-173.78-35.77-263.63-61.85-149.17-43.29-290.07-84.16-334.37-26C-350.31,787.19-351,827.94-333.7,887Z"/><path class="cls-8" d="M-356,888.13c-16.9-57.58-15.94-97.83,2.9-123,20.65-27.59,62-36.7,130.05-28.63,60.4,7.15,133.87,26.79,211.65,47.6C80.29,808.59,175.1,834,257.51,841.18c93.36,8.2,155.66-8.92,190.44-52.36,38.46-48,44.2-127.39,17.58-242.64-15-64.88-20.63-119.38-16.76-162,3.57-39.29,15.32-69.61,34.91-90.09,37.63-39.35,103.3-44.21,200.75-14.83C766.76,304,855,348.24,925.94,383.76c66.3,33.22,118.66,59.44,125.19,47.74,5-9-16.4-41-67.48-100.5-60.26-70.24-83.82-108.42-76.37-123.8,9.23-19.09,64.85-.74,141.84,24.68,65.82,21.72,147.74,48.76,224.82,59.65,90.31,12.75,155.52,1,199.33-35.9,38.24-32.21,59.74-84.6,63.87-155.69l1.32.11c-4.17,71.58-25.85,124.37-64.44,156.85-44.09,37.13-109.6,48.94-200.25,36.16-77.18-10.9-159.15-38-225-59.69C975.22,209.1,917.14,189.93,908.41,208c-7,14.46,17.22,53.18,76.17,121.9,52.32,61,73.18,92.59,67.64,102.51-7.12,12.78-54.73-11.07-126.79-47.17-70.88-35.5-159.09-79.71-241.32-104.48-97-29.23-162.28-24.5-199.56,14.49-19.34,20.23-30.93,50.2-34.48,89.1-3.86,42.45,1.76,96.77,16.71,161.46C480.46,605,485.57,655.88,482,697c-3.38,38.46-14.51,69.72-33.07,92.91-35.07,43.79-97.7,61.08-191.5,52.84C174.89,835.51,80,810.13-11.72,785.59c-152.11-40.68-295.78-79.11-340.42-19.45-18.51,24.74-19.37,64.48-2.64,121.48Z"/><path class="cls-8" d="M-377.42,889c-16.32-55.54-15.23-94.77,3.28-119.95,20.76-28.27,62.75-38.3,132.08-31.52,61.55,6,136.48,24.4,215.82,43.87,93.65,23,190.49,46.71,274.59,52.39,95.28,6.43,158.75-12.16,194-56.82,37.93-48.09,44-125.59,18.56-236.91-14.36-62.81-19.58-115.85-15.51-157.63,3.76-38.56,15.52-68.59,35-89.29,38.16-40.59,104.94-47,204.17-19.65,83.82,23.12,173.64,65.64,245.8,99.8,67.26,31.84,120.38,57,126.8,45,4.91-9.17-16.56-40.24-67.57-97.81-60.08-67.84-83.66-105-76.47-120.46,9-19.48,65.65-2.15,144,21.85,67,20.53,150.43,46.07,229,55.54,92.06,11.09,158.55-1.88,203.28-39.73,38.26-32.34,60.13-83.82,65-153l1.32.13c-4.93,69.64-27,121.5-65.58,154.13-45,38.05-111.78,51.14-204.18,40-78.66-9.48-162.12-35-229.19-55.59-74.84-22.93-134-41-142.51-22.62-6.76,14.55,17.47,52.22,76.25,118.56,52.25,59,73.16,89.75,67.78,99.8-7,13.06-55.3-9.8-128.4-44.4C857.74,340.62,768,298.14,684.25,275c-98.78-27.25-165.18-20.94-203,19.28-19.21,20.41-30.83,50.14-34.55,88.3-4.05,41.58,1.15,94.42,15.47,157,13.06,57.16,17.79,106.51,14,146.69-3.52,37.63-14.59,68.47-32.91,91.71-35.5,45-99.29,63.77-195,57.31C164.09,829.69,67.2,805.92-26.5,782.94c-155.15-38.05-301.71-74-346.64-12.84-18.17,24.72-19.16,63.44-3,118.4Z"/><path class="cls-8" d="M-399.19,890.25c-15.7-53.52-14.52-91.75,3.62-116.88,20.9-29,63.54-39.89,134.17-34.39,62.69,4.86,139.16,22,220.13,40.08,95.67,21.4,194.6,43.54,280.45,47.62,97.29,4.62,161.93-15.41,197.6-61.3,37.39-48.09,43.75-123.72,19.47-231.19C442.5,473.38,437.71,421.82,442,380.92c3.93-37.82,15.71-67.56,35-88.44,38.68-41.85,106.62-49.87,207.69-24.53C770,289.35,861.48,330.18,935,363c68.25,30.47,122.16,54.53,128.47,42.27,4.78-9.27-16.73-39.5-67.69-95.14-60-65.46-83.58-101.58-76.64-117.16,8.84-19.86,66.46-3.54,146.21,19,68.26,19.33,153.2,43.38,233.29,51.42,93.87,9.43,161.69-4.82,207.34-43.56,38.26-32.47,60.5-83.05,66.13-150.33l1.32.16c-5.66,67.75-28.1,118.71-66.68,151.45-46,39-114,53.32-208.24,43.86-80.17-8-165.18-32.11-233.48-51.46C988.81,192,928.62,174.9,920.26,193.7,913.74,208.33,938,245,996.63,309c52.22,57,73.16,87,67.93,97.13-1.4,2.72-4.55,4-9.3,4-18.58,0-61.69-19.23-120.77-45.6-73.44-32.78-164.85-73.57-250.11-95-100.63-25.23-168.19-17.33-206.53,24.16-39.78,43-46.63,123.83-20.34,240.14,12.46,55.15,16.81,103,12.92,142.23-3.63,36.78-14.64,67.21-32.7,90.46-35.94,46.23-100.9,66.44-198.61,61.8C153.18,824.2,54.2,802-41.54,780.63c-158.31-35.41-307.83-68.86-353.06-6.21-17.79,24.66-18.9,62.39-3.36,115.33Z"/><path class="cls-8" d="M-421.32,891.76c-15.13-51.56-13.85-88.79,3.91-113.82,21-29.63,64.35-41.47,136.31-37.28,63.88,3.71,141.94,19.55,224.58,36.29,97.77,19.82,198.86,40.3,286.5,42.8,99.36,2.81,165.19-18.7,201.29-65.8,36.81-48.05,43.45-121.81,20.29-225.5-13.13-58.8-17.54-108.92-13.12-149,4.11-37.08,15.88-66.51,35-87.55,39.2-43.12,108.31-52.76,211.3-29.43,87,19.69,180.13,58.8,255,90.24,69.29,29.09,124,52.07,130.21,39.57,4.63-9.37-16.93-38.76-67.84-92.51-59.81-63.12-83.51-98.24-76.83-113.89,8.63-20.24,67.3-4.94,148.48,16.21,69.54,18.11,156.09,40.66,237.71,47.27,95.74,7.74,164.91-7.79,211.52-47.41,38.27-32.56,60.86-82.25,67.19-147.71l1.32.19c-6.38,65.9-29.16,116-67.74,148.79-46.86,39.87-116.31,55.47-212.36,47.71-81.76-6.62-168.32-29.18-237.91-47.32-77.58-20.22-138.86-36.18-147-17-6.27,14.7,18,50.29,76.52,112,52.18,55.08,73.19,84.21,68.11,94.48-1.43,2.9-4.82,4.23-10,4.23-19.1,0-62.54-18.23-121.8-43.12C864.47,322.78,771.37,283.68,684.5,264,582,240.8,513.22,250.3,474.33,293.06c-39.4,43.34-46.63,122.41-21.5,235,11.86,53.18,15.87,99.56,11.86,137.83C461,701.79,450,731.78,432.23,755c-34.26,44.71-95,66.55-185.34,66.55q-8.29,0-16.95-.25c-87.74-2.51-188.88-23-286.68-42.82-161.56-32.74-314.15-63.66-359.66.46-17.42,24.57-18.63,61.3-3.67,112.29Z"/><path class="cls-8" d="M-443.81,893.59c-14.56-49.62-13.2-85.87,4.17-110.78,21.13-30.29,65.15-43,138.48-40.16C-236,745.22-156.37,759.74-72,775.11c99.93,18.22,203.25,37,292.75,37.91,101.48,1,168.55-22,205.07-70.32,36.22-47.91,43.1-119.83,21.05-219.85-24.14-109.47-16.42-187.3,22.94-231.33,39.71-44.41,110.05-55.65,215-34.38,88.63,18,183.56,55.37,259.83,85.43,70.37,27.73,125.94,49.62,132,36.87,4.48-9.44-17.15-38-68.05-89.89-59.69-60.85-83.45-95-77-110.69,8.4-20.58,68.15-6.3,150.86,13.41,70.84,16.89,159,37.94,242.26,43.09,97.63,6,168.22-10.72,215.78-51.26,38.24-32.63,61.2-81.42,68.22-145.1l1.32.2c-7.08,64.14-30.22,113.3-68.78,146.17-47.82,40.76-118.67,57.63-216.62,51.56-83.36-5.17-171.58-26.22-242.47-43.13-79-18.84-141.44-33.74-149.41-14.26-6,14.74,18.35,49.31,76.7,108.81,52.16,53.17,73.24,81.5,68.33,91.86-6.57,13.88-57.1-6-133.55-36.16C868,314,773.13,276.62,684.6,258.68c-104.55-21.19-174.52-10.08-213.89,34-39,43.61-46.58,120.92-22.57,229.79,11.3,51.26,15,96.17,10.86,133.5-3.85,35.1-14.69,64.64-32.2,87.81C390,792.43,322.62,815.64,220.73,814.59c-89.59-.88-193-19.72-292.94-37.93-164.92-30-320.69-58.42-366.43,7.15C-455.69,808.26-457,844-442.58,893.07Z"/><path class="cls-8" d="M-466.68,895.73c-14-47.76-12.58-83,4.39-107.75,21.24-31,66-44.63,140.7-43,66.38,1.41,147.75,14.61,233.9,28.58,102.16,16.57,207.81,33.74,299.19,33,103.65-.85,172-25.33,208.94-74.86,35.6-47.73,42.71-117.81,21.73-214.23-23-105.85-15-181.93,23.92-226.16,40.22-45.71,111.79-58.58,218.84-39.38,90.35,16.23,187.12,51.9,264.87,80.59,71.47,26.37,128,47.19,133.84,34.18,4.32-9.52-17.37-37.26-68.25-87.31-59.6-58.62-83.42-91.78-77.27-107.51,8.15-20.91,69-7.69,153.23,10.6,72.19,15.68,162,35.19,247,38.91,99.61,4.36,171.63-13.67,220.18-55.11,38.24-32.63,61.55-80.59,69.22-142.52l1.3.23c-7.74,62.36-31.21,110.66-69.75,143.55-44.07,37.61-107.31,56-192.71,56q-13.75,0-28.27-.63c-85-3.7-174.92-23.24-247.16-38.92-80.5-17.48-144.07-31.29-151.82-11.5-5.77,14.76,18.68,48.34,76.93,105.64,52.15,51.31,73.3,78.84,68.57,89.28-6.42,14.14-57.73-4.78-135.4-33.43S775,269.65,684.74,253.45c-106.6-19.13-177.83-6.4-217.73,38.93-38.53,43.8-46.46,119.38-23.55,224.63,10.75,49.38,14.09,92.86,9.88,129.25-3.94,34.25-14.67,63.33-31.91,86.42-37.2,49.87-105.87,74.52-209.92,75.38-91.51.77-197.18-16.4-299.39-33C-256.26,747.77-415.3,722-461.27,789c-16.67,24.29-18,59-4.18,106.25Z"/><path class="cls-8" d="M-489.95,898.15c-13.48-45.94-12-80.2,4.59-104.76,21.13-31.29,65.94-45.9,140.89-45.9h2.08c67.68.24,150.79,12.12,238.76,24.69,104.46,14.93,212.49,30.36,305.87,28,105.89-2.7,175.53-28.68,212.9-79.4,35-47.49,42.26-115.74,22.34-208.65-22-102.28-13.61-176.62,24.81-221,40.71-47,113.58-61.52,222.75-44.38,92.14,14.46,190.82,48.43,270.11,75.72,72.64,25,130,44.74,135.75,31.51,4.1-9.45-18.31-37.18-68.49-84.78C962.9,212.77,939,180.58,944.85,164.82c7.92-21.21,69.9-9,155.72,7.81C1201,192.35,1326,216.91,1433.75,204c127.54-15.24,197.37-79.25,213.48-195.67l1.3.26c-8.61,62.25-33.44,110.55-73.77,143.57-34.72,28.41-82.12,46.38-140.89,53.39-107.89,12.9-233-11.67-333.52-31.41-82-16.1-146.79-28.82-154.29-8.72-5.51,14.79,19,47.36,77.17,102.53,52.17,49.47,73.41,76.22,68.84,86.73-1.52,3.5-5.77,5.09-12.46,5.09-20.78,0-65.14-15.27-124.82-35.81-79.25-27.27-177.88-61.21-269.91-75.66-108.74-17.05-181.25-2.7-221.66,43.95C425.17,336.21,417,410,438.78,511.75c10.21,47.55,13.22,89.63,9,125.07-4,33.42-14.65,62-31.58,85C378.54,772.89,308.58,799,202.29,801.75c-93.48,2.39-201.53-13-306-28C-275.7,749.19-438.11,726-484.29,794.4c-16.27,24.1-17.7,57.87-4.38,103.26Z"/><path class="cls-8" d="M-513.62,900.9c-13-44.16-11.4-77.45,4.75-101.78,21.4-32.22,67.56-47.72,145.26-48.77,69-.94,153.91,9.61,243.79,20.76C-13,784.36,97.5,798.08,192.89,794c108.21-4.59,179.17-32,216.94-84,34.32-47.18,41.81-113.62,22.88-203.1-20.89-98.78-12.27-171.39,25.63-215.81,41.21-48.31,115.39-64.48,226.78-49.44,94,12.71,194.65,44.92,275.54,70.82,73.81,23.62,132.11,42.28,137.69,28.83,4-9.5-18.54-36.42-68.75-82.27-59.45-54.32-83.46-85.56-77.86-101.31,7.64-21.5,70.81-10.38,158.24,5,101.86,17.93,228.63,40.25,338.2,25.95,129.76-16.9,201.39-81,219-195.86l1.31.28c-9.42,61.43-35.15,109.37-76.47,142.49-35.56,28.47-83.9,46.87-143.67,54.65-109.74,14.29-236.61-8-338.54-26C1026.22,149.62,960.21,138,953,158.4c-5.25,14.76,19.36,46.37,77.45,99.44,52.2,47.69,73.52,73.66,69.15,84.22-6.06,14.62-59-2.34-139.22-28C879.52,288.18,778.89,256,685,243.29c-111-15-184.8,1-225.71,49-37.55,44-46.06,116.12-25.29,214.32,9.68,45.77,12.4,86.47,8.06,121-4.08,32.58-14.6,60.68-31.22,83.55C372.82,763.39,301.55,791,193,795.61c-95.5,4-206-9.66-312.89-22.93-175.63-21.79-341.52-42.37-387.88,27.44-15.86,23.87-17.35,56.68-4.55,100.29Z"/><path class="cls-8" d="M-537.69,903.94c-12.45-42.42-10.85-74.75,4.9-98.82,21.46-32.84,68.37-49.24,147.6-51.61,70.39-2.11,157.13,7.06,249,16.78,109.28,11.55,222.27,23.5,319.77,17.79,110.58-6.48,182.89-35.43,221.06-88.51C438.27,652.75,445.92,588.12,428,502c-19.86-95.35-11-166.23,26.35-210.66,41.71-49.62,117.24-67.45,230.92-54.5,95.9,10.92,198.62,41.38,281.15,65.86,75,22.25,134.3,39.83,139.7,26.17,3.76-9.52-18.83-35.62-69.06-79.77-59.42-52.24-83.54-82.54-78.21-98.27,7.39-21.77,71.74-11.71,160.83,2.2,103.29,16.15,231.88,36.25,343.36,20.56C1595,155,1668.5,90.83,1687.58-22.56l1.3.32C1678.67,38.39,1652,86,1609.72,119.18c-36.43,28.58-85.73,47.43-146.54,56-111.66,15.71-240.32-4.39-343.69-20.55-85.16-13.31-152.44-23.82-159.42-3.18-5,14.75,19.72,45.39,77.77,96.42,52.24,45.92,73.66,71.13,69.47,81.73-5.87,14.83-59.69-1.15-141.2-25.32-82.51-24.47-185.18-54.93-281-65.84-113.26-12.88-188.45,4.79-229.86,54.05-37,44-45.75,114.39-26,209.18,9.17,44,11.6,83.38,7.19,117-4.15,31.72-14.53,59.32-30.83,82-38.43,53.43-111,82.56-222,89.06C86,795.4-27,783.45-136.34,771.89c-179.42-19-348.87-36.91-395.41,34.24-15.45,23.62-17,55.46-4.69,97.33Z"/><path class="cls-8" d="M-562.18,907.3c-12-40.73-10.31-72.1,5-95.89C-535.64,778-488,760.68-407.17,757c71.8-3.29,160.43,4.5,254.26,12.76,111.8,9.84,227.4,20,327,12.61,113-8.39,186.72-38.84,225.28-93.06,33-46.4,40.78-109.24,23.79-192.13-18.85-92-9.76-161.14,27-205.52,22.42-27.06,55.69-45.54,98.87-54.91,37.18-8.07,83-9.64,136.28-4.7,97.88,9.11,202.72,37.82,287,60.88,76.29,20.87,136.55,37.37,141.76,23.52,3.6-9.55-19.1-34.85-69.39-77.35-59.39-50.18-83.63-79.56-78.59-95.25,7.08-22,72.68-13,163.49-.58,104.8,14.36,235.23,32.25,348.68,15.14,134.37-20.26,209.68-84.53,230.26-196.5l1.29.34c-11,59.86-38.56,107.11-81.91,140.44-37.31,28.68-87.6,47.95-149.47,57.28-113.61,17.12-244.12-.76-349-15.14-90.19-12.36-155.38-21.3-162.1-.42-4.73,14.71,20.09,44.39,78.11,93.43,52.29,44.19,73.83,68.64,69.83,79.27-5.66,15-60.4,0-143.26-22.62-84.21-23-189-51.73-286.78-60.84C569.58,222.84,493,242.18,451.11,292.76c-36.43,44-45.4,112.61-26.66,204,8.67,42.35,10.81,80.38,6.38,113-4.2,30.9-14.46,58-30.44,80.48-38.81,54.57-112.8,85.2-226.2,93.62C74.46,791.35-41.18,781.16-153,771.33-336.33,755.2-509.49,740-556.14,812.41c-15,23.35-16.61,54.22-4.82,94.42Z"/><path class="cls-8" d="M-587.1,911c-11.47-39.1-9.81-69.52,5.09-93,21.58-34,70-52.21,152.44-57.27,73.24-4.49,163.82,1.92,259.72,8.7,114.39,8.1,232.67,16.47,334.49,7.37,115.54-10.32,190.64-42.26,229.59-97.62,31.85-45.29,40-108.11,24.15-186.72-17.87-88.7-8.6-156.13,27.57-200.39,22.68-27.76,56.48-47.05,100.47-57.36,37.88-8.87,84.66-11.35,139-7.38,99.9,7.3,206.94,34.22,293,55.84,77.58,19.5,138.86,34.9,143.88,20.88,3.43-9.56-19.39-34.07-69.74-74.93-59.39-48.2-83.75-76.66-79-92.29,6.79-22.25,73.66-14.33,166.2-3.37,106.34,12.61,238.67,28.27,354.13,9.74,136.75-22,213.95-86.39,236-196.93l1.29.37c-11.81,59.12-40.3,106-84.69,139.51-38.19,28.79-89.5,48.51-152.46,58.62-115.61,18.53-248,2.87-354.43-9.74-92-10.89-158.4-18.75-164.84,2.34-4.47,14.65,20.47,43.37,78.48,90.46,52.36,42.5,74,66.2,70.2,76.85-5.45,15.2-61.11,1.22-145.37-20-86-21.61-193-48.5-292.79-55.8-118.08-8.64-196.07,12.38-238.45,64.25C411,337,401.89,403.94,419.64,492.09c15.94,79.12,7.72,142.41-24.42,188.09C356,735.88,280.63,768,164.73,778.36c-101.91,9.11-220.25.75-334.68-7.37-187.33-13.25-364.26-25.77-411,48-14.61,23-16.21,53-4.89,91.54Z"/><path class="cls-8" d="M-612.44,915c-11-37.5-9.32-67,5.15-90.14,21.61-34.57,70.84-53.66,154.91-60.06,74.72-5.69,167.31-.69,265.32,4.6,117.06,6.33,238.1,12.88,342.17,2,118.1-12.27,194.64-45.69,234-102.17,31.18-44.76,39.4-105.78,24.47-181.35-16.91-85.5-7.46-151.2,28.08-195.3,22.93-28.43,57.28-48.56,102.12-59.78,38.6-9.67,86.3-13.06,141.81-10.08,102,5.48,211.32,30.58,299.19,50.75,78.92,18.12,141.25,32.43,146.07,18.25,3.26-9.57-19.68-33.3-70.12-72.56-59.42-46.24-83.9-73.8-79.41-89.37,6.48-22.44,74.63-15.6,169-6.14,107.93,10.82,242.21,24.27,359.72,4.33,139.19-23.64,218.31-88.24,241.92-197.45l1.28.39c-12.61,58.4-42.07,105-87.52,138.63-39.14,28.92-91.46,49.09-155.53,60-117.66,20-252,6.5-360-4.33-93.75-9.39-161.48-16.19-167.63,5.09-4.22,14.57,20.86,42.4,78.88,87.55,52.46,40.83,74.24,63.8,70.62,74.46-5.23,15.39-61.84,2.38-147.56-17.3-87.81-20.16-197.09-45.23-299-50.72-120.6-6.47-200,16.22-242.91,69.39-35.22,43.68-44.55,108.9-27.75,193.85,15.06,76.08,6.74,137.55-24.72,182.71C350.53,727.07,273.7,760.67,155.22,773,51.07,783.8-70,777.26-187.12,770.93c-191.44-10.34-372.27-20.1-419.12,54.83-14.19,22.7-15.82,51.71-5,88.68Z"/></g></g></g></g><g id="Layer_3" data-name="Layer 3"><g id="Layer_6" data-name="Layer 6"><polygon class="cls-9" points="161.67 122.88 160.97 122.88 160.97 278.57 171.32 278.57 171.11 149.87 224.94 210.6 224.94 194.83 161.67 122.88"/><path class="cls-9" d="M161.56,123.12l-.59.06.3-.3c.32,6.49.56,13,.78,19.46.11,3.25.2,6.49.29,9.73s.17,6.49.25,9.73q.45,19.47.6,38.93c.11,13,.19,25.94,0,38.92q-.12,9.72-.38,19.46l-.52,19.46L161,277.25l5.18.13,5.17.11-1.08,1.08.07-4,.06-4q.06-4,.09-8,.06-8.06,0-16.09t-.13-16.09q-.11-8-.28-16.09c-.22-10.72-.53-21.45-.78-32.17q-.18-8-.32-16.09-.07-4-.12-8l-.05-4-.05-4-.07-6.19,4.18,4.62,13.6,15.06q6.81,7.53,13.59,15.07t13.5,15.13q6.74,7.59,13.4,15.23l-4.73,1.8.06-7.89.08-7.88.64,1.69q-7.72-9-15.41-18t-15.35-18.2q-7.68-9.17-15.34-18.43-3.84-4.65-7.68-9.32Zm.21-.47q4.06,4.25,8.14,8.57t8.14,8.67q8.14,8.7,16.3,17.55t16.28,17.76q8.13,8.93,16.23,17.94l.63.7v1l.08,7.89.06,7.88.06,7.14-4.79-5.34q-6.78-7.54-13.51-15.14T196,182q-6.68-7.64-13.33-15.3l-13.31-15.31,4.11-1.56,0,4,0,4c0,2.69-.06,5.37-.09,8.05q-.12,8-.28,16.08c-.21,10.73-.48,21.46-.67,32.18q-.15,8-.23,16.09T172,246.39q0,8.06.08,16.09,0,4,.12,8l.07,4,.09,4,0,1.05-1.1,0-5.18.12-5.17.12-1.29,0,0-1.36-.52-19.46q-.24-9.74-.39-19.46c-.17-13-.09-26,0-38.92s.31-25.95.61-38.93q.1-4.86.24-9.73t.3-9.73q.3-9.72.78-19.46v-.31H161l.8.07Z"/><polygon class="cls-9" points="245.11 126.33 245.32 256.43 190.97 195 190.97 210.77 254.81 282.36 255.11 282.36 255.11 126.33 245.11 126.33"/><path class="cls-9" d="M245.29,126.51c.21,5.62.39,11.16.57,16.69s.34,11,.49,16.46q.47,16.4.78,32.51t.42,32.17q.06,8,0,16t-.22,16.05l-.1,5.38-3.42-4q-6.63-7.81-13.19-15.7l-3.3-3.93-3.3-3.93q-3.3-3.92-6.63-7.82-6.64-7.8-13.42-15.51t-13.63-15.31l1.48-.56,0,3.94,0,3.94.05,4,.07,3.95-.27-.71q8.13,8.8,16.35,17.55l8.18,8.77q4.1,4.38,8.16,8.79t8.11,8.83q4,4.43,8.07,8.87l16.13,17.74-1.95-.87h.3l-2.61,2.6q-.08-9.75-.14-19.5t0-19.51q0-19.5.31-39t.67-39q.23-9.75.5-19.51t.63-19.5l.66.67-2.38-.11-2.43-.12-2.47-.13Zm-.36-.36,2.47-.12,2.53-.14,2.57-.12,2.61-.1.64,0,0,.69q.36,9.75.63,19.51t.5,19.5q.44,19.5.67,39t.32,39q0,9.75,0,19.5t-.14,19.51l0,2.63-2.59,0h-1.49l-.75-.87-15.8-18.05-7.89-9q-3.94-4.53-7.85-9.07c-2.6-3-5.21-6.06-7.8-9.11l-7.78-9.13q-7.77-9.14-15.57-18.24l-.28-.32v-.38l.06-4,.06-3.95.05-3.94,0-4,0-2.24,1.45,1.68q6.74,7.74,13.54,15.4T218.89,225q3.47,3.78,7,7.53l3.49,3.76,3.5,3.74q7,7.5,14,15l-3.53,1.34Q243.1,248.2,243,240c-.06-5.51-.07-11,0-16.5q.06-16.47.32-32.88T244,158q.21-8.07.44-16.06c.18-5.3.34-10.59.53-15.82Z"/></g></g><g class="cls-10"><polygon class="cls-11" points="808.77 566.95 675.32 531.04 499.76 574.09 610.43 619.38 808.77 566.95"/><polygon class="cls-12" points="611.74 637.11 610.43 619.38 499.76 574.09 499.75 574.83 502.68 779.72 612.76 826.75 611.74 637.11"/><polygon class="cls-13" points="808.77 567.69 808.77 566.95 610.43 619.38 611.74 637.11 612.76 826.75 809.93 768.13 808.77 567.69"/><polygon class="cls-14" points="553.05 595.9 552.96 595.87 552.93 595.87 538.67 590.03 538.66 590.76 540.43 615.23 540.7 614.87 541.9 617.84 543.07 616.12 543.96 618.66 545.43 617.31 546.5 623.24 548.45 619.79 549.78 622.46 551.39 621.07 552.7 623.52 554.1 620.98 555.19 624.36 553.04 596.58 553.05 595.9"/><polygon class="cls-15" points="724.87 544.49 538.68 590.02 538.67 590.01 538.67 590.02 538.64 590.02 538.67 590.03 552.93 595.87 552.96 595.87 742.88 549.22 724.87 544.49"/><path class="cls-16" d="M499.76,574.09l110.67,45.3S543,588.53,499.76,574.09Z"/><path class="cls-16" d="M613.85,618.58l192.94-51.05S667.41,601.19,613.85,618.58Z"/><path class="cls-16" d="M611.76,824.86l-.65-199.58S608.47,768.65,611.76,824.86Z"/><polygon class="cls-17" points="848.22 361.82 714.77 325.91 539.21 368.96 649.88 414.26 848.22 361.82"/><polygon class="cls-18" points="651.19 431.98 649.88 414.26 539.21 368.96 539.2 369.7 542.13 574.59 652.21 621.62 651.19 431.98"/><polygon class="cls-19" points="848.22 362.56 848.22 361.82 649.88 414.26 651.19 431.98 652.21 621.62 849.38 563 848.22 362.56"/><polygon class="cls-14" points="592.5 390.77 592.4 390.74 592.38 390.74 578.12 384.9 578.11 385.63 579.88 410.1 580.15 409.74 581.35 412.71 582.51 410.99 583.4 413.53 584.88 412.19 585.94 418.11 587.9 414.66 589.23 417.33 590.84 415.94 592.15 418.39 593.54 415.85 594.63 419.23 592.49 391.45 592.5 390.77"/><polygon class="cls-15" points="764.31 339.36 578.12 384.89 578.12 384.89 578.12 384.89 578.09 384.9 578.12 384.9 592.38 390.74 592.4 390.74 782.33 344.09 764.31 339.36"/><path class="cls-16" d="M539.21,369l110.67,45.3S582.48,383.41,539.21,369Z"/><path class="cls-16" d="M653.3,413.45,846.24,362.4S706.86,396.06,653.3,413.45Z"/><path class="cls-16" d="M651.21,619.73l-.65-199.57S647.92,563.52,651.21,619.73Z"/><polygon class="cls-20" points="1038.35 620.21 904.9 584.29 729.34 627.34 840 672.64 1038.35 620.21"/><polygon class="cls-21" points="841.32 690.36 840 672.64 729.34 627.34 729.33 628.09 732.26 832.97 842.33 880 841.32 690.36"/><polygon class="cls-22" points="1038.34 620.94 1038.35 620.21 840 672.64 841.32 690.36 842.33 880 1039.51 821.38 1038.34 620.94"/><polygon class="cls-14" points="782.63 649.16 782.53 649.12 782.5 649.12 768.24 643.28 768.23 644.01 770 668.48 770.28 668.12 771.48 671.09 772.64 669.37 773.53 671.91 775.01 670.57 776.07 676.49 778.03 673.04 779.35 675.71 780.97 674.32 782.28 676.77 783.67 674.23 784.76 677.61 782.62 649.83 782.63 649.16"/><polygon class="cls-15" points="954.44 597.74 768.25 643.27 768.24 643.27 768.24 643.27 768.22 643.28 768.24 643.28 782.5 649.12 782.53 649.12 972.46 602.47 954.44 597.74"/><path class="cls-16" d="M729.34,627.34,840,672.64S772.6,641.79,729.34,627.34Z"/><path class="cls-16" d="M843.42,671.83l192.94-51.05S897,654.44,843.42,671.83Z"/><path class="cls-16" d="M841.33,878.11l-.64-199.57S838,821.9,841.33,878.11Z"/><polygon class="cls-23" points="1074.24 419.81 940.79 383.89 765.23 426.94 875.9 472.24 1074.24 419.81"/><polygon class="cls-24" points="877.21 489.97 875.9 472.24 765.23 426.94 765.23 427.69 768.15 632.58 878.23 679.61 877.21 489.97"/><polygon class="cls-25" points="1074.24 420.55 1074.24 419.81 875.9 472.24 877.21 489.97 878.23 679.61 1075.41 620.99 1074.24 420.55"/><polygon class="cls-14" points="818.52 448.76 818.43 448.72 818.4 448.73 804.14 442.89 804.13 443.61 805.9 468.08 806.18 467.72 807.38 470.69 808.54 468.97 809.43 471.51 810.9 470.17 811.97 476.1 813.92 472.65 815.25 475.31 816.87 473.92 818.17 476.38 819.57 473.84 820.66 477.21 818.52 449.44 818.52 448.76"/><polygon class="cls-15" points="990.34 397.34 804.15 442.88 804.14 442.87 804.14 442.88 804.12 442.88 804.14 442.89 818.4 448.73 818.43 448.72 1008.36 402.08 990.34 397.34"/><path class="cls-16" d="M765.23,426.94l110.67,45.3S808.5,441.39,765.23,426.94Z"/><path class="cls-16" d="M879.32,471.43l192.94-51S932.88,454.05,879.32,471.43Z"/><path class="cls-16" d="M877.23,677.72l-.64-199.58S873.94,621.51,877.23,677.72Z"/><polygon class="cls-26" points="125.76 597.22 259.21 561.3 434.77 604.35 324.1 649.65 125.76 597.22"/><polygon class="cls-27" points="322.79 667.37 324.1 649.65 434.77 604.35 434.77 605.09 431.85 809.98 321.77 857.01 322.79 667.37"/><polygon class="cls-28" points="125.76 597.95 125.76 597.22 324.1 649.65 322.79 667.37 321.77 857.01 124.59 798.39 125.76 597.95"/><polygon class="cls-14" points="381.48 626.16 381.57 626.13 381.6 626.13 395.86 620.29 395.87 621.02 394.1 645.49 393.82 645.13 392.63 648.1 391.46 646.38 390.57 648.92 389.1 647.58 388.03 653.5 386.07 650.05 384.75 652.72 383.14 651.33 381.83 653.78 380.43 651.24 379.34 654.62 381.48 626.84 381.48 626.16"/><polygon class="cls-15" points="209.66 574.75 395.85 620.28 395.86 620.27 395.86 620.28 395.88 620.29 395.86 620.29 381.6 626.13 381.57 626.13 191.65 579.48 209.66 574.75"/><path class="cls-16" d="M434.77,604.35,324.1,649.65S391.5,618.8,434.77,604.35Z"/><path class="cls-16" d="M320.68,648.84,127.74,597.79S267.12,631.45,320.68,648.84Z"/><path class="cls-16" d="M322.77,855.12l.64-199.57S326.06,798.91,322.77,855.12Z"/><polygon class="cls-29" points="789.05 155.92 655.6 120 480.04 163.05 590.71 208.35 789.05 155.92"/><polygon class="cls-30" points="592.02 226.07 590.71 208.35 480.04 163.05 480.03 163.8 482.96 368.69 593.04 415.71 592.02 226.07"/><polygon class="cls-31" points="789.05 156.66 789.05 155.92 590.71 208.35 592.02 226.07 593.04 415.71 790.21 357.1 789.05 156.66"/><polygon class="cls-14" points="533.33 184.87 533.24 184.83 533.21 184.83 518.95 179 518.94 179.72 520.71 204.19 520.98 203.83 522.18 206.8 523.35 205.08 524.23 207.62 525.71 206.28 526.77 212.2 528.73 208.75 530.06 211.42 531.67 210.03 532.98 212.49 534.38 209.94 535.47 213.32 533.32 185.54 533.33 184.87"/><polygon class="cls-15" points="705.15 133.45 518.96 178.99 518.95 178.98 518.95 178.99 518.92 178.99 518.95 179 533.21 184.83 533.24 184.83 723.16 138.19 705.15 133.45"/><path class="cls-16" d="M480,163.05l110.67,45.3S523.31,177.5,480,163.05Z"/><path class="cls-16" d="M594.13,207.54l192.94-51S647.69,190.16,594.13,207.54Z"/><path class="cls-16" d="M592,413.83l-.65-199.58S588.75,357.61,592,413.83Z"/></g></svg>