<?xml version="1.0" encoding="utf-8"?>
<!-- Generator: Adobe Illustrator 23.0.1, SVG Export Plug-In . SVG Version: 6.00 Build 0)  -->
<svg version="1.1" id="Layer_2" xmlns="http://www.w3.org/2000/svg" xmlns:xlink="http://www.w3.org/1999/xlink" x="0px" y="0px"
	 viewBox="0 0 1200 1000" style="enable-background:new 0 0 1200 1000;" xml:space="preserve">
<style type="text/css">
	.st0{fill:none;stroke:url(#SVGID_1_);stroke-width:2.9805;stroke-miterlimit:10;}
	.st1{fill:url(#SVGID_2_);stroke:url(#SVGID_3_);stroke-width:2.7701;stroke-miterlimit:10;}
	.st2{opacity:0.5;clip-path:url(#SVGID_5_);}
	.st3{clip-path:url(#SVGID_6_);}
	.st4{opacity:0.9;}
	.st5{fill:#FFFFFF;stroke:#FFFFFF;stroke-width:0.5747;stroke-miterlimit:10;}
	.st6{fill:#EBEBEB;}
</style>
<g>
	<g>
		
			<linearGradient id="SVGID_1_" gradientUnits="userSpaceOnUse" x1="27.5098" y1="500" x2="1172.4902" y2="500" gradientTransform="matrix(1 0 0 -1 0 1000)">
			<stop  offset="0" style="stop-color:#027e94"/>
			<stop  offset="0" style="stop-color:#027e94"/>
			<stop  offset="1" style="stop-color:#027e94"/>
		</linearGradient>
		<path class="st0" d="M267.6,22.5h664.9c131.8,0,238.6,91,238.6,203.2v548.6c0,112.2-106.8,203.2-238.6,203.2H267.6
			c-131.8,0-238.6-91-238.6-203.2V225.7C29,113.5,135.8,22.5,267.6,22.5z"/>
		<linearGradient id="SVGID_2_" gradientUnits="userSpaceOnUse" x1="69.3148" y1="500" x2="1130.6852" y2="500">
			<stop  offset="0" style="stop-color:#027e94"/>
			<stop  offset="0" style="stop-color:#027e94"/>
			<stop  offset="1" style="stop-color:#027e94"/>
		</linearGradient>
		
			<linearGradient id="SVGID_3_" gradientUnits="userSpaceOnUse" x1="67.9298" y1="500" x2="1132.0702" y2="500" gradientTransform="matrix(1 0 0 -1 0 1000)">
			<stop  offset="0" style="stop-color:#027e94"/>
			<stop  offset="0" style="stop-color:#027e94"/>
			<stop  offset="1" style="stop-color:#027e94"/>
		</linearGradient>
		<path class="st1" d="M291,56.2H909c122.5,0,221.7,84.5,221.7,188.8V755c0,104.3-99.3,188.8-221.7,188.8H291
			c-122.5,0-221.7-84.5-221.7-188.8V245C69.3,140.8,168.6,56.2,291,56.2z"/>
		<g>
			<defs>
				<path id="SVGID_4_" d="M291.7,57.1h616.7c122.2,0,221.3,84.4,221.3,188.5v508.9c0,104.1-99.1,188.5-221.3,188.5H291.7
					c-122.2,0-221.3-84.4-221.3-188.5V245.6C70.4,141.5,169.4,57.1,291.7,57.1z"/>
			</defs>
			<clipPath id="SVGID_5_">
				<use xlink:href="#SVGID_4_"  style="overflow:visible;"/>
			</clipPath>
			<g class="st2">
				<g>
					<defs>
						<path id="SVGID_9_" d="M248.7-69.9h675.8c133.9,0,242.5,108.6,242.5,242.5v654.8c0,133.9-108.6,242.5-242.5,242.5H248.7
							c-133.9,0-242.5-108.6-242.5-242.5V172.6C6.2,38.7,114.7-69.9,248.7-69.9z"/>
					</defs>
					<clipPath id="SVGID_6_">
						<use xlink:href="#SVGID_9_"  style="overflow:visible;"/>
					</clipPath>
					<g class="st3">
						<g class="st4">
							<path class="st5" d="M534.6,1067.5c-26,0-60-12.5-102.6-37.7c-59.8-35.3-128.5-90.2-194.9-143.2
								c-112.2-89.6-218.3-174.3-254.4-141c-21.5,19.8-17.2,79.5,13.1,182.6l-1.2,0.5C-36,824.9-40.1,764.6-18.2,744.3
								c36.9-34,143.3,51,256,140.9c66.4,53,135,107.8,194.8,143.1c67.5,39.9,113,47.9,139.2,24.6c19.7-17.6,28.9-54,27.2-108.4
								c-1.9-59.7-16.9-143.5-44.8-248.8c-28.9-109.3-44.9-195.2-47.7-255.2c-2.6-54.4,5.7-89,24.6-103.1
								c63.1-47.1,231.7,142.5,343.3,268c52.4,58.9,97.7,109.8,104.3,103.3c7.8-7.7-37.1-94.8-71.5-159.7
								C840,422.8,815.6,364.1,825.7,353c10.2-11.2,52.9,26.9,112.1,79.5c50.1,44.6,112.5,100,169.7,137.4
								c66.8,43.6,113.8,54.5,143.8,33.4c35.3-24.8,46.3-95.9,32.8-211.4l1.3-0.2c7.1,60.6,7.5,109.4,1.2,145.2
								c-5.8,32.9-17.4,55.8-34.6,67.8c-10.4,7.3-22.5,10.6-36,10.6c-75,0-190.8-103-279-181.5c-56.5-50.2-101.1-89.9-110.4-79.6
								c-9.3,10.2,16.7,71.9,81.6,194.1c71.3,134.2,76,157.1,71.3,161.8c-0.6,0.6-1.4,0.9-2.2,0.8c-10.6,0-44.2-37.2-103.8-104.2
								C762.1,481.5,593.9,292.4,531.6,338.9c-39,29.1-31,149,23.7,356.5c53.8,203.9,59.4,321.3,17.1,358.9
								C562.6,1063.1,550,1067.5,534.6,1067.5z"/>
							<path class="st5" d="M524.4,1052.5c-26,0-59.7-11.7-101.7-35.1c-60.6-33.9-130.1-87.1-197.4-138.6
								C111.6,791.8,4.4,709.6-32.3,744.1c-21.5,20.2-17.6,78.8,11.8,179.2l-1.2,0.5c-29.7-101.1-33.4-160.3-11.4-180.9
								C4.3,707.7,112,790.1,225.9,877.4c67.2,51.5,136.7,104.7,197.2,138.5c68.4,38.2,114.6,45.1,141.1,20.9
								c19.8-18,29.2-54.2,27.9-107.6c-1.5-58.7-15.9-140.5-42.8-243.1c-28-106.8-43.5-190.8-45.8-249.7
								c-2.1-53.5,6.4-87.9,25.5-102.3c64.2-48.7,234.1,136.1,346.6,258.4c52.7,57.4,98.2,106.9,105,100.2
								c7.9-7.9-36.8-92.9-71-156.2c-66.6-123.1-90.8-180.4-80.7-191.8c10.2-11.6,53.4,25.4,113.1,76.5
								c50.6,43.3,113.6,97.2,171.5,133.1c67.6,41.9,115.3,51.7,145.9,29.9c35.6-25.3,47.3-95.4,34.9-208.2l1.3-0.2
								c6.5,59.1,6.4,107-0.2,142.2c-6.1,32.5-18,55.2-35.3,67.5c-31,22.1-79.2,12.3-147.2-29.9c-58-36-121.1-89.9-171.7-133.2
								c-57-48.8-102.1-87.3-111.5-76.7c-9.3,10.5,16.5,70.8,80.9,189.8c70.9,130.9,75.5,153.4,70.8,158.2
								c-7.2,7.3-41.6-29.3-106.7-100.2c-112.1-122-281.6-306.3-344.9-258.3c-39.4,29.8-32.3,147.7,20.9,350.3
								c52.2,198.7,56.9,314,14.5,352.5C554.6,1047.7,541.1,1052.5,524.4,1052.5z"/>
							<path class="st5" d="M514,1037.8c-26.1,0-59.5-10.8-100.7-32.6c-61.4-32.4-131.9-84.1-200-134
								C98.3,786.9-10.3,707.2-47.5,742.9c-21.5,20.6-18,78.1,10.6,175.8l-1.2,0.5C-67,820.8-70.4,762.7-48.4,741.7
								c37.9-36.3,146.9,43.6,262.3,128.2c68.1,49.9,138.5,101.6,199.9,133.9C483.2,1040.4,530,1046,557,1021
								c19.9-18.4,29.5-54.3,28.5-106.9c-1.1-57.6-14.8-137.5-41-237.5c-27.2-104.2-42-186.4-43.9-244.4
								c-1.7-52.6,7.1-86.8,26.3-101.6c65.3-50.4,236.6,129.8,350,248.9c55.3,58.1,98.9,104,105.7,97c7.9-8.2-36.5-91-70.6-152.7
								c-66.2-119.8-90.2-175.9-80.2-187.6c10.2-11.9,53.9,23.9,114.3,73.5c51.2,42,114.8,94.4,173.5,128.9
								c68.5,40.3,116.9,48.9,148.1,26.5c35.9-25.9,48.3-94.8,36.9-205.1l1.3-0.2c5.9,57.7,5.4,104.6-1.6,139.4
								c-6.4,32-18.5,54.6-36,67.2c-31.6,22.8-80.5,14.2-149.4-26.4c-58.7-34.6-122.5-86.9-173.7-129
								c-57.6-47.3-103.1-84.7-112.6-73.7c-9.2,10.8,16.3,69.7,80.3,185.6c70.5,127.5,75.1,149.8,70.3,154.7
								c-7.3,7.5-41.8-28.1-107.4-97C763.1,461.9,592.2,282.3,527.7,332c-39.7,30.6-33.6,146.4,18.1,344.2
								c50.6,193.5,54.5,306.7,12,346.1C546.6,1032.6,532.1,1037.8,514,1037.8z"/>
							<path class="st5" d="M503.5,1023.6c-26.1,0-59.1-10.1-99.6-30.2c-62.3-31-133.7-81.1-202.8-129.5
								C84.7,782.2-25.3,705.1-63,741.9c-21.5,21-18.4,77.4,9.5,172.5l-1.2,0.5c-28.1-95.7-31.1-152.7-9.1-174.2
								c38.4-37.6,148.8,39.9,265.7,121.8c69,48.4,140.4,98.5,202.6,129.4c70.3,35,117.9,39.4,145.3,13.5
								c19.9-18.8,29.7-54.5,29.1-106.1c-0.7-56.6-13.8-134.6-39.1-231.9c-26.4-101.7-40.6-182.1-42-239.1
								c-1.3-51.8,7.8-85.7,27.2-100.9c66.4-52.1,239.2,123.4,353.6,239.5c55.6,56.5,99.6,101.1,106.4,93.9
								c7.9-8.4-36.2-89.2-70.1-149.2C849,395,825.2,340.1,835.2,328.2c10.3-12.3,54.4,22.5,115.4,70.6
								c51.7,40.8,116.1,91.6,175.6,124.7c69.4,38.7,118.5,46.2,150.4,23c36.1-26.4,49.3-94.3,38.9-201.9l1.3-0.2
								c5.4,56.4,4.4,102.3-2.9,136.5c-6.7,31.6-19.1,54.1-36.7,66.9c-32.2,23.5-81.8,16-151.6-22.9c-59.5-33.2-124-84-175.7-124.8
								c-58.2-45.9-104.3-82.2-113.8-70.8c-9.2,11,16.2,68.7,79.8,181.4C986,635,990.6,656.9,985.8,662c-0.7,0.7-1.7,1.1-2.7,1.1
								c-11.3,0-45.5-34.1-105.4-95c-114-115.8-286.4-290.8-352-239.3c-40,31.4-34.8,145.2,15.4,338.2
								c49,188.4,52.1,299.6,9.5,339.7C538.7,1017.9,523.1,1023.6,503.5,1023.6z"/>
							<path class="st5" d="M492.9,1009.7c-26,0-58.6-9.2-98.2-27.8c-63.2-29.5-135.7-78.1-205.7-125
								C70.9,777.8-40.5,703.2-78.8,741.3c-21.5,21.4-18.7,76.7,8.4,169.1l-1.2,0.5c-27.3-93.1-29.9-149-8-170.9
								c38.9-38.8,150.8,36.1,269.2,115.5c70,46.9,142.4,95.4,205.6,124.9c71.4,33.3,119.6,36.5,147.6,9.7
								c20-19.2,30-54.6,29.7-105.4c-0.3-55.6-12.8-131.8-37.3-226.3c-25.7-99.2-39.2-177.8-40.2-233.9c-0.9-50.9,8.5-84.6,28-100.2
								c67.5-53.9,242,117,357.4,230c56.1,54.9,100.3,98.3,107.2,90.8c7.9-8.6-36-87.4-69.7-145.8c-65.4-113.4-89-167-79.1-179.3
								c10.3-12.7,54.9,21,116.6,67.6c52.4,39.6,117.5,88.8,177.7,120.5c70.3,37.1,120.3,43.4,152.7,19.5
								c36.4-26.9,50.2-93.8,40.9-198.9l1.3-0.2c4.9,55,3.5,100-4.2,133.7c-7,31.1-19.6,53.5-37.3,66.6
								c-32.8,24.3-83.2,17.9-153.9-19.3c-60.3-31.8-125.5-81.1-177.9-120.6c-58.9-44.5-105.4-79.7-115-67.9
								c-9.2,11.3,16,67.7,79.3,177.3c69.8,121,74.3,142.7,69.5,147.9c-0.8,0.8-1.8,1.2-2.9,1.2c-11.5,0-45.9-33.1-106-91.9
								C764.3,442.8,590.4,272.4,523.7,325.7c-40.3,32.2-36,144,12.8,332.3c47.5,183.4,49.8,292.5,7.2,333.4
								C530.9,1003.6,514.1,1009.7,492.9,1009.7z"/>
							<path class="st5" d="M482.2,996.2c-25.9,0-58-8.5-96.7-25.4c-64.2-28.1-137.7-75.1-208.8-120.5
								C57,773.8-56.1,701.5-94.8,740.9c-21.4,21.8-19,76,7.3,165.8l-1.2,0.5c-26.5-90.5-28.8-145.3-6.9-167.5
								c39.4-40.1,152.8,32.4,272.9,109.1c71.1,45.4,144.5,92.4,208.6,120.4c72.5,31.7,121.5,33.6,149.9,5.9
								c20-19.6,30.2-54.8,30.2-104.7c0.1-54.6-11.9-128.9-35.5-220.9c-24.9-96.7-37.8-173.6-38.4-228.7
								c-0.5-50.1,9.1-83.6,28.7-99.5c68.7-55.8,244.8,110.6,361.4,220.7c56.5,53.4,101.2,95.5,108,87.8
								c7.9-8.9-35.8-85.6-69.4-142.5c-65-110.3-88.5-162.7-78.7-175.3c10.3-13.1,55.4,19.5,117.9,64.7c53,38.3,119,86.1,180,116.4
								c71.3,35.4,122,40.6,155.1,15.9c36.7-27.4,51.1-93.3,42.8-195.8l1.3-0.1c8.3,103.2-6.3,169.6-43.4,197.3
								c-33.5,25-84.6,19.8-156.3-15.8c-61.1-30.4-127.2-78.1-180.2-116.5c-59.6-43.1-106.7-77.2-116.3-65
								c-9.1,11.6,15.9,66.6,78.8,173.3c69.5,117.8,73.9,139.2,69.2,144.5c-7.4,8.3-42.7-24.4-109.8-87.7
								c-116.3-109.8-292-275.8-359.8-220.6c-40.5,33-37.1,142.8,10.2,326.5c45.9,178.5,47.5,285.5,4.9,327.2
								C523.1,989.6,505,996.2,482.2,996.2z"/>
							<path class="st5" d="M471.2,983c-25.7,0-57.3-7.7-95-23.1c-65.2-26.6-139.8-72.1-212-116c-121.4-73.9-236.1-143.7-275.3-103
								c-21.4,22.2-19.3,75.4,6.3,162.6l-1.2,0.5c-25.8-87.9-27.7-141.6-5.9-164.2c39.9-41.4,154.9,28.6,276.7,102.8
								c72.1,43.9,146.7,89.3,211.8,115.9c73.6,30.1,123.4,30.7,152.2,2c20-19.9,30.3-54.9,30.7-103.9
								c0.4-53.6-10.9-126.1-33.8-215.5c-24.1-94.2-36.4-169.5-36.6-223.6c-0.2-49.3,9.8-82.5,29.5-98.8
								c69.8-57.8,247.8,104.2,365.6,211.3c57,51.8,102,92.8,108.9,84.8c7.9-9.1-35.6-83.8-69-139.2
								c-63.8-105.8-87.9-158.6-78.2-171.3c10.3-13.5,56,18.1,119.3,61.8c53.7,37.1,120.5,83.3,182.4,112.3
								c72.3,33.8,123.9,37.9,157.7,12.4c36.9-27.9,51.9-92.7,44.6-192.8l1.3-0.1c7.3,100.7-7.9,166-45.2,194.2
								c-14.8,11.1-32.8,16.7-54.5,16.7c-28.4,0-63-9.6-104.4-29c-62-29-128.9-75.2-182.6-112.4c-60.3-41.7-108-74.7-117.6-62.1
								c-9,11.8,15.9,65.6,78.3,169.3c69.1,114.7,73.6,135.8,68.9,141.3c-0.8,0.9-1.9,1.3-3.3,1.3c-12.8,0-51.6-35.2-107.3-86
								C766,424.2,588.4,262.7,519.4,319.8c-19.3,16-29.1,48.8-28.9,97.5c0.2,54,12.5,129.1,36.6,223.2
								c44.4,173.5,45.3,278.6,2.7,321.1C515.4,975.9,496,983,471.2,983z"/>
							<path class="st5" d="M460.1,970.2c-25.5,0-56.4-7-93.1-20.9c-66.2-25.2-142-69.1-215.4-111.6C28.4,766.4-88,699-127.7,741.1
								c-21.3,22.5-19.5,74.6,5.3,159.3l-1.2,0.5c-25.1-85.3-26.7-138-5-161c40.4-42.8,157.1,24.8,280.7,96.4
								c73.3,42.4,149.1,86.3,215.2,111.5c74.8,28.5,125.4,27.8,154.7-1.9c20-20.3,30.4-55,31.1-103.2c0.8-52.6-10-123.3-32.1-210.1
								C497.7,540.8,486,467.2,486.2,414c0.2-48.5,10.4-81.5,30.2-98.2c71-59.8,251,97.8,370.1,202c57.5,50.3,102.9,90.1,109.9,81.8
								c7.8-9.3-35.5-82.1-68.7-136c-63.4-102.8-87.4-154.4-77.9-167.3c10.3-14,56.6,16.6,120.6,58.9
								c54.4,35.9,122.1,80.6,184.9,108.2c73.4,32.2,125.8,35.1,160.3,8.8c37.1-28.3,52.7-92.2,46.4-189.8l1.3-0.1
								c6.3,98.2-9.5,162.6-47,191.2c-34.8,26.6-87.6,23.8-161.4-8.6c-62.9-27.6-130.7-72.4-185.1-108.3
								c-61.1-40.4-109.4-72.2-119-59.2c-8.9,12.1,15.8,64.6,77.9,165.4c68.8,111.6,73.3,132.4,68.6,138c-0.8,1-2,1.4-3.5,1.4
								c-13.1,0-52.1-34.1-108.1-83.1c-118.8-104-298.4-261.1-368.5-202c-19.4,16.4-29.4,49-29.6,96.9
								c-0.2,53.1,11.5,126.5,34.8,218.1c42.9,168.7,43.1,271.7,0.6,315C507.7,962.5,486.9,970.2,460.1,970.2z"/>
							<path class="st5" d="M448.7,957.8c-25.2,0-55.4-6.3-90.9-18.8c-67.3-23.7-144.4-66.1-218.9-107.1
								c-125.1-68.8-243.3-133.8-283.4-90.3c-21.1,22.9-19.7,73.9,4.4,156.1l-1.2,0.5c-24.3-82.8-25.6-134.4-4-157.8
								c40.8-44.1,159.4,21,284.9,90.1c74.5,41,151.5,83.3,218.7,107c76,26.8,127.5,24.9,157.2-5.9c19.9-20.6,30.5-55.1,31.5-102.4
								c1.1-51.6-9.2-120.5-30.5-204.8c-22.6-89.4-33.8-161.3-33.2-213.6c0.6-47.7,10.9-80.5,30.8-97.5
								c72.1-61.9,254.2,91.3,374.8,192.7c58.1,48.8,103.9,87.4,110.9,78.9c7.8-9.6-35.3-80.4-68.4-132.8
								c-63.1-99.8-87-150.2-77.5-163.4c10.3-14.4,57.2,15.1,122.1,56c55.1,34.7,123.8,77.9,187.5,104.1
								c74.5,30.6,127.8,32.3,163,5.2c37.3-28.8,53.5-91.7,48.2-186.8l1.3-0.1c5.4,95.8-11.1,159.1-48.8,188.2
								c-35.5,27.4-89.2,25.8-164.1-5c-63.9-26.2-132.6-69.5-187.7-104.2c-61.9-39-110.9-69.8-120.5-56.4
								c-8.8,12.4,15.8,63.7,77.6,161.5c68.6,108.5,73,129.1,68.3,134.8c-0.9,1-2.1,1.6-3.8,1.6c-13.4,0-52.6-33-108.8-80.2
								C767.9,406.1,586.2,253.3,514.9,314.5c-19.5,16.7-29.7,49.1-30.3,96.3c-0.6,52.2,10.5,123.9,33.1,213.1
								c41.5,163.9,41,265-1.5,308.9C500.1,949.5,477.7,957.8,448.7,957.8z"/>
							<path class="st5" d="M437.1,945.7c-24.8,0-54.2-5.6-88.5-16.8c-68.4-22.3-146.8-63.1-222.6-102.6
								c-127.1-66.3-247.2-128.8-287.8-84c-21,23.2-19.9,73.2,3.5,152.9l-1.2,0.5c-23.6-80.3-24.6-130.9-3.2-154.5
								c41.3-45.5,161.7,17.2,289.2,83.7c75.7,39.5,154.1,80.3,222.4,102.6c77.3,25.2,129.6,21.9,159.8-9.9
								c19.9-20.9,30.6-55.1,31.9-101.6c1.4-50.6-8.3-117.8-28.9-199.6c-21.9-87.1-32.5-157.3-31.5-208.7
								c0.9-46.9,11.5-79.5,31.4-96.9c73.3-64,257.7,84.9,379.6,183.4c58.7,47.4,105,84.8,111.9,75.9c7.8-9.8-35.2-78.7-68.2-129.6
								c-62.8-96.9-86.6-146.1-77.2-159.6c10.3-14.8,57.8,13.7,123.6,53.1c55.9,33.5,125.5,75.3,190.3,100.1
								c75.7,29,129.9,29.5,165.8,1.5c37.4-29.2,54.2-91.1,49.9-183.9l1.3-0.1c4.4,93.4-12.6,155.7-50.5,185.3
								c-36.2,28.2-90.8,27.8-166.9-1.4c-64.9-24.8-134.5-66.6-190.5-100.2c-62.8-37.6-112.4-67.4-122-53.5
								c-8.7,12.6,15.8,62.7,77.3,157.6c54.3,83.9,74.7,123.3,68.1,131.7c-0.9,1.1-2.3,1.7-4.1,1.7c-13.7,0-53.2-31.9-109.6-77.4
								C769,397.2,585,248.6,512.5,312c-19.6,17.1-30,49.3-30.9,95.7c-1,51.3,9.6,121.3,31.4,208.2c40,159.2,38.9,258.3-3.4,302.9
								C492.6,936.7,468.5,945.7,437.1,945.7z"/>
							<path class="st5" d="M425.3,934c-24.3,0-52.8-4.9-85.8-14.8C269.8,898.4,190.1,859.1,113,821
								c-129.2-63.7-251.2-123.9-292.3-77.6c-20.9,23.5-20,72.4,2.7,149.7l-1.2,0.5c-22.9-77.9-23.6-127.4-2.4-151.3
								c41.7-47,164.1,13.4,293.7,77.3c77.1,38,156.8,77.3,226.3,98.1c78.7,23.5,131.8,19,162.5-14c19.8-21.2,30.6-55.2,32.2-100.8
								c1.7-49.6-7.5-115.1-27.3-194.4C486,523.8,476,455.2,477.3,404.7c1.2-46.1,12-78.5,32-96.3c74.5-66.2,261.2,78.4,384.8,174.1
								c59.2,45.9,106,82.1,113,73c7.7-10.1-35.1-77-68-126.6c-62.4-94-86.2-142.1-77-155.8c10.2-15.3,58.4,12.2,125.1,50.3
								c56.8,32.4,127.4,72.6,193.2,96c76.9,27.4,132.1,26.7,168.7-2.1c37.6-29.7,54.9-90.5,51.5-181l1.3-0.1
								c3.5,91-14.1,152.4-52.1,182.4c-36.9,29.1-92.4,29.8-169.8,2.3c-65.9-23.5-136.6-63.8-193.4-96.1
								c-63.7-36.3-114-65-123.5-50.7c-8.6,12.8,15.8,61.7,77,153.9c54.2,81.6,74.5,120,67.9,128.6c-7.7,10.1-50.3-22.9-114.7-72.8
								c-123.3-95.5-309.5-239.8-383.3-174.2c-19.6,17.5-30.2,49.5-31.5,95.1c-1.3,50.4,8.7,118.7,29.8,203.3
								c38.6,154.6,36.9,251.7-5.2,296.9C485.1,924.3,459.3,934,425.3,934z"/>
							<path class="st5" d="M413.1,922.7c-23.7,0-51.3-4.3-82.8-12.9c-70.8-19.4-152-57.2-230.5-93.7
								c-131.3-61.2-255.4-119-296.9-71.3c-20.7,23.7-20,71.7,1.9,146.5l-1.2,0.5c-22.2-75.5-22.7-123.9-1.6-148.2
								c42.2-48.4,166.6,9.6,298.3,70.9c78.4,36.5,159.5,74.3,230.3,93.7c80.1,21.9,134.1,16,165.3-18.1
								c19.7-21.5,30.6-55.2,32.4-100c2-48.7-6.7-112.4-25.8-189.3c-20.4-82.4-29.9-149.3-28.2-199c1.5-45.3,12.5-77.5,32.5-95.7
								c75.7-68.5,264.9,71.9,390.2,164.9c59.9,44.4,107.2,79.5,114.1,70.2c7.6-10.3-35-75.4-67.8-123.5
								c-62.1-91.2-85.8-138.1-76.8-152.1c10.2-15.7,59.1,10.8,126.8,47.4c57.6,31.2,129.3,70,196.2,92
								c78.2,25.8,134.4,23.9,171.7-5.8c37.7-30,55.6-90,53.1-178.1l1.3-0.1c2.5,88.7-15.5,149.1-53.7,179.4
								c-37.6,29.9-94.1,31.9-172.7,6c-67-22.1-138.7-60.9-196.4-92.1c-64.6-35-115.6-62.6-125.2-47.9
								c-8.5,13.1,15.9,60.8,76.7,150.1c54,79.2,74.2,116.8,67.8,125.5c-1,1.3-2.5,2-4.6,2c-14.4,0-54.4-29.7-111.2-71.8
								c-124.9-92.7-313.8-232.8-388.7-164.9c-19.7,17.8-30.4,49.6-32,94.5c-1.7,49.5,7.8,116.2,28.2,198.5
								c19.1,77.1,27.8,141,25.8,189.9c-1.8,45.2-12.9,79.2-32.8,101.1C477.6,912.3,450,922.7,413.1,922.7z"/>
							<path class="st5" d="M400.6,911.7c-23,0-49.4-3.7-79.4-11.2c-72.1-17.9-154.8-54.2-234.7-89.2
								c-133.6-58.6-259.8-114-301.8-64.9c-20.5,24-20.1,70.8,1.2,143.3l-1.2,0.5c-21.5-73.1-21.7-120.5-0.9-145
								C-173.6,695.4-47,751,87,809.8c79.9,35.1,162.5,71.3,234.5,89.2c81.5,20.2,136.5,13,168.1-22.2
								c19.6-21.8,30.6-55.1,32.6-99.1c2.2-47.7-6-109.7-24.3-184.3c-19.7-80.1-28.7-145.4-26.7-194.2c1.9-44.6,12.9-76.6,33-95
								C581.1,233.3,773,369.6,900,459.7c60.6,43,108.4,77,115.3,67.3c7.5-10.5-35-73.8-67.6-120.5
								c-61.9-88.4-85.5-134.2-76.6-148.4c10.1-16.1,59.7,9.3,128.4,44.5c58.5,30,131.3,67.3,199.3,88
								c79.6,24.2,136.7,21.1,174.8-9.5c37.8-30.4,56.2-89.3,54.6-175.2l1.3,0c1.6,86.4-16.9,145.8-55.2,176.5
								c-38.4,30.8-95.9,34-175.8,9.7c-68.1-20.7-141-58.1-199.5-88.1c-65.6-33.6-117.4-60.2-126.9-45c-8.3,13.3,16,59.8,76.5,146.4
								c53.8,76.9,74,113.6,67.6,122.5c-1,1.4-2.7,2.1-5,2.1c-14.7,0-55-28.6-112-69.1c-126.7-90-318.1-225.9-394.3-155.7
								c-19.7,18.2-30.6,49.8-32.5,93.9c-2,48.6,6.9,113.7,26.6,193.7c18.4,74.7,26.6,136.9,24.4,184.8
								c-2.1,44.4-13.2,78.1-33,100.2C470.2,900.5,440.5,911.7,400.6,911.7z"/>
							<path class="st5" d="M387.7,901c-22.2,0-47.4-3.2-75.7-9.5c-73.5-16.4-157.6-51.1-239.1-84.7
								c-135.9-56.1-264.3-109.1-306.8-58.5c-20.2,24.2-20.1,70,0.5,140.2l-1.2,0.5c-20.8-70.8-20.8-117.2-0.2-141.8
								c43-51.3,171.8,1.8,308.1,58.1c81.4,33.6,165.5,68.3,238.9,84.7c83,18.5,139,9.9,171.1-26.4c19.5-22,30.5-55.1,32.8-98.2
								c2.5-46.7-5.2-107-22.9-179.3c-19-77.9-27.5-141.6-25.1-189.5c2.1-43.8,13.4-75.6,33.4-94.4c78-73.3,272.8,58.8,401.6,146.2
								c61.3,41.6,109.7,74.4,116.6,64.5c5.7-8.2-15.8-45.5-67.5-117.5c-61.6-85.7-85.2-130.3-76.5-144.7
								c10-16.6,60.4,7.9,130.2,41.7c59.4,28.8,133.4,64.7,202.6,84c80.9,22.6,139.1,18.2,178-13.2c38-30.8,56.8-88.7,56.1-172.4
								h1.3c0.7,84.2-18.3,142.6-56.7,173.7c-39.1,31.7-97.7,36.1-179,13.4c-69.3-19.3-143.3-55.2-202.8-84
								c-66.6-32.3-119.2-57.8-128.6-42.2c-8.2,13.5,16.1,58.9,76.4,142.8c53.7,74.7,73.9,110.4,67.5,119.5
								c-1.1,1.5-2.9,2.3-5.3,2.3c-15.1,0-55.7-27.5-112.9-66.4c-128.6-87.2-322.8-219-400.2-146.4c-19.7,18.5-30.8,49.9-32.9,93.2
								c-2.3,47.7,6.1,111.2,25.1,188.9c17.7,72.4,25.4,132.9,22.9,179.8c-2.3,43.5-13.5,76.9-33.2,99.2
								C462.9,889,431,901,387.7,901z"/>
							<path class="st5" d="M374.5,890.8c-21.2,0-45.1-2.6-71.5-7.9c-74.8-14.9-160.6-48.1-243.6-80.2
								c-138.4-53.6-269.1-104.2-311.9-52c-20,24.3-20,69.2-0.1,137l-1.2,0.5c-20.1-68.5-20-113.8,0.4-138.7
								c43.4-52.8,174.5-2.1,313.3,51.6c82.9,32.1,168.7,65.3,243.4,80.2c84.6,16.9,141.6,6.8,174.1-30.6
								c19.3-22.2,30.4-55,32.9-97.3c2.7-45.8-4.5-104.4-21.5-174.4c-18.3-75.6-26.3-137.8-23.6-184.8c2.4-43.1,13.8-74.6,33.7-93.7
								c79.3-75.8,277,52.2,407.8,136.9c62,40.2,111,71.9,117.9,61.6c5.6-8.3-15.8-44.7-67.4-114.6c-61.3-83-84.9-126.5-76.3-141.1
								c9.9-17,61.1,6.4,132,38.8c60.4,27.6,135.6,62,206,79.9c82.4,20.9,141.7,15.4,181.3-16.9c38-31.1,57.4-88.1,57.5-169.5h1.3
								c-0.1,82-19.7,139.4-58.1,170.8c-39.9,32.6-99.5,38.2-182.3,17.2c-70.5-17.9-145.7-52.3-206.2-80
								c-67.6-30.9-121.1-55.4-130.4-39.4c-8,13.7,16.2,57.9,76.3,139.2c53.5,72.5,73.7,107.3,67.5,116.6c-1.1,1.7-3,2.5-5.7,2.5
								c-15.5,0-56.4-26.5-113.8-63.7c-130.5-84.5-327.7-212.2-406.3-137.1c-19.7,18.8-30.9,50-33.3,92.6
								c-2.6,46.8,5.3,108.8,23.6,184.2c17,70.1,24.2,129,21.5,174.9c-2.5,42.7-13.7,75.8-33.3,98.3
								C455.6,877.8,421.4,890.8,374.5,890.8z"/>
							<path class="st5" d="M-273.7,887.5c-19.4-66.2-19.1-110.6,1-135.5c43.8-54.3,177.3-6,318.6,45.2
								c84.5,30.6,172,62.2,248.2,75.6c86.2,15.1,144.2,3.7,177.2-34.9c19.2-22.4,30.2-54.8,32.9-96.3
								c2.9-44.8-3.9-101.8-20.1-169.5c-17.6-73.4-25.1-134-22.2-180.1c2.7-42.3,14.1-73.6,34.1-93.1
								c80.5-78.4,281.2,45.5,414.1,127.5c62.8,38.8,112.4,69.4,119.2,58.8c5.5-8.5-15.9-44-67.4-111.7
								c-61.1-80.4-84.6-122.8-76.3-137.6c9.8-17.4,61.8,5,133.8,36c61.4,26.5,137.8,59.4,209.5,75.9
								c83.9,19.3,144.3,12.6,184.7-20.7c38.1-31.4,57.9-87.4,58.9-166.7l1.3,0c-1,79.8-21,136.3-59.5,168
								c-40.7,33.5-101.4,40.3-185.7,20.9c-71.7-16.5-148.2-49.5-209.7-76c-68.7-29.6-123-53-132.3-36.6
								c-7.8,13.9,16.4,57,76.2,135.7c52.7,69.3,73.5,104.4,67.4,113.7c-1.2,1.8-3.2,2.6-6.1,2.6c-15.9,0-57-25.4-114.8-61
								c-132.6-81.8-332.9-205.4-412.7-127.7c-19.6,19.2-31,50.1-33.6,91.9c-2.9,45.9,4.5,106.3,22.1,179.6
								c16.3,67.8,23.1,125.1,20.2,170c-2.7,41.8-13.9,74.6-33.3,97.3c-33.3,39-91.6,50.5-178.3,35.3
								c-76.3-13.4-163.7-45.1-248.3-75.7c-140.9-51-274.1-99.2-317.3-45.6c-19.7,24.5-20,68.3-0.7,133.9L-273.7,887.5z"/>
							<path class="st5" d="M-293.8,887.2c-18.8-64-18.3-107.3,1.6-132.4c44.1-55.8,180.1-9.9,324.1,38.7
								c86.2,29.1,175.4,59.2,253.1,71.1c87.9,13.4,146.9,0.6,180.4-39.2c19-22.6,30.1-54.7,32.9-95.3c3.1-43.8-3.2-99.2-18.8-164.7
								c-17-71.2-23.9-130.3-20.8-175.5c2.9-41.5,14.5-72.6,34.4-92.4c81.6-81,285.7,38.9,420.7,118.2
								c63.6,37.4,113.9,66.9,120.6,56c5.4-8.6-16-43.2-67.4-108.9c-60.9-77.8-84.4-119.1-76.3-134.1c9.7-17.9,62.6,3.5,135.7,33.2
								c62.5,25.3,140.2,56.7,213.1,71.9c85.4,17.7,146.9,9.7,188.2-24.5c38.2-31.6,58.4-86.8,60.2-163.9l1.3,0
								c-1.8,77.7-22.2,133.3-60.8,165.2c-41.5,34.4-103.4,42.5-189.1,24.7c-73-15.1-150.8-46.6-213.3-71.9
								c-69.9-28.3-125.1-50.6-134.2-33.8c-7.6,14,16.6,56,76.1,132.1c52.6,67.2,73.4,101.4,67.4,110.9c-1.2,1.9-3.4,2.8-6.6,2.8
								c-16.3,0-57.8-24.4-115.7-58.4c-134.7-79.1-338.3-198.7-419.3-118.4c-19.6,19.5-31,50.2-33.9,91.3
								c-3.2,45.1,3.8,103.9,20.7,175c15.6,65.6,22,121.2,18.9,165.2c-2.9,41-14.1,73.4-33.3,96.3c-33.7,40.2-93.1,53.2-181.5,39.7
								c-77.7-11.9-167-42-253.2-71.1c-143.6-48.5-279.2-94.2-322.8-39.1c-19.5,24.6-19.9,67.4-1.3,130.8L-293.8,887.2z"/>
							<path class="st5" d="M-314.2,887.2c-18.1-61.8-17.5-104.1,2-129.2c20.4-26.2,60.4-33.5,126.1-22.9
								c58.3,9.4,128.9,31.6,203.7,55c88,27.6,179,56.1,258.2,66.4c89.7,11.7,149.8-2.5,183.6-43.6c18.8-22.7,29.9-54.4,32.9-94.2
								c3.3-42.9-2.6-96.7-17.5-159.9c-16.3-69.1-22.8-126.6-19.4-171c3.2-40.8,14.8-71.6,34.6-91.6
								c82.8-83.6,290.3,32.1,427.7,108.7c64.5,36,115.4,64.4,122.1,53.3c5.3-8.8-16.1-42.5-67.4-106
								c-60.7-75.2-84.2-115.5-76.3-130.6c9.6-18.3,63.3,2.1,137.7,30.3c63.5,24.1,142.6,54.1,216.9,67.8
								c87,16,149.7,6.8,191.8-28.3c38.2-31.8,58.9-86.1,61.5-161.1l1.3,0.1c-2.6,75.6-23.5,130.2-62,162.4
								c-42.4,35.3-105.4,44.6-192.7,28.5c-74.4-13.7-153.5-43.7-217.1-67.8c-71.1-26.9-127.2-48.2-136.2-31
								c-7.4,14.2,16.8,55.1,76.1,128.7c52.5,65.1,73.3,98.4,67.5,108c-1.2,2.1-3.6,3-7,3c-16.7,0-58.5-23.3-116.7-55.8
								c-137-76.4-344.1-191.9-426.2-109c-19.5,19.7-31,50.2-34.1,90.6c-3.4,44.2,3.1,101.5,19.3,170.4
								c15,63.4,20.9,117.5,17.6,160.5c-3.1,40.2-14.3,72.2-33.3,95.2c-34.2,41.4-94.6,55.8-184.7,44
								c-79.3-10.4-170.3-38.9-258.4-66.5C-129,745.7-267.2,702.4-311.2,759c-19.2,24.7-19.7,66.4-1.8,127.7L-314.2,887.2z"/>
							<path class="st5" d="M-334.9,887.5c-17.5-59.7-16.7-100.9,2.5-126.1c20.5-26.9,61.2-35.1,128-25.8
								c59.3,8.3,131.3,29.2,207.6,51.3C93,813,185.9,840,266.7,848.8c91.5,10,152.7-5.7,187-47.9c38.9-47.9,44.3-129.1,16.5-248.4
								c-15.6-67-21.7-123-18-166.5c3.4-40,15.1-70.6,34.8-90.9c84-86.4,295.1,25.3,434.8,99.2c65.4,34.6,117,61.9,123.6,50.5
								c5.2-8.9-16.2-41.7-67.4-103.3c-60.4-72.7-84-111.9-76.3-127.2c9.4-18.7,64.1,0.7,139.7,27.5
								c64.7,22.9,145.1,51.4,220.8,63.7c88.6,14.4,152.6,3.9,195.5-32.1c38.2-32,59.3-85.3,62.7-158.4l1.3,0.1
								c-3.4,73.6-24.7,127.3-63.3,159.6c-43.2,36.2-107.5,46.8-196.4,32.4c-75.8-12.3-156.3-40.9-221-63.8
								c-72.3-25.6-129.4-45.9-138.2-28.2c-7.2,14.3,17,54.1,76.1,125.3c52.4,63,73.2,95.5,67.6,105.3c-1.3,2.2-3.8,3.3-7.5,3.3
								c-17.1,0-59.3-22.3-117.7-53.2C851.5,358.9,764.8,313,684,286.5c-95.3-31.2-159.5-28-196.2,9.7c-19.5,20-31,50.2-34.3,89.8
								c-3.6,43.3,2.4,99.1,18,165.9c14.3,61.3,19.8,113.7,16.3,155.8c-3.2,39.3-14.4,71-33.2,94.1c-34.6,42.6-96.1,58.4-188.1,48.4
								c-80.9-8.8-173.8-35.8-263.6-61.8c-149.2-43.3-290.1-84.2-334.4-26c-18.8,24.7-19.6,65.5-2.2,124.6L-334.9,887.5z"/>
							<path class="st5" d="M-356,888.1c-16.9-57.6-15.9-97.8,2.9-123c20.6-27.6,62-36.7,130-28.6c60.4,7.1,133.9,26.8,211.7,47.6
								c91.7,24.5,186.5,49.9,268.9,57.1c93.4,8.2,155.7-8.9,190.4-52.4c38.5-48,44.2-127.4,17.6-242.6
								c-15-64.9-20.6-119.4-16.8-162c3.6-39.3,15.3-69.6,34.9-90.1c37.6-39.4,103.3-44.2,200.8-14.8
								c82.3,24.8,170.6,69,241.5,104.6c66.3,33.2,118.7,59.4,125.2,47.7c5-9-16.4-41-67.5-100.5c-60.3-70.2-83.8-108.4-76.4-123.8
								c9.2-19.1,64.9-0.7,141.8,24.7c65.8,21.7,147.7,48.8,224.8,59.6c90.3,12.8,155.5,1,199.3-35.9
								c38.2-32.2,59.7-84.6,63.9-155.7l1.3,0.1c-4.2,71.6-25.8,124.4-64.4,156.9c-44.1,37.1-109.6,48.9-200.2,36.2
								c-77.2-10.9-159.2-38-225-59.7c-73.5-24.3-131.6-43.4-140.3-25.4c-7,14.5,17.2,53.2,76.2,121.9c52.3,61,73.2,92.6,67.6,102.5
								c-7.1,12.8-54.7-11.1-126.8-47.2c-70.9-35.5-159.1-79.7-241.3-104.5c-97-29.2-162.3-24.5-199.6,14.5
								c-19.3,20.2-30.9,50.2-34.5,89.1c-3.9,42.5,1.8,96.8,16.7,161.5C480.5,605,485.6,655.9,482,697
								c-3.4,38.5-14.5,69.7-33.1,92.9c-35.1,43.8-97.7,61.1-191.5,52.8c-82.5-7.2-177.4-32.6-269.1-57.2
								c-152.1-40.7-295.8-79.1-340.4-19.5c-18.5,24.7-19.4,64.5-2.6,121.5L-356,888.1z"/>
							<path class="st5" d="M-377.4,889c-16.3-55.5-15.2-94.8,3.3-119.9c20.8-28.3,62.7-38.3,132.1-31.5
								c61.5,6,136.5,24.4,215.8,43.9c93.6,23,190.5,46.7,274.6,52.4c95.3,6.4,158.7-12.2,194-56.8c37.9-48.1,44-125.6,18.6-236.9
								c-14.4-62.8-19.6-115.9-15.5-157.6c3.8-38.6,15.5-68.6,35-89.3c38.2-40.6,104.9-47,204.2-19.6
								c83.8,23.1,173.6,65.6,245.8,99.8c67.3,31.8,120.4,57,126.8,45c4.9-9.2-16.6-40.2-67.6-97.8c-60.1-67.8-83.7-105-76.5-120.5
								c9-19.5,65.7-2.1,144,21.9c67,20.5,150.4,46.1,229,55.5c92.1,11.1,158.6-1.9,203.3-39.7c38.3-32.3,60.1-83.8,65-153l1.3,0.1
								c-4.9,69.6-27,121.5-65.6,154.1c-45,38-111.8,51.1-204.2,40c-78.7-9.5-162.1-35-229.2-55.6c-74.8-22.9-134-41-142.5-22.6
								c-6.8,14.6,17.5,52.2,76.3,118.6c52.3,59,73.2,89.8,67.8,99.8c-7,13.1-55.3-9.8-128.4-44.4C857.7,340.6,768,298.1,684.2,275
								c-98.8-27.2-165.2-20.9-203,19.3c-19.2,20.4-30.8,50.1-34.5,88.3c-4.1,41.6,1.1,94.4,15.5,157c13.1,57.2,17.8,106.5,14,146.7
								c-3.5,37.6-14.6,68.5-32.9,91.7c-35.5,45-99.3,63.8-195,57.3c-84.2-5.7-181.1-29.4-274.8-52.4
								c-155.2-38.1-301.7-74-346.6-12.8c-18.2,24.7-19.2,63.4-3,118.4L-377.4,889z"/>
							<path class="st5" d="M-399.2,890.2c-15.7-53.5-14.5-91.8,3.6-116.9c20.9-29,63.5-39.9,134.2-34.4
								c62.7,4.9,139.2,22,220.1,40.1c95.7,21.4,194.6,43.5,280.5,47.6c97.3,4.6,161.9-15.4,197.6-61.3
								c37.4-48.1,43.7-123.7,19.5-231.2c-13.7-60.8-18.5-112.4-14.3-153.3c3.9-37.8,15.7-67.6,35-88.4
								c38.7-41.8,106.6-49.9,207.7-24.5c85.4,21.4,176.8,62.2,250.3,95c68.3,30.5,122.2,54.5,128.5,42.3
								c4.8-9.3-16.7-39.5-67.7-95.1c-59.9-65.5-83.6-101.6-76.6-117.2c8.8-19.9,66.5-3.5,146.2,19c68.3,19.3,153.2,43.4,233.3,51.4
								c93.9,9.4,161.7-4.8,207.3-43.6c38.3-32.5,60.5-83,66.1-150.3l1.3,0.2c-5.7,67.8-28.1,118.7-66.7,151.4
								c-46,39-114,53.3-208.2,43.9c-80.2-8-165.2-32.1-233.5-51.5c-76.2-21.6-136.4-38.6-144.7-19.8C913.7,208.3,938,245,996.6,309
								c52.2,57,73.2,87,67.9,97.1c-1.4,2.7-4.5,4-9.3,4c-18.6,0-61.7-19.2-120.8-45.6c-73.4-32.8-164.9-73.6-250.1-95
								c-100.6-25.2-168.2-17.3-206.5,24.2c-39.8,43-46.6,123.8-20.3,240.1c12.5,55.1,16.8,103,12.9,142.2
								c-3.6,36.8-14.6,67.2-32.7,90.5c-35.9,46.2-100.9,66.4-198.6,61.8c-85.9-4.1-184.9-26.2-280.7-47.6
								c-158.3-35.4-307.8-68.9-353.1-6.2c-17.8,24.7-18.9,62.4-3.4,115.3L-399.2,890.2z"/>
							<path class="st5" d="M-421.3,891.8c-15.1-51.6-13.9-88.8,3.9-113.8c21-29.6,64.4-41.5,136.3-37.3
								c63.9,3.7,141.9,19.5,224.6,36.3c97.8,19.8,198.9,40.3,286.5,42.8c99.4,2.8,165.2-18.7,201.3-65.8
								c36.8-48.1,43.4-121.8,20.3-225.5c-13.1-58.8-17.5-108.9-13.1-149c4.1-37.1,15.9-66.5,35-87.5
								c39.2-43.1,108.3-52.8,211.3-29.4c87,19.7,180.1,58.8,255,90.2c69.3,29.1,124,52.1,130.2,39.6c4.6-9.4-16.9-38.8-67.8-92.5
								c-59.8-63.1-83.5-98.2-76.8-113.9c8.6-20.2,67.3-4.9,148.5,16.2c69.5,18.1,156.1,40.7,237.7,47.3
								c95.7,7.7,164.9-7.8,211.5-47.4c38.3-32.6,60.9-82.2,67.2-147.7l1.3,0.2c-6.4,65.9-29.2,116-67.7,148.8
								c-46.9,39.9-116.3,55.5-212.4,47.7c-81.8-6.6-168.3-29.2-237.9-47.3c-77.6-20.2-138.9-36.2-147-17.1
								c-6.3,14.7,18,50.3,76.5,112c52.2,55.1,73.2,84.2,68.1,94.5c-1.4,2.9-4.8,4.2-10,4.2c-19.1,0-62.5-18.2-121.8-43.1
								c-74.8-31.4-167.9-70.5-254.8-90.2c-102.5-23.2-171.3-13.7-210.2,29c-39.4,43.3-46.6,122.4-21.5,235
								c11.9,53.2,15.9,99.6,11.9,137.8c-3.7,35.9-14.7,65.9-32.5,89.2c-34.3,44.7-95,66.5-185.3,66.5c-5.5,0-11.2-0.1-17-0.2
								c-87.7-2.5-188.9-23-286.7-42.8c-161.6-32.7-314.2-63.7-359.7,0.5c-17.4,24.6-18.6,61.3-3.7,112.3L-421.3,891.8z"/>
							<path class="st5" d="M-443.8,893.6c-14.6-49.6-13.2-85.9,4.2-110.8c21.1-30.3,65.1-43,138.5-40.2
								c65.1,2.6,144.8,17.1,229.2,32.5c99.9,18.2,203.3,37,292.7,37.9c101.5,1,168.6-22,205.1-70.3c36.2-47.9,43.1-119.8,21-219.9
								c-24.1-109.5-16.4-187.3,22.9-231.3c39.7-44.4,110-55.7,215-34.4c88.6,18,183.6,55.4,259.8,85.4
								c70.4,27.7,125.9,49.6,132,36.9c4.5-9.4-17.1-38-68-89.9c-59.7-60.9-83.5-95-77-110.7c8.4-20.6,68.2-6.3,150.9,13.4
								c70.8,16.9,159,37.9,242.3,43.1c97.6,6,168.2-10.7,215.8-51.3c38.2-32.6,61.2-81.4,68.2-145.1l1.3,0.2
								c-7.1,64.1-30.2,113.3-68.8,146.2c-47.8,40.8-118.7,57.6-216.6,51.6c-83.4-5.2-171.6-26.2-242.5-43.1
								c-79-18.8-141.4-33.7-149.4-14.3c-6,14.7,18.4,49.3,76.7,108.8c52.2,53.2,73.2,81.5,68.3,91.9c-6.6,13.9-57.1-6-133.5-36.2
								c-76.2-30-171.1-67.4-259.6-85.4c-104.6-21.2-174.5-10.1-213.9,34c-39,43.6-46.6,120.9-22.6,229.8
								c11.3,51.3,15,96.2,10.9,133.5c-3.9,35.1-14.7,64.6-32.2,87.8c-36.8,48.7-104.2,71.9-206.1,70.8
								c-89.6-0.9-193-19.7-292.9-37.9c-164.9-30.1-320.7-58.4-366.4,7.1c-17.1,24.4-18.3,60.2-3.9,109.3L-443.8,893.6z"/>
							<path class="st5" d="M-466.7,895.7c-14-47.8-12.6-83,4.4-107.8c21.2-30.9,66-44.6,140.7-43c66.4,1.4,147.8,14.6,233.9,28.6
								c102.2,16.6,207.8,33.7,299.2,33c103.6-0.8,172-25.3,208.9-74.9c35.6-47.7,42.7-117.8,21.7-214.2
								c-23-105.8-15-181.9,23.9-226.2c40.2-45.7,111.8-58.6,218.8-39.4c90.4,16.2,187.1,51.9,264.9,80.6
								c71.5,26.4,127.9,47.2,133.8,34.2c4.3-9.5-17.4-37.3-68.2-87.3c-59.6-58.6-83.4-91.8-77.3-107.5c8.2-20.9,69-7.7,153.2,10.6
								c72.2,15.7,162,35.2,247,38.9c99.6,4.4,171.6-13.7,220.2-55.1c38.2-32.6,61.5-80.6,69.2-142.5l1.3,0.2
								c-7.7,62.4-31.2,110.7-69.8,143.6c-44.1,37.6-107.3,56-192.7,56c-9.2,0-18.6-0.2-28.3-0.6c-85-3.7-174.9-23.2-247.2-38.9
								c-80.5-17.5-144.1-31.3-151.8-11.5c-5.8,14.8,18.7,48.3,76.9,105.6c52.2,51.3,73.3,78.8,68.6,89.3
								c-6.4,14.1-57.7-4.8-135.4-33.4c-77.7-28.6-174.4-64.3-264.7-80.5c-106.6-19.1-177.8-6.4-217.7,38.9
								c-38.5,43.8-46.5,119.4-23.6,224.6c10.8,49.4,14.1,92.9,9.9,129.2c-3.9,34.3-14.7,63.3-31.9,86.4
								c-37.2,49.9-105.9,74.5-209.9,75.4c-91.5,0.8-197.2-16.4-299.4-33C-256.3,747.8-415.3,722-461.3,789
								c-16.7,24.3-18,59-4.2,106.2L-466.7,895.7z"/>
							<path class="st5" d="M-490,898.2c-13.5-45.9-12-80.2,4.6-104.8c21.1-31.3,65.9-45.9,140.9-45.9h2.1
								c67.7,0.2,150.8,12.1,238.8,24.7c104.5,14.9,212.5,30.4,305.9,28c105.9-2.7,175.5-28.7,212.9-79.4
								c35-47.5,42.3-115.7,22.3-208.7c-22-102.3-13.6-176.6,24.8-221c40.7-47,113.6-61.5,222.8-44.4
								c92.1,14.5,190.8,48.4,270.1,75.7c72.6,25,130,44.7,135.7,31.5c4.1-9.5-18.3-37.2-68.5-84.8c-59.5-56.4-83.4-88.6-77.6-104.4
								c7.9-21.2,69.9-9,155.7,7.8c100.5,19.7,225.5,44.3,333.2,31.4c127.5-15.2,197.4-79.3,213.5-195.7l1.3,0.3
								c-8.6,62.3-33.4,110.6-73.8,143.6c-34.7,28.4-82.1,46.4-140.9,53.4c-107.9,12.9-233-11.7-333.5-31.4
								c-82-16.1-146.8-28.8-154.3-8.7c-5.5,14.8,19,47.4,77.2,102.5c52.2,49.5,73.4,76.2,68.8,86.7c-1.5,3.5-5.8,5.1-12.5,5.1
								c-20.8,0-65.1-15.3-124.8-35.8c-79.2-27.3-177.9-61.2-269.9-75.7c-108.7-17.1-181.3-2.7-221.7,44
								c-38,43.9-46.3,117.8-24.4,219.5c10.2,47.6,13.2,89.6,8.9,125.1c-4,33.4-14.6,62-31.6,85c-37.6,51.1-107.6,77.2-213.9,79.9
								c-93.5,2.4-201.5-13.1-306-28c-172-24.6-334.4-47.8-380.5,20.6c-16.3,24.1-17.7,57.9-4.4,103.3L-490,898.2z"/>
							<path class="st5" d="M-513.6,900.9c-13-44.2-11.4-77.4,4.7-101.8c21.4-32.2,67.6-47.7,145.3-48.8
								c69-0.9,153.9,9.6,243.8,20.8c106.8,13.3,217.3,27,312.7,22.9c108.2-4.6,179.2-32,216.9-84c34.3-47.2,41.8-113.6,22.9-203.1
								c-20.9-98.8-12.3-171.4,25.6-215.8c41.2-48.3,115.4-64.5,226.8-49.4c94,12.7,194.6,44.9,275.5,70.8
								c73.8,23.6,132.1,42.3,137.7,28.8c4-9.5-18.5-36.4-68.8-82.3c-59.4-54.3-83.5-85.6-77.9-101.3c7.6-21.5,70.8-10.4,158.2,5
								c101.9,17.9,228.6,40.2,338.2,26c129.8-16.9,201.4-81,219-195.9l1.3,0.3c-9.4,61.4-35.1,109.4-76.5,142.5
								c-35.6,28.5-83.9,46.9-143.7,54.7c-109.7,14.3-236.6-8-338.5-26c-83.6-14.7-149.6-26.3-156.8-5.9
								c-5.3,14.8,19.4,46.4,77.5,99.4c52.2,47.7,73.5,73.7,69.1,84.2c-6.1,14.6-59-2.3-139.2-28C879.5,288.2,778.9,256,685,243.3
								c-111-15-184.8,1-225.7,49c-37.6,44-46.1,116.1-25.3,214.3c9.7,45.8,12.4,86.5,8.1,121c-4.1,32.6-14.6,60.7-31.2,83.5
								c-38,52.3-109.3,79.9-217.9,84.5c-95.5,4-206-9.7-312.9-22.9c-175.6-21.8-341.5-42.4-387.9,27.4
								c-15.9,23.9-17.3,56.7-4.5,100.3L-513.6,900.9z"/>
							<path class="st5" d="M-537.7,903.9c-12.4-42.4-10.8-74.7,4.9-98.8c21.5-32.8,68.4-49.2,147.6-51.6
								c70.4-2.1,157.1,7.1,249,16.8c109.3,11.6,222.3,23.5,319.8,17.8c110.6-6.5,182.9-35.4,221.1-88.5
								c33.7-46.8,41.3-111.4,23.4-197.6c-19.9-95.4-11-166.2,26.4-210.7c41.7-49.6,117.2-67.4,230.9-54.5
								c95.9,10.9,198.6,41.4,281.2,65.9c75,22.2,134.3,39.8,139.7,26.2c3.8-9.5-18.8-35.6-69.1-79.8
								c-59.4-52.2-83.5-82.5-78.2-98.3c7.4-21.8,71.7-11.7,160.8,2.2c103.3,16.2,231.9,36.3,343.4,20.6
								c132-18.6,205.5-82.7,224.6-196.1l1.3,0.3c-10.2,60.6-36.8,108.2-79.2,141.4c-36.4,28.6-85.7,47.4-146.5,56
								c-111.7,15.7-240.3-4.4-343.7-20.6c-85.2-13.3-152.4-23.8-159.4-3.2c-5,14.7,19.7,45.4,77.8,96.4
								c52.2,45.9,73.7,71.1,69.5,81.7c-5.9,14.8-59.7-1.1-141.2-25.3c-82.5-24.5-185.2-54.9-281-65.8
								c-113.3-12.9-188.4,4.8-229.9,54.1c-37,44-45.8,114.4-26,209.2c9.2,44,11.6,83.4,7.2,117c-4.2,31.7-14.5,59.3-30.8,82
								c-38.4,53.4-111,82.6-222,89.1c-97.6,5.7-210.6-6.2-320-17.8c-179.4-19-348.9-36.9-395.4,34.2c-15.4,23.6-17,55.5-4.7,97.3
								L-537.7,903.9z"/>
							<path class="st5" d="M-562.2,907.3c-12-40.7-10.3-72.1,5-95.9c21.5-33.4,69.2-50.7,150-54.4c71.8-3.3,160.4,4.5,254.3,12.8
								c111.8,9.8,227.4,20,327,12.6c113-8.4,186.7-38.8,225.3-93.1c33-46.4,40.8-109.2,23.8-192.1c-18.8-92-9.8-161.1,27-205.5
								c22.4-27.1,55.7-45.5,98.9-54.9c37.2-8.1,83-9.6,136.3-4.7c97.9,9.1,202.7,37.8,287,60.9c76.3,20.9,136.5,37.4,141.8,23.5
								c3.6-9.6-19.1-34.9-69.4-77.3c-59.4-50.2-83.6-79.6-78.6-95.3c7.1-22,72.7-13,163.5-0.6c104.8,14.4,235.2,32.3,348.7,15.1
								c134.4-20.3,209.7-84.5,230.3-196.5l1.3,0.3c-11,59.9-38.6,107.1-81.9,140.4c-37.3,28.7-87.6,48-149.5,57.3
								c-113.6,17.1-244.1-0.8-349-15.1c-90.2-12.4-155.4-21.3-162.1-0.4c-4.7,14.7,20.1,44.4,78.1,93.4
								c52.3,44.2,73.8,68.6,69.8,79.3c-5.7,15-60.4,0-143.3-22.6c-84.2-23-189-51.7-286.8-60.8c-115.6-10.8-192.2,8.6-234.1,59.1
								c-36.4,44-45.4,112.6-26.7,204c8.7,42.3,10.8,80.4,6.4,113c-4.2,30.9-14.5,58-30.4,80.5c-38.8,54.6-112.8,85.2-226.2,93.6
								c-99.7,7.4-215.4-2.8-327.2-12.6c-183.3-16.1-356.5-31.4-403.1,41.1c-15,23.4-16.6,54.2-4.8,94.4L-562.2,907.3z"/>
							<path class="st5" d="M-587.1,911c-11.5-39.1-9.8-69.5,5.1-93c21.6-34,70-52.2,152.4-57.3c73.2-4.5,163.8,1.9,259.7,8.7
								c114.4,8.1,232.7,16.5,334.5,7.4c115.5-10.3,190.6-42.3,229.6-97.6c31.9-45.3,40-108.1,24.2-186.7
								c-17.9-88.7-8.6-156.1,27.6-200.4c22.7-27.8,56.5-47.1,100.5-57.4c37.9-8.9,84.7-11.3,139-7.4c99.9,7.3,206.9,34.2,293,55.8
								c77.6,19.5,138.9,34.9,143.9,20.9c3.4-9.6-19.4-34.1-69.7-74.9c-59.4-48.2-83.7-76.7-79-92.3c6.8-22.2,73.7-14.3,166.2-3.4
								c106.3,12.6,238.7,28.3,354.1,9.7c136.7-21.9,214-86.4,236-196.9l1.3,0.4c-11.8,59.1-40.3,106-84.7,139.5
								c-38.2,28.8-89.5,48.5-152.5,58.6c-115.6,18.5-248,2.9-354.4-9.7c-91.9-10.9-158.4-18.8-164.8,2.3
								c-4.5,14.6,20.5,43.4,78.5,90.5c52.4,42.5,74,66.2,70.2,76.9c-5.4,15.2-61.1,1.2-145.4-20c-86-21.6-193-48.5-292.8-55.8
								c-118.1-8.6-196.1,12.4-238.5,64.3c-35.8,43.9-45,110.8-27.2,198.9c15.9,79.1,7.7,142.4-24.4,188.1
								C356,735.9,280.6,768,164.7,778.4C62.8,787.5-55.5,779.1-170,771c-187.3-13.3-364.3-25.8-411,47.9c-14.6,23-16.2,53-4.9,91.5
								L-587.1,911z"/>
							<path class="st5" d="M-612.4,915c-11-37.5-9.3-67,5.2-90.1c21.6-34.6,70.8-53.7,154.9-60.1c74.7-5.7,167.3-0.7,265.3,4.6
								c117.1,6.3,238.1,12.9,342.2,2.1c118.1-12.3,194.6-45.7,234-102.2c31.2-44.8,39.4-105.8,24.5-181.3
								c-16.9-85.5-7.5-151.2,28.1-195.3c22.9-28.4,57.3-48.6,102.1-59.8c38.6-9.7,86.3-13.1,141.8-10.1
								c102,5.5,211.3,30.6,299.2,50.8c78.9,18.1,141.3,32.4,146.1,18.2c3.3-9.6-19.7-33.3-70.1-72.6
								c-59.4-46.2-83.9-73.8-79.4-89.4c6.5-22.4,74.6-15.6,169-6.1c107.9,10.8,242.2,24.3,359.7,4.3
								c139.2-23.6,218.3-88.2,241.9-197.4l1.3,0.4c-12.6,58.4-42.1,105-87.5,138.6c-39.1,28.9-91.5,49.1-155.5,60
								c-117.7,20-252,6.5-360-4.3c-93.8-9.4-161.5-16.2-167.6,5.1c-4.2,14.6,20.9,42.4,78.9,87.5c52.5,40.8,74.2,63.8,70.6,74.5
								c-5.2,15.4-61.8,2.4-147.6-17.3c-87.8-20.2-197.1-45.2-299-50.7c-120.6-6.5-200,16.2-242.9,69.4
								c-35.2,43.7-44.5,108.9-27.8,193.8c15.1,76.1,6.7,137.5-24.7,182.7c-39.6,56.8-116.4,90.4-234.9,102.7
								c-104.2,10.8-225.2,4.3-342.3-2.1c-191.4-10.3-372.3-20.1-419.1,54.8c-14.2,22.7-15.8,51.7-5,88.7L-612.4,915z"/>
						</g>
					</g>
				</g>
			</g>
		</g>
	</g>
	<g id="Layer_3">
		<g id="Layer_6">
			<polygon class="st6" points="942.7,726.9 942,726.9 942,882.6 952.3,882.6 952.1,753.9 1005.9,814.6 1005.9,798.8 			"/>
			<path class="st6" d="M942.6,727.1c-0.2,0-0.4,0-0.6,0.1l0.3-0.3c0.3,6.5,0.6,13,0.8,19.5c0.1,3.2,0.2,6.5,0.3,9.7
				c0.1,3.2,0.2,6.5,0.2,9.7c0.3,13,0.5,25.9,0.6,38.9c0.1,13,0.2,25.9,0,38.9c-0.1,6.5-0.2,13-0.4,19.5l-0.5,19.5l-1.3-1.3l5.2,0.1
				l5.2,0.1l-1.1,1.1l0.1-4l0.1-4c0-2.7,0.1-5.4,0.1-8c0-5.4,0.1-10.7,0-16.1c0-5.4-0.1-10.7-0.1-16.1c-0.1-5.4-0.2-10.7-0.3-16.1
				c-0.2-10.7-0.5-21.4-0.8-32.2c-0.1-5.4-0.2-10.7-0.3-16.1c0-2.7-0.1-5.4-0.1-8l0-4l0-4l-0.1-6.2l4.2,4.6l13.6,15.1
				c4.5,5,9.1,10,13.6,15.1c4.5,5,9,10.1,13.5,15.1c4.5,5.1,9,10.1,13.4,15.2l-4.7,1.8l0.1-7.9l0.1-7.9l0.6,1.7
				c-5.1-6-10.3-12-15.4-18c-5.1-6-10.2-12.1-15.4-18.2c-5.1-6.1-10.2-12.2-15.3-18.4c-2.6-3.1-5.1-6.2-7.7-9.3
				C947.7,733.4,945.1,730.3,942.6,727.1z M942.8,726.6c2.7,2.8,5.4,5.7,8.1,8.6c2.7,2.9,5.4,5.8,8.1,8.7
				c5.4,5.8,10.9,11.7,16.3,17.5c5.4,5.9,10.9,11.8,16.3,17.8c5.4,6,10.8,11.9,16.2,17.9l0.6,0.7l0,1l0.1,7.9l0.1,7.9l0.1,7.1
				l-4.8-5.3c-4.5-5-9-10.1-13.5-15.1c-4.5-5.1-9-10.1-13.4-15.2c-4.5-5.1-8.9-10.2-13.3-15.3l-13.3-15.3l4.1-1.6l0,4l0,4
				c0,2.7-0.1,5.4-0.1,8c-0.1,5.4-0.2,10.7-0.3,16.1c-0.2,10.7-0.5,21.5-0.7,32.2c-0.1,5.4-0.2,10.7-0.2,16.1
				c-0.1,5.4-0.1,10.7-0.1,16.1c0,5.4,0,10.7,0.1,16.1c0,2.7,0.1,5.4,0.1,8l0.1,4l0.1,4l0,1.1l-1.1,0l-5.2,0.1l-5.2,0.1l-1.3,0
				l0-1.4l-0.5-19.5c-0.2-6.5-0.3-13-0.4-19.5c-0.2-13-0.1-25.9,0-38.9c0.1-13,0.3-25.9,0.6-38.9c0.1-3.2,0.2-6.5,0.2-9.7
				c0.1-3.2,0.2-6.5,0.3-9.7c0.2-6.5,0.5-13,0.8-19.5l0-0.3l0.3,0C942.2,726.6,942.5,726.6,942.8,726.6L942.8,726.6z"/>
			<polygon class="st6" points="1026.1,730.3 1026.3,860.4 972,799 972,814.8 1035.8,886.4 1036.1,886.4 1036.1,730.3 			"/>
			<path class="st6" d="M1026.3,730.5c0.2,5.6,0.4,11.2,0.6,16.7c0.2,5.5,0.3,11,0.5,16.5c0.3,10.9,0.6,21.8,0.8,32.5
				c0.2,10.8,0.3,21.5,0.4,32.2c0,5.3,0,10.7,0,16c0,5.3-0.1,10.7-0.2,16.1l-0.1,5.4l-3.4-4c-4.4-5.2-8.8-10.5-13.2-15.7l-3.3-3.9
				l-3.3-3.9c-2.2-2.6-4.4-5.2-6.6-7.8c-4.4-5.2-8.9-10.4-13.4-15.5s-9.1-10.2-13.6-15.3l1.5-0.6l0,3.9l0,3.9l0.1,3.9l0.1,3.9
				l-0.3-0.7c5.4,5.9,10.9,11.7,16.3,17.5l8.2,8.8c2.7,2.9,5.4,5.9,8.2,8.8c2.7,2.9,5.4,5.9,8.1,8.8c2.7,3,5.4,5.9,8.1,8.9
				l16.1,17.7l-1.9-0.9h0.3l-2.6,2.6c-0.1-6.5-0.1-13-0.1-19.5c0-6.5,0-13,0-19.5c0-13,0.1-26,0.3-39c0.2-13,0.4-26,0.7-39
				c0.1-6.5,0.3-13,0.5-19.5s0.4-13,0.6-19.5l0.7,0.7c-0.8,0-1.6-0.1-2.4-0.1c-0.8,0-1.6-0.1-2.4-0.1l-2.5-0.1
				C1028,730.6,1027.1,730.6,1026.3,730.5z M1025.9,730.1l2.5-0.1l2.5-0.1c0.9,0,1.7-0.1,2.6-0.1c0.9,0,1.7-0.1,2.6-0.1l0.6,0l0,0.7
				c0.2,6.5,0.5,13,0.6,19.5s0.3,13,0.5,19.5c0.3,13,0.5,26,0.7,39c0.2,13,0.3,26,0.3,39c0,6.5,0,13,0,19.5c0,6.5-0.1,13-0.1,19.5
				l0,2.6l-2.6,0h-0.3l-1.2,0l-0.8-0.9l-15.8-18.1c-2.6-3-5.3-6-7.9-9c-2.6-3-5.2-6-7.8-9.1c-2.6-3-5.2-6.1-7.8-9.1l-7.8-9.1
				c-5.2-6.1-10.4-12.2-15.6-18.2l-0.3-0.3l0-0.4l0.1-3.9l0.1-3.9l0-3.9l0-3.9l0-2.2l1.5,1.7c4.5,5.2,9,10.3,13.5,15.4
				s9.1,10.2,13.8,15.2c2.3,2.5,4.6,5,7,7.5l3.5,3.8l3.5,3.7c4.7,5,9.3,10,14,15l-3.5,1.3c-0.1-5.5-0.2-11-0.3-16.5
				c-0.1-5.5-0.1-11,0-16.5c0-11,0.1-21.9,0.3-32.9c0.2-10.9,0.4-21.8,0.7-32.5c0.1-5.4,0.3-10.7,0.4-16.1
				C1025.6,740.7,1025.7,735.4,1025.9,730.1L1025.9,730.1z"/>
		</g>
	</g>
	<g class="st4">
		<g>
			<g>
				<polygon class="st6" points="1055.7,149.4 1047.3,161.9 1038.9,174.4 1037.4,173.3 1046.5,161.4 				"/>
				<polygon class="st6" points="1004.6,225 987.4,250.3 970.1,275.5 963.7,271 982.1,246.5 1000.5,222.1 				"/>
				<polygon class="st6" points="935.5,326 900.7,376.3 890.7,369.1 927.1,320 				"/>
				<polygon class="st6" points="865.8,426.5 830.8,476.7 818.1,467.5 854.3,418.3 				"/>
				<path class="st6" d="M795.7,526.7l-17.6,25l-4.4,6.3l-1.1,1.6c-0.5,0.6-0.9,1.3-1.5,1.9c-1,1.3-2.1,2.4-3.2,3.6
					c-4.6,4.5-10.3,8-16.5,10l-5.4-17.1c3.6-1.1,6.8-3,9.5-5.5c0.7-0.6,1.3-1.3,1.9-2c0.3-0.4,0.6-0.7,0.9-1.1l1.1-1.5l4.5-6.2
					l18-24.7L795.7,526.7z"/>
				<polygon class="st6" points="692.4,544.3 654.9,496 670.3,484.2 707.3,532.9 				"/>
				<path class="st6" d="M620.1,454.4c-2.4-0.6-5-0.3-7.2,1.1c-1.1,0.7-2.1,1.5-2.9,2.6l-0.3,0.4l-0.3,0.5l-0.3,0.4l-0.3,0.5
					l-0.3,0.5l-0.4,0.9l-0.8,1.7l-13.4,27.5l-17.9-8.8l13.5-27.4l0.8-1.7l0.4-0.9l0.6-1.2l0.7-1.2c0.2-0.4,0.5-0.8,0.7-1.2l0.8-1.1
					l0.9-1.1c2.3-2.9,5.2-5.5,8.5-7.4c6.6-3.9,14.8-5.1,22.3-3.1L620.1,454.4z"/>
				<polygon class="st6" points="567,545.3 540,600.2 522.2,591.5 549.1,536.5 				"/>
				<polygon class="st6" points="512.9,655 485.8,709.8 468.9,701.5 495.5,646.5 				"/>
				<polygon class="st6" points="458.5,764.5 431.1,819.2 415.9,811.8 442.3,756.6 				"/>
				<polygon class="st6" points="372.7,821.7 336.9,772.1 348.3,763.7 385.3,812.3 				"/>
				<path class="st6" d="M301.1,722.5l-8.9-12.4l-4.5-6.2l-1.1-1.6l-0.6-0.8l-0.3-0.4l-0.2-0.3l-0.9-1.1l-1-1
					c-2.7-2.5-6.2-4-9.9-3.9c-3.7,0.1-7.2,1.7-9.9,4.5l-7.6-7.1c2.1-2.3,4.7-4.3,7.6-5.8c2.9-1.4,6.1-2.3,9.4-2.5
					c6.6-0.4,13.2,2,18.1,6.3l1.8,1.7l1.6,1.8l0.4,0.5l0.3,0.4l0.6,0.8l1.2,1.5l4.7,6.1l9.3,12.1L301.1,722.5z"/>
				<polygon class="st6" points="224.6,745.7 204.8,769.1 185,792.3 181,789.1 199.7,764.9 218.5,740.8 				"/>
				<polygon class="st6" points="145.1,838.8 135.3,850.2 125.5,861.5 134.6,849.5 143.7,837.6 				"/>
			</g>
		</g>
		<g>
			<path class="st6" d="M125.5,861.5c25.8-34.1,51.9-68,78-101.8l39.3-50.6l9.8-12.7l2.5-3.2c1-1.3,2.2-2.5,3.5-3.6
				c2.6-2.2,5.6-3.9,9-4.9c3.3-1,6.9-1.3,10.3-0.9c3.5,0.4,6.8,1.6,9.8,3.4c3,1.8,5.6,4.2,7.7,6.8l4.9,6.4
				c13,16.9,26.1,33.8,39.1,50.8l38.9,50.9l9.7,12.7l4.9,6.4c1.1,1.4,2.2,2.4,3.5,3.1c2.5,1.5,5.6,1.9,8.3,1
				c2.8-0.8,5.1-2.8,6.7-5.7l27.4-57.4c9.2-19.3,18.5-38.5,27.7-57.8l27.8-57.7c9.2-19.3,18.6-38.4,28-57.7l28-57.6l28.3-57.5
				l7.1-14.4l3.5-7.2l0.4-0.9l0.2-0.5l0.3-0.7c0.4-0.9,0.9-1.7,1.5-2.6c1.1-1.7,2.3-3.3,3.7-4.7c2.8-3,6.2-5.4,10-7.1
				c3.8-1.7,8-2.6,12.1-2.6c4.2,0,8.4,0.9,12.2,2.5c3.8,1.7,7.2,4.2,10,7.1c0.7,0.7,1.3,1.5,1.9,2.3c0.4,0.4,0.5,0.6,0.7,0.9
				l0.6,0.8l2.4,3.2l4.8,6.4l9.7,12.8l19.2,25.7c12.8,17.1,25.5,34.3,38.1,51.6l-14.2,10.9c-13.4-16.6-26.7-33.3-39.9-50.1
				l-38.8-49.5c-1.9-1.9-4.1-2.8-6.4-2.8c-2.3,0-4.6,1.1-6.3,2.9c-0.4,0.5-0.8,1-1.2,1.6c-0.2,0.3-0.4,0.6-0.5,0.9l-0.1,0.2
				l-0.2,0.4l-0.4,0.9l-3.5,7.2l-7,14.4l-28.1,57.6l-28.3,57.5c-9.5,19.2-18.9,38.3-28.4,57.4l-28.6,57.4
				c-9.5,19.1-19,38.3-28.7,57.3l-14.4,28.6l-7.2,14.3l-3.6,7.2l-1.8,3.6c-0.6,1.2-1.1,2.2-2.1,4c-1.9,3.2-4.3,6.2-7.3,8.6
				c-1.5,1.2-3.1,2.3-4.9,3.2c-1.7,0.9-3.6,1.6-5.4,2.1c-3.8,1-7.7,1.3-11.6,0.7c-1.9-0.3-3.8-0.8-5.7-1.4c-1.8-0.7-3.6-1.6-5.2-2.6
				c-3.3-2-6-4.8-8.2-7.7l-4.7-6.5l-9.4-13l-37.4-52c-12.5-17.3-24.9-34.8-37.3-52.1l-4.7-6.5c-1.1-1.6-2.5-2.9-4.1-3.9
				c-3.1-2-7-2.7-10.7-1.7c-1.8,0.5-3.5,1.3-5.1,2.5c-0.8,0.6-1.5,1.3-2.1,2l-2.6,3l-10.4,12.2l-41.5,48.9
				C181.4,796.8,153.6,829.3,125.5,861.5z"/>
		</g>
	</g>
</g>
</svg>
