<svg xmlns="http://www.w3.org/2000/svg" xmlns:xlink="http://www.w3.org/1999/xlink" viewBox="0 0 3710 3710"><defs><style>.cls-1,.cls-2{fill:none;}.cls-2,.cls-3,.cls-7{stroke-miterlimit:10;}.cls-2{stroke-width:10px;stroke:url(#New_Gradient_Swatch_1);}.cls-3{stroke-width:8.85px;fill:url(#New_Gradient_Swatch);stroke:url(#New_Gradient_Swatch-2);}.cls-4{opacity:0.8;}.cls-5{clip-path:url(#clip-path);}.cls-6{opacity:0.9;}.cls-7,.cls-8{fill:#fff;}.cls-7{stroke:#fff;stroke-width:1.55px;}</style><linearGradient id="New_Gradient_Swatch_1" x1="82" y1="1855" x2="3628" y2="1855" gradientUnits="userSpaceOnUse"><stop offset="0" stop-color="#027e94"/><stop offset="0" stop-color="#027e94"/><stop offset="1" stop-color="#027e94"/></linearGradient><linearGradient id="New_Gradient_Swatch" x1="289.58" x2="3420.42" xlink:href="#New_Gradient_Swatch_1"/><linearGradient id="New_Gradient_Swatch-2" x1="285.15" x2="3424.85" xlink:href="#New_Gradient_Swatch_1"/><clipPath id="clip-path"><rect class="cls-1" x="289.58" y="317.91" width="3130.85" height="3074.18" rx="654.03"/></clipPath></defs><title>Artboard 1artwork-Nauvis</title><g id="Layer_2" data-name="Layer 2"><rect class="cls-2" x="87" y="119" width="3536" height="3472" rx="738.67"/><rect class="cls-3" x="289.58" y="317.91" width="3130.85" height="3074.18" rx="654.03"/><g class="cls-4"><g class="cls-5"><g class="cls-6"><path class="cls-7" d="M1714.91,3385.67c-70,0-161.71-33.81-276.77-101.73-161.32-95.22-346.58-243.17-525.75-386.23-302.76-241.77-588.73-470.16-686.29-380.32-57.89,53.31-46.35,214.42,35.27,492.55l-3.36,1.4c-82.19-280.07-93.34-442.74-34.09-497.27,99.59-91.69,386.59,137.49,690.46,380.14,179.06,143,364.22,290.85,525.34,386,182.08,107.49,304.85,129.21,375.33,66.41,53.22-47.44,77.87-145.76,73.27-292.26-5.08-161.13-45.7-387-120.72-671.21-77.84-294.94-121.18-526.5-128.76-688.24-6.91-146.62,15.39-240.19,66.29-278.13,170.27-126.93,625.09,384.48,926.06,722.89,141.36,158.94,263.46,296.15,281.31,278.66,21.09-20.69-100-255.77-192.95-430.79-181-340.89-246.67-499.15-219.48-529.1,27.39-30.15,142.72,72.46,302.33,214.47,135.16,120.21,303.33,269.84,457.74,370.55,180.15,117.52,307.05,147,387.93,90.09,95.09-66.93,124.88-258.8,88.53-570.31l3.52-.59c19.06,163.33,20.12,295.06,3.14,391.52-15.65,88.86-47.06,150.44-93.38,183-28.08,19.76-60.77,28.66-97,28.66-202.32,0-514.76-277.93-752.66-489.55-152.28-135.45-272.61-242.48-297.78-214.7-25,27.51,44.94,193.91,220,523.67,192.24,362,205,423.73,192.2,436.32a8.28,8.28,0,0,1-6,2.26c-28.55,0-119.29-100.4-280-281.11-300.2-337.51-753.8-847.56-921.75-722.37-105.2,78.42-83.66,401.91,64,961.49,145.11,549.89,160.23,866.57,46.23,968.17C1790.47,3373.74,1756.54,3385.67,1714.91,3385.67Z"/><path class="cls-7" d="M1687.28,3345.11c-70.24,0-161.16-31.51-274.42-94.78-163.45-91.31-351-234.94-532.46-373.83C574.06,2642,284.72,2420.44,185.74,2513.37c-58,54.46-47.54,212.56,31.92,483.33l-3.36,1.39c-80-272.69-90.08-432.33-30.76-488.05,101-94.8,391.34,127.53,698.79,362.91,181.34,138.82,368.81,282.41,532,373.57,184.5,103.08,309,121.56,380.7,56.49,53.45-48.51,78.73-146.18,75.15-290.26-3.94-158.3-42.82-378.93-115.56-655.79-75.65-287.94-117.22-514.57-123.57-673.6-5.77-144.23,17.35-237.1,68.69-276,173.19-131.3,631.47,367.19,934.74,697,142.2,154.69,265,288.29,283.12,270.14,21.18-21.32-99.19-250.59-191.59-421.2-179.77-332-244.89-486.71-217.76-517.44,27.51-31.18,144,68.49,305.18,206.39,136.53,116.79,306.45,262.13,462.71,359,182.36,113.09,311.11,139.5,393.58,80.75,95.95-68.34,127.62-257.31,94.15-561.65l3.55-.55c17.55,159.53,17.36,288.62-.55,383.67-16.51,87.61-48.57,148.9-95.29,182.18-83.63,59.56-213.52,33.19-397-80.63-156.5-97-326.52-242.5-463.15-359.36-153.81-131.57-275.3-235.51-300.68-206.76-25,28.27,44.42,191,218.3,512.07,191.14,353,203.76,413.78,190.9,426.73-19.54,19.66-112.13-79.16-287.79-270.23-302.45-329-759.53-826.17-930.42-696.6-106.16,80.48-87.19,398.36,56.37,944.8,140.78,535.84,153.59,846.81,39.17,950.68C1768.79,3332.2,1732.28,3345.11,1687.28,3345.11Z"/><path class="cls-7" d="M1659.35,3305.65c-70.33,0-160.39-29.26-271.69-88-165.69-87.41-355.75-226.77-539.54-361.53-310.15-227.4-603.07-442.2-703.43-346-58,55.6-48.64,210.7,28.68,474.19l-3.36,1.39c-77.88-265.38-86.89-422-27.55-478.88,102.3-98,396.28,117.52,707.53,345.73,183.69,134.69,373.65,274,539.12,361.26,187,98.68,313.39,113.89,386.27,46.48,53.63-49.6,79.51-146.55,76.93-288.27-2.85-155.49-40-371-110.49-640.53-73.49-281-113.33-502.81-118.44-659.16-4.64-141.9,19.27-234.09,71-274,176.16-135.85,638.2,350,943.94,671.38,149.05,156.72,266.76,280.5,285,261.69,21.24-22-98.45-245.52-190.33-411.77-178.59-323.16-243.28-474.49-216.2-506,27.62-32.19,145.31,64.52,308.2,198.35,138,113.4,309.76,254.52,468,347.63,184.66,108.68,315.33,132,399.45,71.37,96.75-69.75,130.27-255.83,99.66-553.12l3.55-.51c16,155.74,14.61,282.25-4.22,375.91-17.36,86.37-50,147.4-97.15,181.35-85.25,61.47-217,38.17-402.87-71.16C3133,1870.16,2961.08,1728.94,2823,1615.47c-155.42-127.7-278.15-228.55-303.7-198.81-24.9,29,44,188.06,216.7,500.66,190.1,344,202.56,404,189.68,417.28-19.64,20.33-112.84-75.79-289.66-261.71-304.94-320.6-765.74-805.11-939.65-671-107.06,82.57-90.62,394.91,48.87,928.36,136.48,522,147.06,827.28,32.34,933.4C1747.29,3291.62,1708,3305.65,1659.35,3305.65Z"/><path class="cls-7" d="M1631.09,3267.18c-70.3,0-159.34-27.11-268.54-81.33-168-83.52-360.7-218.63-547-349.3-314.11-220.32-610.84-428.37-712.56-329-58,56.71-49.65,208.86,25.56,465.15l-3.36,1.4C49.39,2716,41.39,2562.29,100.69,2504.31,204.34,2403,502.1,2611.82,817.34,2832.9c186.21,130.59,378.76,265.63,546.57,349,189.72,94.3,318,106.2,392,36.37,53.76-50.68,80.21-147,78.6-286.29-1.77-152.72-37.27-363.15-105.52-625.43-71.34-274.2-109.49-491.19-113.38-644.94-3.56-139.59,21.12-231.13,73.27-272.06,179.18-140.56,645.25,332.71,953.72,645.87,150.09,152.42,268.64,272.78,287,253.3,21.27-22.6-97.77-240.52-189.16-402.48-177.46-314.49-241.68-462.45-214.75-494.73,27.74-33.23,146.68,60.56,311.34,190.37,139.57,110,313.26,247,473.52,336.32,187.09,104.3,319.74,124.52,405.55,62,97.5-71.16,132.84-254.43,105-544.71l3.56-.48c14.57,152.08,12,276-7.76,368.27-18.19,85.15-51.48,145.89-99,180.53-86.9,63.42-220.65,43.21-408.91-61.71-160.49-89.47-334.34-226.52-474-336.63-157.1-123.85-281.19-221.69-306.86-190.92-24.81,29.76,43.57,185.26,215.18,489.4,189.13,335.16,201.46,394.33,188.58,408a9.66,9.66,0,0,1-7.4,2.91c-30.43,0-122.66-92.08-284.25-256.15-307.62-312.37-772.49-784.38-949.43-645.52-107.9,84.71-93.9,391.58,41.53,912.2,132.24,508.29,140.66,808,25.73,916.3C1726,3252,1683.78,3267.18,1631.09,3267.18Z"/><path class="cls-7" d="M1602.48,3229.73c-70.16,0-158.06-24.92-265-74.87-170.5-79.63-365.91-210.53-554.87-337.16-318.35-213.28-619-414.72-722.14-311.9C2.55,2563.59,9.94,2712.8,83.06,2962l-3.36,1.4C6,2712.35-1,2561.61,58.2,2502.54c105-104.7,406.72,97.42,726.18,311.46,188.86,126.53,384.13,257.36,554.43,336.89,192.52,89.92,322.71,98.47,398,26.15,53.85-51.67,80.81-147.4,80.14-284.31-.75-150-34.61-355.39-100.65-610.52-69.23-267.45-105.71-479.7-108.42-630.85-2.46-137.34,22.93-228.24,75.45-270.19,182.18-145.42,652.63,315.49,963.94,620.5,151.23,148.16,270.64,265.25,289.15,245,21.28-23.24-97.14-235.62-188.07-393.34C2572,1547.49,2508.16,1402.8,2535,1369.74c27.74-34.32,148.09,56.59,314.62,182.43,141.22,106.74,317,239.51,479.37,325.09,189.63,100,324.38,117.1,411.88,52.47,98.21-72.53,135.32-253,110.26-536.37l3.55-.45c13.11,148.42,9.33,269.78-11.26,360.71-19,83.94-52.88,144.41-100.68,179.71-88.59,65.42-224.4,48.34-415.19-52.19-162.65-85.72-338.52-218.62-479.85-325.4-158.88-120-284.36-214.87-310.15-183.06-24.69,30.49,43.24,182.47,213.79,478.31,188.19,326.43,200.41,384.8,187.53,398.85a10.19,10.19,0,0,1-7.92,3.15c-31.11,0-123.91-89.36-285.88-248-310.5-304.21-779.73-763.93-959.72-620.21-108.67,86.77-97.09,388.32,34.39,896.27,128,494.73,134.38,788.9,19.34,899.38C1704.8,3213.27,1659.48,3229.73,1602.48,3229.73Z"/><path class="cls-7" d="M1573.42,3193.28c-69.87,0-156.44-22.83-260.91-68.55-173.08-75.74-371.38-202.46-563.14-325-322.79-206.28-627.68-401.13-732.12-294.84C-40.55,2563.68-34.1,2710,37,2952.14l-3.35,1.4c-71.6-244-77.71-391.81-18.66-451.9C121.23,2393.47,427.15,2589,751,2796c191.65,122.48,389.82,249.14,562.69,324.78,195.46,85.56,327.67,90.7,404.19,15.81,53.9-52.74,81.34-147.73,81.56-282.32.25-147.27-32-347.72-95.88-595.79-67.14-260.78-102-468.35-103.54-616.95-1.42-135.1,24.67-225.39,77.54-268.35,185.25-150.56,660.41,298.19,974.82,595.19,152.42,144,272.89,257.7,291.38,236.86,21.27-23.89-96.56-230.79-187.09-384.34-175.32-297.5-238.78-438.87-212.18-472.7,27.83-35.39,149.56,52.67,318.06,174.51,143,103.41,320.86,232.11,485.52,314,192.31,95.57,329.17,109.63,418.43,42.93,98.88-73.88,137.71-251.6,115.4-528.14l3.55-.4c22.45,278.3-16.93,457.33-117,532.12-90.35,67.49-228.25,53.54-421.69-42.61-164.91-82-343-210.75-486-314.23C2700,1410,2573,1318.14,2547.14,1351c-24.54,31.23,43,179.74,212.5,467.38,187.34,317.84,199.46,375.45,186.62,389.85-19.87,22.32-115.19-65.78-296.06-236.62-313.6-296.2-787.48-743.79-970.61-595-109.35,88.89-100.13,385.15,27.41,880.56,123.93,481.33,128.24,770.05,13.18,882.64C1683.8,3175.46,1635.13,3193.27,1573.42,3193.28Z"/><path class="cls-7" d="M1543.9,3157.8c-69.41,0-154.49-20.8-256.3-62.42-175.78-71.84-377.12-194.41-571.83-313C388.33,2583.07,79.05,2394.77-26.71,2504.64c-57.62,59.82-52.06,203.25,17,438.46l-3.36,1.39c-69.56-237-74.78-381.95-15.95-443,107.58-111.73,417.9,77.2,746.44,277.21,194.6,118.47,395.82,241,571.36,312.73,198.52,81.14,332.83,82.89,410.58,5.37,53.9-53.74,81.81-148.05,82.88-280.33,1.19-144.56-29.5-340.1-91.23-581.2-65.07-254.14-98.29-457.1-98.73-603.16-.41-132.91,26.32-222.6,79.48-266.58,188.32-155.83,668.49,281,986.23,570,153.72,139.83,275.14,250.26,293.8,228.73,21.22-24.57-96-226-186.15-375.47-172-285.34-237.09-427.8-211.06-461.94,27.88-36.53,151.1,48.72,321.67,166.69,144.79,100.14,325,224.77,492,302.86,195.11,91.23,334.18,102.14,425.23,33.33,99.49-75.18,140-250.13,120.39-520l3.55-.36c19.74,271.56-21.34,447.84-122,523.94-39.79,30.07-88.58,45.12-147,45.13-76.73,0-170-26-281.47-78.1-167.26-78.21-347.59-202.93-492.48-303.14-162.77-112.57-291.32-201.49-317.27-167.5-24.35,31.94,42.79,177,211.28,456.61,186.48,309.35,198.54,366.18,185.74,381-2.07,2.41-5,3.57-8.87,3.57-34.54,0-139.06-95.06-289.52-232-316.92-288.28-795.84-723.93-982-569.88-52.13,43.13-78.36,131.64-78,263.08.45,145.65,33.62,348.17,98.59,602,119.84,468.1,122.2,751.4,7.23,866C1663,3138.52,1610.71,3157.8,1543.9,3157.8Z"/><path class="cls-7" d="M1513.86,3123.31c-68.77,0-152.16-18.82-251.11-56.47-178.55-67.93-383.12-186.37-580.92-300.9C349.5,2573.49,35.6,2391.73-71.5,2505.2c-57.35,60.79-52.64,201.35,14.36,429.71l-3.36,1.4c-67.58-230.17-71.92-372.21-13.36-434.27,108.84-115.36,423.79,67,757.22,260.07,197.69,114.48,402.1,232.85,580.48,300.69,201.73,76.74,338.19,75,417.18-5.2,53.84-54.7,82.12-148.33,84-278.3,2.13-141.87-27-332.57-86.67-566.73-63-247.64-94.66-446-94-589.61.57-130.74,27.94-219.84,81.34-264.82,191.43-161.25,676.95,263.68,998.24,544.87,155.13,135.77,277.67,243,296.34,220.7,21.16-25.19-95.63-221.37-185.32-366.75-171-277.24-235.81-416.45-210-451.31,27.82-37.65,152.64,44.77,325.39,158.86,146.71,96.89,329.3,217.48,498.77,291.85,198,86.89,339.41,94.63,432.27,23.72,100.06-76.46,142.19-248.69,125.24-511.93l3.56-.32c17.07,264.9-25.61,438.45-126.87,515.82-93.86,71.72-236.29,64.12-435.42-23.27-169.73-74.49-352.46-195.17-499.27-292.13-164.85-108.87-295-194.84-321-159.76-24.13,32.65,42.69,174.36,210.25,446,185.66,301,197.71,357.09,185,372.26-2.19,2.6-5.37,3.86-9.51,3.86-35.34,0-140.45-92-291.45-224.15-320.45-280.51-804.73-704.36-994.07-544.87-52.41,44.15-79.28,132.09-79.84,261.39-.64,143.17,30.95,341.11,93.9,588.35,115.81,455,116.32,732.92,1.55,849.51C1642.32,3102.49,1586.18,3123.31,1513.86,3123.31Z"/><path class="cls-7" d="M1483.24,3089.8c-67.93,0-149.38-16.94-245.28-50.72-181.52-64-389.4-178.35-590.43-288.88C310.08,2564.63-8.67,2389.37-117,2506.54c-57,61.68-53.16,199.39,11.88,421l-3.36,1.4c-65.56-223.39-69.12-362.58-10.91-425.54,110.12-119.06,429.9,56.76,768.45,243,200.92,110.49,408.69,224.73,590,288.67,205.07,72.33,343.77,67.14,424-15.88,53.74-55.61,82.36-148.55,85.07-276.22,3-139.21-24.7-325.09-82.22-552.51-61-241.18-91.06-435-89.42-576.15,1.52-128.61,29.48-217.12,83.09-263.11,194.58-166.89,685.76,246.34,1010.85,519.77,156.58,131.73,280.28,235.8,299,212.75,21.06-25.83-95.25-216.78-184.57-358.15-170.12-269.28-234.62-405.23-209.14-440.81,27.74-38.8,154.25,40.83,329.3,151.07,148.73,93.65,333.83,210.23,505.87,280.87,201,82.56,344.83,87.13,439.55,14,100.56-77.68,144.27-247.23,129.93-503.92l3.55-.28c14.44,258.38-29.81,429.18-131.53,507.75-95.71,73.92-240.5,69.47-442.65-13.5-172.3-70.75-357.53-187.41-506.38-281.14-167.05-105.24-299-188.34-324.94-152.13-23.87,33.34,42.63,171.73,209.28,435.52,184.95,292.75,196.95,348.11,184.28,363.65-2.3,2.82-5.69,4.19-10.19,4.19-36.16,0-141.92-89-293.44-216.42-324.22-272.78-814.19-684.92-1006.7-519.8-52.64,45.16-80.11,132.54-81.61,259.73-1.67,140.69,28.37,334.1,89.27,574.87,111.84,442.16,110.55,714.68-3.93,833.14C1621.82,3067.32,1561.53,3089.8,1483.24,3089.8Z"/><path class="cls-7" d="M1452,3057.26c-66.87,0-146.22-15.09-238.75-45.21-184.58-60.11-396-170.28-600.39-276.87C270,2556.43-53.77,2387.67-163.44,2508.62-220.11,2571.15-217,2706-153.93,2921l-3.35,1.4c-63.59-216.71-66.4-353.06-8.54-416.85,111.36-122.84,436.19,46.51,780.1,225.79,204.31,106.51,415.57,216.64,599.9,276.66,208.57,67.91,349.56,59.18,431-26.69,53.59-56.49,82.52-148.71,86-274.1,3.78-136.55-22.43-317.68-77.89-538.4-59-234.8-87.57-424.18-84.9-562.85,2.45-126.49,30.9-214.44,84.72-261.42,197.71-172.68,695,229,1024,494.73C2835.31,1967,2960.24,2067.89,2979,2044.07c20.94-26.49-94.93-212.25-183.9-349.69-169.28-261.41-233.5-394.18-208.35-430.45,27.75-40,155.91,36.92,333.34,143.3,150.85,90.46,338.61,203,513.3,270,204.24,78.23,350.48,79.63,447.12,4.18,101-78.81,146.28-245.7,134.5-496l3.56-.24c11.86,251.89-33.93,420-136.1,499.81-97.59,76.17-244.84,75-450.15-3.69-175-67-362.87-179.69-513.83-270.24-169.3-101.54-303.08-181.73-329-144.39-23.58,34,42.68,169.12,208.43,425.18,146.58,226.4,201.49,332.63,183.67,355.17-2.42,3.06-6.08,4.53-10.93,4.53-37,0-143.45-86-295.5-208.77C2347,1577.62,1850.93,1177,1655.24,1347.92c-52.85,46.15-80.86,133-83.28,258.09-2.66,138.24,25.85,327.17,84.75,561.55,107.93,429.44,104.93,696.64-9.15,816.88C1601.46,3033,1536.72,3057.26,1452,3057.26Z"/><path class="cls-7" d="M1420,3025.68c-65.57,0-142.5-13.32-231.43-39.91-187.8-56.16-402.84-162.25-610.82-264.84-348.41-171.86-677.49-334.19-788.37-209.4-56.24,63.29-53.86,195.36,7.29,403.72l-3.36,1.4c-61.66-210.09-63.75-343.63-6.4-408.2,112.54-126.67,442.67,36.17,792.17,208.57,207.86,102.51,422.8,208.57,610.35,264.65,212.2,63.46,355.57,51.15,438.29-37.63,53.4-57.31,82.59-148.79,86.79-271.93,4.55-133.91-20.23-310.36-73.68-524.46-57-228.48-84.11-413.4-80.48-549.69,3.33-124.38,32.35-211.78,86.26-259.71,200.88-178.69,704.57,211.49,1037.88,469.68,159.8,123.78,286,221.54,304.79,197,20.76-27.11-94.69-207.81-183.34-341.34-168.42-253.67-232.47-383.28-207.68-420.23,27.61-41.14,157.61,33,337.55,135.54,153.07,87.26,343.58,195.85,521.08,259.06,207.54,73.89,356.35,72,454.93-5.67,101.44-80,148.18-244.21,138.91-488.14l3.56-.19c9.33,245.52-37.95,411-140.51,491.86-99.5,78.45-249.3,80.48-457.91,6.19-177.78-63.29-368.42-172-521.6-259.3-171.74-97.84-307.39-175.21-333.23-136.7-23.25,34.62,42.74,166.51,207.67,415,146.06,220,200.84,323.74,183.17,346.82-20.81,27.16-135.6-61.72-309.36-196.32C2350,1554,1847.59,1164.75,1648.71,1341.64c-53,47.14-81.54,133.42-84.83,256.45-3.62,135.81,23.41,320.3,80.34,548.36,104.06,416.89,99.44,678.8-14.14,800.71C1581.28,2999.55,1511.77,3025.68,1420,3025.68Z"/><path class="cls-7" d="M1387.17,2995.08c-64,0-138.24-11.65-223.29-34.88-191.1-52.2-410-154.18-621.67-252.78-354.26-165-688.85-320.9-800.94-192.24-55.76,64-54.07,193.26,5.19,395.15l-3.36,1.4c-59.76-203.61-61.18-334.32-4.27-399.6,113.72-130.55,449.35,25.81,804.7,191.35,211.57,98.55,430.33,200.46,621.17,252.6,216,59,361.8,43.07,445.77-48.69,53.15-58.08,82.57-148.8,87.43-269.66,5.3-131.31-18.11-303.1-69.56-510.69-55.08-222.24-80.7-402.79-76.12-536.66,4.17-122.3,33.66-209.11,87.65-258,204.1-184.85,714.58,194,1052.38,444.65,161.52,119.87,289.11,214.56,307.86,189.24,20.58-27.75-94.49-203.4-182.82-333.1-167.6-246.07-231.47-372.58-207.07-410.17,27.45-42.3,159.34,29.06,341.9,127.83,155.37,84.08,348.75,188.71,529.18,248.21,211,69.56,362.43,64.47,463-15.58,101.8-81,150-242.62,143.19-480.32l3.55-.15c6.84,239.26-41.87,402.1-144.76,484-101.48,80.77-253.89,86-465.94,16.09-180.69-59.57-374.18-164.27-529.7-248.4-174.29-94.29-311.88-168.75-337.61-129.1-22.9,35.27,42.89,163.93,207,404.93,145.59,213.73,200.24,315,182.76,338.57-2.65,3.58-6.86,5.29-12.54,5.3-38.81,0-146.66-80-299.87-193.74-337-250.06-846.27-628-1048.37-444.9-53.11,48.1-82.13,133.84-86.26,254.82-4.54,133.39,21,313.5,76,535.29,51.57,208,75,380.37,69.72,512.09-4.92,122-34.72,213.72-88.59,272.57C1561.19,2967,1486.59,2995.08,1387.17,2995.08Z"/><path class="cls-7" d="M1353.47,2965.41c-62.09,0-133.34-10-214.21-30.09-194.55-48.21-417.45-146.07-633-240.7-360.34-158.19-700.7-307.6-814-175-55.2,64.64-54.15,191.1,3.22,386.6l-3.35,1.4c-57.87-197.22-58.65-325.12-2.37-391,114.87-134.49,456.26,15.38,817.69,174,215.44,94.57,438.2,192.37,632.5,240.52,219.92,54.5,368.25,34.93,453.48-59.86,52.84-58.79,82.44-148.73,88-267.33,6-128.65-16.07-295.88-65.57-497.05-53.16-216.07-77.36-392.29-71.91-523.77,5-120.24,34.9-206.48,88.92-256.31,207.3-191.22,725,176.35,1067.51,419.58,163.36,116,292.37,207.59,311.09,181.51,20.35-28.36-94.38-199.08-182.45-325-166.84-238.56-230.55-362-206.59-400.19,27.29-43.49,161.15,25.14,346.44,120.12,157.76,80.89,354.16,181.57,537.63,237.32,214.58,65.23,368.76,56.85,471.36-25.55,102.08-82,151.65-241,147.28-472.57l3.56-.09c4.39,233-45.69,393.3-148.88,476.18-103.49,83.13-258.61,91.67-474.23,26.15-183.71-55.84-380.23-156.59-538.14-237.54-176.87-90.65-316.56-162.3-342.17-121.48-22.49,35.87,43.12,161.37,206.47,395,145.12,207.55,199.7,306.36,182.43,330.44-2.77,3.86-7.28,5.7-13.43,5.7-39.76,0-148.37-77.09-302.19-186.32-341.72-242.64-858.13-609.31-1063.49-419.87-53.16,49-82.62,134.22-87.55,253.17-5.44,131,18.7,306.74,71.73,522.37,49.61,201.62,71.71,369.36,65.71,498.48-5.58,119.73-35.57,210.63-89.09,270.19C1541.26,2935.16,1461.16,2965.4,1353.47,2965.41Z"/><path class="cls-7" d="M1318.78,2936.71q-89.76,0-204.12-25.58c-198.13-44.21-425.17-137.93-644.81-228.56-366.68-151.35-713-294.3-827.43-157.7-54.59,65.23-54.15,188.91,1.43,378.08l-3.36,1.4c-56-190.9-56.2-316-.54-382.47,116-138.47,463.34,4.89,831.1,156.72,219.48,90.58,446.43,184.25,644.3,228.4,224,50,374.94,26.71,461.4-71.16,52.51-59.43,82.24-148.56,88.37-264.9,6.64-126-14.11-288.74-61.68-483.59-51.26-210-74.06-381.9-67.78-511,5.76-118.17,36.06-203.82,90.06-254.56C1836.21,1124,2361.43,1480.38,2709,1716.22c165.27,112.14,295.84,200.71,314.42,173.84,15.3-22-42.57-122.77-182.11-317-166.1-231.18-229.7-351.58-206.23-390.37,27-44.67,163,21.23,351.12,112.43,160.35,77.72,359.84,174.42,546.42,226.46,218.29,60.85,375.29,49.21,480-35.58,102.38-83,153.29-239.35,151.29-464.88l3.56,0c2,227-49.42,384.64-152.85,468.42-105.55,85.51-263.47,97.36-482.79,36.21-186.85-52.09-386.5-148.88-546.92-226.65C2805.27,1212,2663.4,1143.19,2638,1185.17c-22.05,36.43,43.39,158.81,206,385.15,144.74,201.43,199.22,297.86,182.18,322.44-2.89,4.16-7.72,6.15-14.39,6.15-40.74,0-150.14-74.23-304.58-179-346.74-235.26-870.71-590.82-1079.33-394.82-53.17,50-83,134.56-88.71,251.48-6.27,128.62,16.49,300.06,67.64,509.57,47.66,195.33,68.48,358.52,61.82,485-6.19,117.44-36.28,207.55-89.48,267.7C1521.43,2904.23,1435.46,2936.71,1318.78,2936.71Z"/><path class="cls-7" d="M1283,2909q-85.85,0-192.93-21.37C888.24,2847.44,656.82,2757.87,433,2671.24,59.72,2526.78-292.87,2390.29-408.38,2530.9c-53.94,65.66-54.07,186.56-.34,369.59l-3.36,1.4c-54.21-184.67-53.82-307,1.16-374,117.05-142.48,470.66-5.61,845,139.28,223.68,86.6,455,176.11,656.59,216.21,228.25,45.45,381.84,18.42,469.54-82.57,52.12-60,81.94-148.3,88.64-262.39,7.25-123.42-12.23-281.64-57.91-470.28-49.39-204-70.84-371.64-63.75-498.38,6.49-116.14,37.13-201.19,91-252.79C1832,1112.54,2365.21,1457.82,2718,1686.3c167.29,108.33,299.42,193.9,318,166.23,15.08-22.48-42.73-120.7-181.9-309.1-165.42-223.92-228.93-341.32-205.93-380.67,26.8-45.84,164.86,17.34,355.95,104.77,162.9,74.55,365.69,167.33,555.53,215.6,222.16,56.49,382.07,41.56,488.88-45.66,102.61-83.79,154.8-237.64,155.14-457.26h3.55c-.33,221.1-53.05,376.13-156.68,460.75-107.66,87.9-268.47,103.06-491.64,46.3-190.11-48.34-393-141.18-556.06-215.78-182.42-83.45-326.53-149.39-351.73-106.28-21.6,37,43.75,156.26,205.68,375.45,144.37,195.42,198.8,289.5,182,314.54-3,4.49-8.2,6.62-15.42,6.62-41.76,0-152-71.35-307-171.77-352-227.94-884-572.4-1095.86-369.71-53.13,50.83-83.33,134.87-89.75,249.77-7.07,126.22,14.34,293.44,63.61,496.91,45.8,189.13,65.33,347.86,58.05,471.77-6.77,115.16-37,204.36-89.72,265.15C1501.72,2874.11,1409.45,2909,1283,2909Z"/><path class="cls-7" d="M-465.4,2900.27c-52.43-178.61-51.54-298.19,2.72-365.48,118.09-146.56,478.17-16.2,859.39,121.79,228,82.54,463.89,167.9,669.34,204,232.62,40.84,389,10.07,477.92-94.11,51.68-60.53,81.55-147.93,88.79-259.76,7.82-120.81-10.45-274.63-54.27-457.16-47.54-198-67.67-361.46-59.82-485.86,7.2-114.1,38.14-198.54,92-251,217-211.36,758.59,122.83,1117,344,169.4,104.52,303.19,187.11,321.62,158.65,14.82-22.87-42.93-118.65-181.76-301.3-164.76-216.79-228.22-331.23-205.76-371.09,26.49-47,166.79,13.44,360.95,97.11,165.64,71.37,371.79,160.19,565,204.72,226.17,52.1,389.11,33.88,498.06-55.81,102.79-84.57,156.23-235.86,158.83-449.67l3.56.06c-2.63,215.25-56.58,367.7-160.37,453.09-109.81,90.34-273.61,108.82-500.76,56.48-193.49-44.58-399.79-133.47-565.54-204.89-185.39-79.88-331.83-143-356.79-98.73-21.1,37.45,44.19,153.71,205.45,365.89,142.11,187,198.22,281.56,181.93,306.72-3.12,4.83-8.68,7.13-16.5,7.13-42.82,0-153.85-68.52-309.56-164.61C2368.41,1439.85,1828,1106.39,1612.88,1316c-53,51.67-83.54,135.11-90.66,248-7.83,123.89,12.27,286.85,59.69,484.36,43.95,183,62.24,337.34,54.39,458.66-7.3,112.88-37.53,201.18-89.84,262.45-89.79,105.17-247.1,136.34-480.94,95.29-205.7-36.12-441.65-121.53-669.83-204.12C15.55,2523-343.52,2393.06-460.08,2537.72c-53.24,66.07-53.87,184.19-1.93,361.16Z"/><path class="cls-7" d="M-519.58,2899.46c-50.66-172.63-49.29-289.42,4.19-357.05,119.08-150.58,485.9-26.79,874.26,104.25,232.62,78.49,473.15,159.67,682.58,191.65,237.2,36.23,396.34,1.63,486.51-105.74,51.22-61,81.1-147.45,88.83-257,8.34-118.21-8.72-267.7-50.73-444.19-45.73-192.13-64.57-351.44-56-473.48,7.85-112,39-195.91,92.7-249.11,220.21-218.39,770.64,104.82,1134.87,318.7,171.6,100.77,307.14,180.35,325.4,151.12,14.55-23.31-43.17-116.61-181.68-293.6-164.16-209.77-227.6-321.25-205.72-361.63,26.16-48.15,168.75,9.57,366.12,89.46,168.45,68.2,378.1,153.06,574.82,193.82,230.3,47.72,396.32,26.12,507.52-66,102.94-85.27,157.58-234,162.41-442.14l3.56.12c-4.87,209.53-60,359.42-163.93,445.49-112,92.79-278.88,114.6-510.14,66.69-197-40.81-406.79-125.74-575.37-194-188.47-76.29-337.32-136.56-362-91.17-20.58,37.89,44.66,151.15,205.31,356.44,141.81,181.2,197.91,273.42,181.93,299-3.24,5.19-9.19,7.63-17.68,7.63-43.92,0-155.79-65.69-312.14-157.5-363.41-213.38-912.6-535.88-1131-319.27-52.89,52.52-83.65,135.33-91.43,246.23-8.54,121.55,10.28,280.34,55.88,472,42.12,177,59.23,327,50.85,445.7-7.83,110.6-38,198-89.85,259.66-91,108.36-251.12,143.36-489.49,107-209.69-32-450.36-113.26-683.08-191.78C-29.4,2520.05-395.2,2396.59-512.82,2545.32c-52.47,66.36-53.59,181.74-3.42,352.74Z"/><path class="cls-7" d="M-574.61,2899.46c-48.93-166.75-47.12-280.78,5.52-348.62,54.89-70.72,163-90.35,340.1-61.76,157.12,25.36,347.7,85.11,549.47,148.38,237.34,74.42,482.76,151.37,696.32,179.23,241.92,31.56,403.94-6.86,495.33-117.48,50.68-61.34,80.54-146.85,88.74-254.14,8.83-115.61-7.12-260.74-47.32-431.39-43.93-186.37-61.52-341.51-52.29-461.22,8.5-110.06,39.9-193.22,93.33-247.16,223.46-225.61,783.14,86.64,1153.5,293.27,173.89,97,311.24,173.66,329.32,143.63,14.26-23.72-43.47-114.59-181.7-286-163.62-202.88-227-311.53-205.71-352.28,25.79-49.3,170.78,5.7,371.45,81.81,171.38,65,384.66,145.9,585,182.86,234.59,43.29,403.79,18.36,517.27-76.24,103.05-85.88,158.84-232.11,165.84-434.66l3.56.17c-7,203.93-63.36,351.28-167.36,438-114.26,95.21-284.3,120.37-519.83,76.92-200.61-37-414-118-585.52-183-191.65-72.69-343-130.1-367.35-83.6-20,38.29,45.19,148.59,205.25,347.11,141.57,175.53,197.68,265.4,182,291.41-3.35,5.58-9.75,8.21-18.95,8.21-45.06,0-157.8-62.89-314.77-150.47-369.54-206.17-928-517.7-1149.69-293.87-52.71,53.2-83.69,135.41-92.09,244.31-9.19,119.2,8.36,273.86,52.17,459.69,40.35,171.13,56.31,316.83,47.43,432.89-8.27,108.32-38.47,194.71-89.73,256.77-92.21,111.59-255.18,150.42-498.25,118.71C802.6,2793,557.05,2716,319.58,2641.56c-394.69-123.75-767.47-240.65-886.06-87.85-51.66,66.59-53.23,179.22-4.77,344.35Z"/><path class="cls-7" d="M-630.51,2900.27c-47.24-160.95-45-272.27,6.73-340.23,55.29-72.58,165-94.66,345.36-69.47,160,22.33,354.26,78.72,560,138.42,242.25,70.31,492.74,143,710.59,166.71,246.84,26.86,411.79-15.44,504.4-129.32,105-129.19,119.62-348.35,44.53-670-42.16-180.62-58.54-331.7-48.68-449.08,9.07-108,40.63-190.5,93.79-245.13,226.68-233,796.06,68.34,1172.83,267.69,176.31,93.29,315.56,167,333.41,136.19,13.95-24.07-43.82-112.57-181.8-278.52-163-196.12-226.49-301.91-205.86-343.06,25.37-50.41,172.87,1.86,376.94,74.19,174.4,61.84,391.45,138.72,595.52,171.9,239,38.85,411.52,10.56,527.33-86.5,103.15-86.41,160.06-230.19,169.16-427.27l3.56.22c-9.16,198.48-66.59,343.34-170.64,430.51-116.58,97.71-289.9,126.22-529.86,87.26-204.34-33.23-421.54-110.2-596.06-172-194.92-69.08-348.92-123.68-372.87-76.06-19.44,38.65,45.79,146,205.3,337.88,141.31,170,197.51,257.53,182.21,283.91-3.48,6-10.33,8.78-20.31,8.78-46.24,0-159.87-60.15-317.49-143.51-187.92-99.44-421.83-223.2-639.77-294.61-257-84.21-430.14-75.62-529.25,26.26-52.47,53.87-83.62,135.37-92.61,242.32-9.81,116.85,6.53,267.41,48.58,447.52,38.61,165.37,53.45,306.79,44.1,420.33-8.71,106-38.83,191.45-89.52,253.74-93.4,114.87-259.34,157.57-507.28,130.61-218.11-23.72-468.73-96.48-711.1-166.82-402.34-116.77-782.37-227-901.88-70.19-50.82,66.7-52.78,176.6-6,336Z"/><path class="cls-7" d="M-687.33,2901.89c-45.58-155.32-43-263.88,7.83-331.86,55.68-74.43,167.17-99,350.76-77.24,162.91,19.28,361.08,72.27,570.88,128.39,247.33,66.16,503.08,134.56,725.35,154.08,251.82,22.1,419.87-24.08,513.68-141.24,103.72-129.54,119.22-343.61,47.4-654.46-40.44-175-55.64-322-45.2-437.08,9.63-106,41.31-187.78,94.15-243,101.52-106.15,278.63-119.25,541.49-40,222.07,66.93,460.13,186.19,651.42,282,178.81,89.58,320.06,160.32,337.66,128.77,13.61-24.4-44.22-110.55-182-271.09-162.55-189.46-226.1-292.44-206-333.92,24.9-51.5,174.93-2,382.59,66.56,177.53,58.6,398.48,131.53,606.39,160.89,243.59,34.4,419.47,2.73,537.66-96.81C4349.86,1109,4407.86,967.68,4419,775.93l3.56.29c-11.26,193.08-69.72,335.47-173.82,423.08-118.93,100.14-295.61,132-540.12,97.52-208.19-29.39-429.28-102.37-606.92-161-198.35-65.46-355-117.17-378.56-68.52-18.84,39,46.44,143.44,205.45,328.78,141.11,164.46,197.38,249.74,182.45,276.5-19.2,34.48-147.63-29.85-342-127.22-191.18-95.77-429.1-215-650.9-281.81-261.63-78.86-437.7-66.08-538.27,39.09-52.15,54.54-83.43,135.39-93,240.32-10.4,114.5,4.76,261,45.08,435.49,36.9,159.71,50.67,297,40.93,407.9-9.11,103.76-39.13,188.06-89.18,250.61-94.61,118.13-263.54,164.75-516.52,142.54-222.53-19.55-478.41-88-725.87-154.18-410.29-109.74-797.81-213.4-918.21-52.47-49.91,66.73-52.25,173.91-7.11,327.65Z"/><path class="cls-7" d="M-745.09,2904.33c-44-149.78-41.06-255.61,8.85-323.53,56-76.24,169.25-103.29,356.27-85,166,16.22,368.1,65.8,582.12,118.31,252.59,62,513.8,126,740.64,141.31,257,17.35,428.19-32.79,523.2-153.25,102.32-129.72,118.69-338.75,50.06-639-38.73-169.43-52.8-312.48-41.81-425.18,10.13-104,41.85-185,94.36-240.84,102.92-109.49,283.06-126.84,550.7-53,226.09,62.35,468.37,177.05,663,269.19,181.4,85.87,324.7,153.69,342,121.4,13.25-24.72-44.65-108.55-182.24-263.82C2780,1187.94,2716.39,1087.73,2735.78,1046c24.41-52.53,177.09-5.79,388.4,58.94,180.77,55.38,405.74,124.28,617.64,149.81,248.31,29.92,427.66-5.08,548.29-107.15,103.2-87.25,162.19-226.1,175.41-412.65l3.56.35c-13.3,187.86-72.81,327.72-176.9,415.74-121.36,102.63-301.48,137.94-550.72,107.91-212.16-25.56-437.27-94.52-618.17-149.94-201.88-61.84-361.34-110.68-384.41-61-18.23,39.25,47.13,140.86,205.67,319.79,140.95,159.07,197.33,242.08,182.82,269.17-18.9,35.24-149.16-26.42-346.31-119.75-194.58-92.1-436.72-206.7-662.55-269-266.42-73.49-445.52-56.47-547.53,52-51.81,55.07-83.16,135.25-93.19,238.17-10.93,112.16,3.1,254.67,41.71,423.57,35.24,154.18,48,287.3,37.85,395.67-9.48,101.49-39.34,184.68-88.75,247.37-95.76,121.42-267.81,172-526,154.58-227.1-15.31-488.43-79.42-741.15-141.41-418.5-102.65-813.8-199.61-935-34.65-49,66.68-51.66,171.12-8.16,319.37Z"/><path class="cls-7" d="M-803.79,2907.6c-42.37-144.36-39.18-247.48,9.74-315.24,56.39-78.11,171.4-107.59,361.9-92.78,169.09,13.13,375.36,59.3,593.74,108.13,258.06,57.72,524.9,117.42,756.45,128.44,262.43,12.45,436.78-41.58,533-165.34,100.83-129.73,118-333.71,52.5-623.6-37.07-164-50-303.07-38.54-413.4,10.61-102,42.38-182.23,94.44-238.55,104.32-112.88,287.57-134.52,560.18-66.15,230.23,57.72,476.93,167.83,675.15,256.29,184.1,82.18,329.52,147.08,346.53,114,12.89-25-45.13-106.53-182.58-256.61-161.69-176.56-225.44-274-206.73-316,23.86-53.57,179.26-9.57,394.38,51.35,184.1,52.13,413.22,117,629.23,138.7,253.2,25.41,436.12-13,559.25-117.51,103.2-87.57,163.21-224,178.37-405.47l3.56.42c-15.26,182.75-75.77,320.21-179.84,408.5C4213,1207.91,4029.35,1246.6,3775.26,1221.1c-216.25-21.71-445.53-86.63-629.76-138.8-205.51-58.19-367.84-104.19-390.41-53.48-17.58,39.46,47.88,138.26,206,310.89,140.85,153.77,197.33,234.55,183.22,262-3.78,7.32-12.27,10.71-25.07,10.71-50.12,0-166.39-51.89-325.75-123-198.1-88.42-444.65-198.45-674.63-256.16-271.42-68.07-453.64-46.76-557.06,65.15-107.3,116.1-125.76,334-54.86,647.74,33.61,148.74,45.35,277.81,34.86,383.61-9.81,99.21-39.49,181.29-88.21,244-96.94,124.71-272.15,179.22-535.71,166.69-231.8-11-498.78-70.76-757-128.52-427-95.51-830.3-185.73-952.29-16.75-48,66.52-51,168.28-9.08,311.09Z"/><path class="cls-7" d="M-863.49,2911.69c-40.81-139.07-37.36-239.49,10.55-307,56.71-79.93,173.57-111.87,367.66-100.56,172.31,10,382.85,52.72,605.76,97.89,263.69,53.44,536.36,108.7,772.76,115.43,268,7.58,445.57-50.43,542.93-177.47,99.29-129.61,117.19-328.55,54.73-608.24-35.42-158.6-47.32-293.79-35.38-401.82,11.06-100,42.81-179.38,94.39-236.14,105.73-116.31,292.15-142.32,569.93-79.39,234.57,53.11,485.87,158.62,687.74,243.4,186.91,78.48,334.54,140.47,351.23,106.74,12.48-25.26-45.67-104.54-183-249.51-161.32-170.27-225.23-265-207.21-307.21,23.28-54.58,181.52-13.33,400.49,43.74,187.56,48.84,421,109.65,641.16,127.48,258.23,20.89,444.81-21,570.52-127.88C4484,963.35,4544.93,829.31,4562,652.76l3.56.49C4548.36,831,4486.9,966.07,4382.84,1054.6c-126.38,107.53-313.71,149.61-572.79,128.66-220.52-17.84-454-78.7-641.69-127.61-209.26-54.54-374.54-97.61-396.58-46-16.92,39.64,48.66,135.64,206.4,302.13,140.74,148.55,197.4,227.14,183.71,254.83-3.87,7.82-13,11.42-26.94,11.42-51.51,0-168.67-49.19-328.53-116.32-201.8-84.71-452.92-190.18-687.22-243.22-276.59-62.63-462-37-566.88,78.35-106.27,116.9-125.78,330.15-58,633.74,32,143.44,42.81,268.54,32,371.76-10.09,96.93-39.55,177.82-87.55,240.51-92.41,120.59-256.23,179.5-499.91,179.5q-22.41,0-45.72-.66c-236.66-6.77-509.46-62-773.25-115.49-435.77-88.31-847.37-171.73-970.11,1.23-47,66.27-50.26,165.35-9.91,302.87Z"/><path class="cls-7" d="M-924.14,2916.62c-39.29-133.85-35.61-231.63,11.24-298.8,57-81.71,175.71-116.11,373.52-108.33,175.63,6.93,390.54,46.09,618.13,87.55,269.52,49.14,548.22,99.88,789.61,102.26,273.73,2.75,454.63-59.34,553.14-189.67,97.7-129.24,116.26-323.22,56.77-593-65.12-295.27-44.3-505.2,61.89-623.95,107.1-119.79,296.81-150.11,580-92.73,239.06,48.45,495.11,149.35,700.84,230.42,189.79,74.79,339.7,133.85,356,99.46,12.09-25.48-46.24-102.51-183.53-242.46-161-164.14-225.09-256.22-207.78-298.57,22.67-55.51,183.82-17,406.9,36.17,191.07,45.57,428.88,102.33,653.46,116.22,263.32,16.31,453.73-28.9,582-138.26,103.15-88,165.09-219.62,184-391.37l3.56.55c-19.09,173-81.49,305.6-185.5,394.26-129,109.92-320.08,155.43-584.3,139.05-224.84-13.93-462.78-70.71-654-116.33-213.14-50.82-381.49-91-403-38.46-16.25,39.77,49.5,133,206.9,293.49,140.69,143.42,197.53,219.84,184.29,247.77-17.72,37.43-154-16.25-360.21-97.52-205.63-81-461.53-181.88-700.33-230.28-282-57.14-470.71-27.17-576.92,91.64-105.15,117.61-125.63,326.15-60.87,619.79,30.49,138.26,40.34,259.41,29.29,360.09-10.39,94.67-39.62,174.35-86.86,236.85-99.23,131.31-281,193.91-555.81,191.07-241.66-2.38-520.49-53.19-790.13-102.3-444.83-81.06-865-157.57-988.37,19.28-46,65.94-49.48,162.33-10.63,294.7Z"/><path class="cls-7" d="M-985.85,2922.39c-37.81-128.83-33.93-223.89,11.86-290.64,57.27-83.48,177.89-120.37,379.49-116.06,179.05,3.81,398.53,39.42,630.9,77.09,275.54,44.7,560.51,91,807,88.95,279.56-2.28,463.92-68.31,563.57-201.9,96-128.76,115.2-317.77,58.6-577.85-62.14-285.49-40.43-490.72,64.52-610,108.47-123.3,301.53-158,590.26-106.23,243.7,43.78,504.73,140,714.43,217.39,192.78,71.11,345.11,127.28,361,92.19,11.65-25.68-46.84-100.51-184.08-235.5-160.77-158.12-225-247.56-208.43-290,22-56.4,186.15-20.74,413.31,28.6,194.72,42.28,437.07,94.93,666.12,104.94,268.67,11.76,462.92-36.87,593.89-148.64,103.14-88,166-217.37,186.69-384.42l3.52.62c-20.89,168.2-84.19,298.49-188.15,387.21-118.87,101.45-289.43,151.15-519.78,151.15q-37.12,0-76.27-1.69c-229.32-10-471.8-62.69-666.64-105-217.13-47.14-388.61-84.38-409.5-31-15.57,39.81,50.37,130.37,207.5,284.94,140.67,138.4,197.71,212.63,184.95,240.81-17.31,38.12-155.7-12.9-365.2-90.17S2363.29,1233.68,2119.84,1190c-287.53-51.61-479.64-17.26-587.26,105-103.95,118.14-125.32,322-63.54,605.87,29,133.19,38,250.49,26.67,348.62-10.64,92.39-39.59,170.82-86.08,233.11-100.35,134.52-285.55,201-566.2,203.31C596.59,2688,311.56,2641.69,35.89,2597c-454.16-73.7-883.14-143.32-1007.15,37.43-44.94,65.51-48.63,159.27-11.26,286.57Z"/><path class="cls-7" d="M-1048.61,2928.92c-36.36-123.91-32.3-216.33,12.39-282.56,57-84.42,177.84-123.82,380-123.82h5.63c182.55.65,406.71,32.69,644,66.6,281.76,40.26,573.14,81.9,825,75.46,285.63-7.28,473.46-77.34,574.24-214.15,94.33-128.09,114-312.18,60.26-562.79-59.22-275.86-36.7-476.39,66.92-596,109.82-126.78,306.35-165.94,600.83-119.71,248.52,39,514.68,130.63,728.56,204.23,195.91,67.42,350.65,120.67,366.14,85,11.06-25.49-49.37-100.28-184.73-228.67-160.52-152.25-225-239.08-209.19-281.57,21.34-57.23,188.54-24.39,420,21.05,271,53.19,608.15,119.44,898.68,84.66,344-41.12,532.37-213.76,575.82-527.78l3.51.69c-23.24,167.92-90.2,298.19-199,387.25-93.64,76.64-221.48,125.11-380,144-291,34.79-628.46-31.47-899.61-84.72-221.23-43.43-395.91-77.73-416.15-23.5-14.87,39.87,51.28,127.73,208.16,276.53,140.7,133.45,198,205.6,185.67,233.93-4.1,9.46-15.56,13.73-33.61,13.73-56.05,0-175.71-41.18-336.68-96.57-213.75-73.56-479.78-165.11-728-204.08-293.32-46-488.9-7.28-597.89,118.55-102.63,118.53-124.81,317.67-65.92,592,27.53,128.26,35.65,241.77,24.14,337.37-10.85,90.12-39.51,167.25-85.17,229.25-101.46,137.76-290.14,208.29-576.84,215.61-252.13,6.43-543.59-35.21-825.46-75.49-463.81-66.28-901.88-128.89-1026.43,55.65-43.87,65-47.73,156.1-11.81,278.52Z"/><path class="cls-7" d="M-1112.44,2936.32c-35-119.1-30.75-208.9,12.8-274.52,57.72-86.91,182.23-128.71,391.81-131.54,186.09-2.54,415.13,25.91,657.56,56C237.89,2622,535.9,2659,793.19,2648.09c291.87-12.36,483.27-86.41,585.14-226.45,92.59-127.26,112.77-306.45,61.73-547.81-56.36-266.44-33.1-462.29,69.12-582.11,111.17-130.3,311.25-173.92,611.7-133.33,253.51,34.26,525,121.14,743.2,191,199.08,63.72,356.34,114.06,371.38,77.77,10.67-25.62-50-98.23-185.44-221.91C2889.68,1058.75,2824.9,974.49,2840,932c20.63-58,191-28,426.82,13.49,274.74,48.36,616.67,108.56,912.22,70,350-45.61,543.21-218.42,590.66-528.3l3.51.76c-25.39,165.7-94.79,295-206.24,384.32-95.92,76.81-226.32,126.42-387.53,147.41-296,38.56-638.18-21.67-913.13-70.06-225.41-39.68-403.45-71-423-16-14.17,39.81,52.21,125.07,208.91,268.22C3193,1330.47,3250.51,1400.52,3238.71,1429c-16.32,39.42-159.21-6.32-375.49-75.54-218-69.8-489.42-156.66-742.67-190.88-299.29-40.44-498.45,2.79-608.8,132.15-101.3,118.7-124.24,313.19-68.22,578.07,26.12,123.45,33.44,233.24,21.74,326.33-11,87.86-39.38,163.66-84.21,225.34-102.56,140.95-294.79,215.5-587.71,227.87-257.58,10.92-555.67-26.07-843.94-61.84-473.73-58.78-921.18-114.29-1046.22,74-42.77,64.38-46.78,152.87-12.27,270.5Z"/><path class="cls-7" d="M-1177.37,2944.53c-33.58-114.42-29.26-201.62,13.21-266.54,57.9-88.57,184.41-132.81,398.13-139.22,189.84-5.69,423.81,19.05,671.53,45.26,294.75,31.17,599.53,63.41,862.49,48,298.28-17.48,493.32-95.57,596.27-238.74,90.8-126.28,111.41-300.6,63-532.95-53.57-257.19-29.65-448.36,71.08-568.2,112.5-133.85,316.22-181.93,622.85-147,258.66,29.44,535.73,111.61,758.35,177.64,202.38,60,362.22,107.43,376.79,70.59,10.15-25.69-50.78-96.09-186.28-215.17-160.27-140.9-225.33-222.64-210.93-265.06,19.92-58.73,193.49-31.59,433.79,5.93,278.61,43.58,625.43,97.78,926.13,55.46,356.13-50.12,554.26-223.17,605.74-529l3.48.84c-27.52,163.54-99.36,291.89-213.49,381.46-98.26,77.09-231.24,127.92-395.28,151-301.16,42.36-648.19-11.86-927-55.43-229.72-35.91-411.17-64.27-430-8.58-13.46,39.78,53.18,122.41,209.75,260.07,140.9,123.86,198.68,191.84,187.38,220.43-15.82,40-161-3.09-380.86-68.29-222.55-66-499.48-148.16-757.87-177.59-305.5-34.74-508.29,12.92-620,145.81-99.79,118.71-123.4,308.54-70.15,564.19,24.73,118.76,31.3,224.91,19.41,315.48-11.2,85.56-39.19,160-83.18,221.23-103.63,144.11-299.49,222.68-598.8,240.21-263.2,15.42-568.11-16.83-863-48-483.93-51.2-941-99.56-1066.51,92.34-41.67,63.71-45.81,149.59-12.66,262.54Z"/><path class="cls-7" d="M-1243.42,2953.6c-32.24-109.87-27.83-194.48,13.51-258.65,58.07-90.18,186.63-136.84,404.59-146.86,193.65-8.88,432.71,12.14,685.81,34.42,301.55,26.54,613.36,54,882.09,34,304.85-22.63,503.62-104.75,607.63-251,89-125.14,110-294.65,64.16-518.22-50.84-248.13-26.32-434.63,72.84-554.34,60.47-73,150.2-122.83,266.68-148.12,100.27-21.76,223.94-26,367.58-12.67,264,24.57,546.78,102,774,164.2,205.78,56.31,368.31,100.81,382.37,63.44,9.7-25.76-51.52-94-187.16-208.63-160.21-135.35-225.57-214.59-212-256.92,19.11-59.4,196.06-35.13,441-1.56,282.67,38.75,634.47,87,940.47,40.84,362.42-54.64,565.57-228,621.08-530l3.47.9c-29.68,161.48-104,288.92-220.93,378.81-100.63,77.36-236.27,129.34-403.17,154.5-306.43,46.19-658.46-2.06-941.33-40.83-243.28-33.35-419.11-57.46-437.23-1.13-12.75,39.66,54.19,119.72,210.67,252,141.06,119.19,199.15,185.13,188.35,213.8-15.27,40.53-162.9.12-386.41-61-227.14-62.16-509.81-139.52-773.52-164.1-311.9-29.06-518.42,23.12-631.44,159.53-98.26,118.6-122.46,303.76-71.92,550.37,23.4,114.21,29.16,216.79,17.21,304.88-11.34,83.36-39,156.4-82.11,217.07-104.68,147.21-304.25,229.82-610.12,252.53-269,20-580.9-7.49-882.57-34-494.44-43.52-961.48-84.64-1087.31,110.78-40.55,63-44.81,146.27-13,254.68Z"/><path class="cls-7" d="M-1310.64,2963.51c-30.95-105.45-26.46-187.49,13.73-250.84,58.2-91.74,188.84-140.82,411.17-154.47,197.53-12.11,441.86,5.18,700.53,23.48,308.54,21.83,627.58,44.42,902.22,19.87,311.62-27.85,514.18-114,619.24-263.32,85.93-122.14,107.85-291.58,65.14-503.62-48.2-239.26-23.18-421.12,74.37-540.51,61.18-74.87,152.34-126.91,271-154.71,102.18-23.92,228.35-30.61,374.92-19.9,269.45,19.68,558.18,92.29,790.23,150.61,209.27,52.59,374.56,94.14,388.1,56.31,9.25-25.79-52.3-91.9-188.12-202.11-160.19-130-225.88-206.75-213-248.93,18.31-60,198.68-38.63,448.3-9.08,286.81,34,643.75,76.24,955.17,26.26,368.84-59.19,577.09-233,636.67-531.15l3.46,1c-31.84,159.44-108.69,286-228.43,376.29-103,77.66-241.39,130.85-411.21,158.1-311.83,50-669,7.75-956-26.26-248-29.38-427.24-50.59-444.6,6.3-12.06,39.51,55.2,117,211.66,244,141.24,114.63,199.64,178.56,189.36,207.29-14.69,41-164.84,3.29-392.11-53.83-231.9-58.3-520.53-130.84-789.73-150.53-318.48-23.29-528.85,33.4-643.17,173.32-96.65,118.3-121.35,298.82-73.46,536.58,43,213.42,20.81,384.11-65.88,507.32-105.71,150.26-309.07,236.9-621.69,264.84-274.88,24.56-594.06,2-902.72-19.88-505.26-35.75-982.5-69.52-1108.64,129.32-39.41,62.13-43.73,142.89-13.21,246.9Z"/><path class="cls-7" d="M-1379,2974.25c-29.68-101.14-25.14-180.66,13.9-243.13,58.29-93.25,191.06-144.73,417.84-162,201.53-15.35,451.26-1.86,715.63,12.42,315.73,17.06,642.22,34.74,922.93,5.53,318.55-33.11,525-123.25,631.07-275.59,84.09-120.73,106.28-285.3,66-489.14-45.62-230.61-20.13-407.84,75.74-526.77,61.86-76.7,154.51-131,275.44-161.25,104.11-26.09,232.79-35.24,382.5-27.2,275.12,14.78,570,82.48,807,136.89,212.87,48.88,381,87.47,394,49.22,8.77-25.79-53.1-89.8-189.14-195.69-160.27-124.73-226.3-199.07-214.2-241.06,17.48-60.53,201.31-42.09,455.81-16.57,291.12,29.19,653.32,65.47,970.27,11.68,375.42-63.77,588.85-238,652.52-532.57l3.45,1.06c-34,157.5-113.46,283.29-236.06,373.92C4660.12,772,4519,826.4,4346.19,855.79c-317.35,53.9-679.8,17.55-971-11.66-252.87-25.35-435.56-43.68-452.16,13.72-11.38,39.3,56.26,114.37,212.76,236.14,141.51,110.13,200.26,172.09,190.49,200.83-14.1,41.51-166.81,6.43-398-46.65-236.85-54.37-531.61-122-806.48-136.81-325.28-17.46-539.58,43.75-655.17,187.17-95,117.82-120.16,293.74-74.85,522.86,40.6,205.21,18.16,371-66.68,492.83-106.7,153.24-313.95,243.88-633.5,277.09-280.94,29.16-607.55,11.52-923.4-5.54-516.37-27.89-1004.09-54.22-1130.47,147.9-38.27,61.23-42.68,139.46-13.4,239.18Z"/></g></g></g></g><g id="Layer_3" data-name="Layer 3"><g id="Layer_6" data-name="Layer 6"><polygon class="cls-8" points="1406.24 1075.88 1399.56 1075.88 1399.56 2575.17 1499.18 2575.17 1497.2 1335.81 2015.55 1920.6 2015.55 1768.73 1406.24 1075.88"/><path class="cls-8" d="M1405.21,1078.15c-2,.26-3.82.47-5.65.58l2.84-2.85c3.13,62.48,5.46,124.94,7.53,187.42q1.54,46.85,2.82,93.7t2.37,93.7q4.32,187.41,5.82,374.83c1,124.94,1.77,249.88.07,374.82q-1.2,93.69-3.7,187.41l-5,187.41-12.73-12.73,49.81,1.23,49.81,1.11-10.4,10.41.7-38.73.59-38.73q.54-38.73.82-77.46.61-77.46.27-154.92t-1.23-154.92q-1-77.46-2.66-154.93c-2.18-103.27-5.12-206.55-7.5-309.83q-1.8-77.45-3.14-154.91-.65-38.73-1.17-77.46l-.48-38.73-.44-38.73-.68-59.62,40.27,44.56,131,145q65.49,72.48,130.81,145.11T1906,1756.61q64.8,73.11,129.06,146.67l-45.62,17.31.61-75.93.78-75.93L1997,1785q-74.37-86.49-148.38-173.67T1700.76,1436q-73.89-88.17-147.74-177.48-36.94-44.68-73.9-89.74T1405.21,1078.15Zm2-4.53q39.24,40.91,78.41,82.55t78.44,83.47q78.44,83.86,156.94,169t156.78,171.07q78.3,86,156.28,172.74l6.05,6.74.1,9.58.77,75.93.62,75.94.55,68.69L1996,1937.9q-65.3-72.66-130.11-145.72t-129.1-146.62q-64.32-73.53-128.37-147.28l-128.18-147.45,39.59-15.06-.31,38.74-.36,38.73q-.37,38.73-.92,77.45-1.07,77.47-2.64,154.93c-2,103.28-4.66,206.59-6.51,309.85q-1.39,77.46-2.16,154.92t-.75,154.93q0,77.46.77,154.91.4,38.73,1.08,77.46l.72,38.73.82,38.73.21,10.17-10.6.24-49.82,1.12-49.81,1.23-12.39.31-.35-13.06-5-187.41q-2.37-93.7-3.7-187.41c-1.71-124.94-.91-249.88.07-374.82s3-249.88,5.81-374.82q1.1-46.85,2.38-93.7t2.82-93.71c2-62.47,4.41-124.94,7.53-187.41l.15-3,2.69.11C1402.18,1073.15,1404.78,1073.36,1407.26,1073.62Z"/><polygon class="cls-8" points="2209.8 1109.09 2211.82 2361.98 1688.46 1770.43 1688.46 1922.23 2303.27 2611.7 2306.1 2611.7 2306.1 1109.09 2209.8 1109.09"/><path class="cls-8" d="M2211.57,1110.85c2,54.05,3.77,107.48,5.47,160.65s3.26,106,4.73,158.59q4.41,157.77,7.47,313.06,3,155.47,4.08,309.77.57,77.26,0,154.43T2231.23,2362l-1,51.75-32.93-38.86q-63.86-75.34-127.07-151.23l-31.74-37.84L2006.7,2148q-31.82-37.78-63.83-75.35-64-75.15-129.23-149.32t-131.3-147.48l14.26-5.4.38,38,.47,37.95.55,38,.62,38-2.58-6.77q78.35,84.82,157.45,169l78.83,84.42q39.35,42.26,78.53,84.68t78.12,85.06q39,42.62,77.72,85.4L2322,2595l-18.75-8.41,2.83,0L2281,2611.69q-.82-93.92-1.33-187.83t-.27-187.82q.39-187.83,3-375.65,2.39-187.83,6.52-375.65,2.08-93.91,4.75-187.83t6.08-187.82l6.41,6.42q-11.46-.45-23-1t-23.36-1.2l-23.82-1.27Q2223.86,1111.42,2211.57,1110.85Zm-3.53-3.52,23.82-1.18,24.34-1.27q12.28-.63,24.78-1.19t25.11-1l6.16-.22.24,6.64q3.47,93.92,6.08,187.83t4.76,187.82q4.2,187.83,6.52,375.65t3,375.66q.19,93.9-.26,187.82t-1.34,187.83l-.22,25.37-24.93-.22-2.83,0-11.5-.1-7.26-8.3L2132.41,2454.6q-38-43.47-76-87t-75.57-87.3q-37.66-43.77-75.16-87.69l-74.88-87.94q-74.8-88-150-175.7l-2.64-3.07.06-3.69.62-38,.55-38,.47-38,.38-38,.21-21.56,14,16.16q64.77,74.54,130.39,148.29t132.45,146.46q33.39,36.38,67,72.55l33.65,36.14,33.67,36.1q67.42,72.18,134.62,144.57l-34,12.9q-1.8-79.15-2.64-158.61t-.46-158.81q.57-158.71,3.08-316.65,2.46-157.74,6.46-313.39,2-77.73,4.23-154.64C2204.6,1208.67,2206.17,1157.69,2208,1107.33Z"/></g></g></svg>