<svg xmlns="http://www.w3.org/2000/svg" xmlns:xlink="http://www.w3.org/1999/xlink" viewBox="0 0 4000 4000"><defs><style>.cls-1{fill:url(#linear-gradient);}.cls-2{fill:url(#linear-gradient-2);}.cls-3{fill:#768483;}</style><linearGradient id="linear-gradient" x1="893.36" y1="1954.53" x2="2393.18" y2="1954.53" gradientUnits="userSpaceOnUse"><stop offset="0" stop-color="#048ac4"/><stop offset="0" stop-color="#6cdac5"/><stop offset="1" stop-color="#048ac4"/></linearGradient><linearGradient id="linear-gradient-2" x1="832.72" y1="1966.83" x2="2453.82" y2="1966.83" xlink:href="#linear-gradient"/></defs><title>Icon - GrayNauvis-SVG</title><g id="Layer_6" data-name="Layer 6"><polygon class="cls-1" points="909.61 129.27 893.36 129.27 893.36 3779.79 1135.91 3779.79 1131.09 762.16 2393.18 2186.01 2393.18 1816.24 909.61 129.27"/><path class="cls-2" d="M907.11,134.8c-4.78.61-9.29,1.13-13.75,1.39l6.91-6.92c7.61,152.11,13.29,304.21,18.33,456.32q3.76,114.07,6.87,228.16t5.78,228.15q10.5,456.31,14.17,912.63c2.38,304.21,4.31,608.42.15,912.63q-2.91,228.15-9,456.31l-12.19,456.32-31-31,121.28,3,121.28,2.71-25.32,25.35,1.69-94.31,1.45-94.3q1.3-94.3,2-188.6,1.47-188.61.66-377.21-.65-188.6-3-377.2T1106.93,2271c-5.3-251.46-12.46-502.92-18.26-754.38q-4.38-188.6-7.64-377.19-1.56-94.31-2.85-188.6l-1.17-94.3-1.07-94.3-1.65-145.18,98.06,108.51,318.93,352.94q159.46,176.48,318.5,353.33t316.71,354.91q157.77,178,314.24,357.1L2329.64,2186l1.5-184.89,1.88-184.88,15,39.73q-181.08-210.59-361.28-422.87t-360-426.95Q1446.83,791.48,1267,574q-89.93-108.79-179.92-218.49T907.11,134.8Zm5-11.05q95.52,99.62,190.9,201Q1198.49,425.84,1294,528q191,204.18,382.13,411.37t381.74,416.53q190.64,209.37,380.51,420.61l14.74,16.41.24,23.32,1.88,184.88,1.49,184.89,1.36,167.26-112.44-125.12q-159-176.91-316.81-354.82t-314.33-357q-156.61-179-312.56-358.6l-312.11-359,96.41-36.67-.77,94.31-.87,94.3q-.91,94.3-2.24,188.6-2.6,188.61-6.43,377.22c-5,251.48-11.35,503-15.85,754.43q-3.4,188.61-5.25,377.21T1153,3025.35q-.09,188.61,1.88,377.2,1,94.3,2.63,188.6l1.75,94.3,2,94.3.52,24.77-25.83.58-121.28,2.71-121.28,3-30.19.76-.85-31.79-12.19-456.32q-5.77-228.15-9-456.31c-4.16-304.21-2.22-608.42.15-912.63q3.91-456.32,14.17-912.63,2.65-114.08,5.78-228.15t6.87-228.16c5-152.11,10.73-304.21,18.33-456.32l.36-7.18,6.56.27C899.73,122.62,906.06,123.13,912.11,123.75Z"/><polygon class="cls-3" points="2866.17 210.13 2871.07 3260.72 1596.78 1820.38 1596.78 2190 3093.75 3868.73 3100.64 3868.73 3100.64 210.13 2866.17 210.13"/><path class="cls-3" d="M2870.46,214.41c5,131.61,9.2,261.69,13.32,391.15s7.94,258.09,11.52,386.14q10.75,384.15,18.2,762.25,7.2,378.58,9.94,754.26,1.38,188.11.11,376t-5.2,376.46l-2.5,126-80.18-94.63q-155.45-183.45-309.4-368.21L2449,2831.7l-77.35-92q-77.46-92-155.43-183.45-155.94-183-314.64-363.57t-319.69-359.1l34.72-13.15.91,92.4,1.14,92.41,1.34,92.4,1.52,92.41-6.28-16.49Q1806,2380.09,1998.6,2585.08l191.93,205.56q95.82,102.9,191.22,206.18t190.2,207.1q94.85,103.77,189.25,207.95L3139.41,3828l-45.66-20.46,6.89-.06-61.24,61.24q-2-228.67-3.24-457.33-1.1-228.66-.65-457.32.94-457.33,7.24-914.65,5.84-457.34,15.88-914.65,5.1-228.67,11.57-457.33T3085,210.13l15.62,15.63q-27.91-1.11-56.1-2.47t-56.89-2.92l-58-3.08Q2900.38,215.78,2870.46,214.41Zm-8.58-8.57,58-2.88,59.25-3.08q29.91-1.55,60.35-2.91t61.13-2.47l15-.54.59,16.17q8.43,228.66,14.81,457.32t11.58,457.33q10.23,457.32,15.88,914.65,5.8,457.32,7.23,914.65.45,228.66-.64,457.32t-3.25,457.33l-.54,61.78-60.7-.54-6.89-.07-28-.25-17.68-20.21-370.27-423.22q-92.54-105.84-185-211.74-92.3-106-184-212.58t-183-213.5l-182.32-214.13Q1761.27,2420,1578.29,2206.48l-6.43-7.47.15-9,1.52-92.41,1.34-92.4,1.14-92.41.92-92.4.52-52.51,34.19,39.35q157.68,181.47,317.47,361.07t322.5,356.61q81.3,88.56,163.15,176.63l81.93,88,82,87.91q164.16,175.72,327.76,352l-82.69,31.4q-4.37-192.73-6.42-386.18t-1.12-386.68q1.41-386.46,7.49-771,6-384.06,15.75-763.05,4.76-189.26,10.29-376.51C2853.49,452.58,2857.31,328.45,2861.88,205.84Z"/></g></svg>