<svg xmlns="http://www.w3.org/2000/svg" xmlns:xlink="http://www.w3.org/1999/xlink" viewBox="0 0 4000 1000"><defs><style>.cls-1{fill:#fff;}.cls-2{fill:url(#linear-gradient);}.cls-3{fill:url(#linear-gradient-2);}</style><linearGradient id="linear-gradient" x1="106.26" y1="484.77" x2="468.65" y2="484.77" gradientUnits="userSpaceOnUse"><stop offset="0" stop-color="#048ac4"/><stop offset="0" stop-color="#6cdac5"/><stop offset="1" stop-color="#048ac4"/></linearGradient><linearGradient id="linear-gradient-2" x1="91.61" y1="487.74" x2="482.93" y2="487.74" xlink:href="#linear-gradient"/></defs><title>Logo Full - WhiteNauvis-SVG</title><g id="Layer_2" data-name="Layer 2"><path class="cls-1" d="M3875.82,590.84q-17.93-42.17-48.33-70.72a313.25,313.25,0,0,0-67.88-48.38q-37.46-19.83-75.47-36-47.8-21.08-90.14-44t-68.42-55.82q-26.07-32.86-26.07-82.5,0-65.75,45.62-109.17t121.63-43.43a310.62,310.62,0,0,1,97.74,16.13q48.87,16.14,82.54,34.74l20.63-47.14q-41.28-24.81-97.2-40.94T3660.24,47.46Q3598.35,48.71,3550,75.37a200.92,200.92,0,0,0-76.56,73.82q-28.26,47.16-28.24,110.41,0,50.88,17.92,86.84a188.59,188.59,0,0,0,48.33,61.41,327.94,327.94,0,0,0,67.33,43.42q36.91,18,73.85,34.12a740.53,740.53,0,0,1,90.14,44.66,217,217,0,0,1,69.5,63.89q27.13,39.07,27.16,102.35,0,65.78-28.78,108.55t-72.77,63.89q-44,21.1-90.68,21.09a248.12,248.12,0,0,1-80.36-13.64,410.44,410.44,0,0,1-74.39-33.5q-34.22-19.83-58.11-39.7l-25,49.62q20.63,14.89,55.94,36.6T3547.84,927q47.25,16.11,104.8,16.13,71.68,0,126-31t84.71-87.46q30.39-56.45,30.41-129.64Q3893.74,633,3875.82,590.84Z"/><path class="cls-1" d="M3874.47,591.41a211.32,211.32,0,0,0-30.94-51.72c-3.2-3.89-6.57-7.63-10.05-11.27s-7.16-7-10.93-10.42a298.68,298.68,0,0,0-48.88-35.47c-8.68-5.09-17.69-9.6-26.78-14.1s-18.24-8.77-27.46-12.94-18.5-8.19-27.86-12c-4.66-1.92-9.4-3.76-14.12-5.77s-9.39-4-14.07-6q-14-6-28-12.37t-27.68-13.07c-4.59-2.25-9.17-4.51-13.73-6.82l-3.41-1.73-3.46-1.81c-2.32-1.18-4.58-2.48-6.87-3.73a229.6,229.6,0,0,1-50.32-37.8c-3.71-3.79-7.37-7.67-10.78-11.76a123.81,123.81,0,0,1-9.76-13.24,118.92,118.92,0,0,1-7.94-14.48c-1.22-2.48-2.2-5.05-3.27-7.59-.91-2.58-1.93-5.15-2.7-7.78a153.81,153.81,0,0,1-6.41-32c-.27-2.7-.42-5.39-.59-8.09l-.13-4-.07-2v-2l0-4c0-1.35,0-2.7.09-4.05.15-2.7.22-5.4.45-8.11a161,161,0,0,1,5.8-32.23,148.54,148.54,0,0,1,12.66-30.55,154.87,154.87,0,0,1,19-27c3.62-4.15,7.41-8.08,11.42-11.85l3-2.8c1-.94,2-1.86,3.12-2.72l3.2-2.63c1.06-.88,2.12-1.76,3.25-2.56a164.7,164.7,0,0,1,59.16-28.35c21.12-5.44,42.8-7.24,64-6.65a307.34,307.34,0,0,1,31.66,2.47q15.74,2.11,31.18,5.71c10.28,2.39,20.4,5.36,30.37,8.7s19.51,6.84,29.15,10.67a430.58,430.58,0,0,1,56.47,26.73L3837,147.28l21.56-46.74,4,12.5c-29.56-18.56-62.47-32.24-96.37-42.65a401.06,401.06,0,0,0-51.64-12.22,364.69,364.69,0,0,0-52.82-4.92c-8.74,0-17.59.42-26.36,1.27a229.71,229.71,0,0,0-26.12,4,207.78,207.78,0,0,0-72.7,30.35A195.22,195.22,0,0,0,3515.63,105a193,193,0,0,0-34.28,40A184.08,184.08,0,0,0,3468.56,168a187.65,187.65,0,0,0-9.31,24.65,218.27,218.27,0,0,0-8.66,52,247.35,247.35,0,0,0,3,52.7,174.66,174.66,0,0,0,6.31,25.38c1.32,4.14,2.93,8.16,4.59,12.16s3.57,7.82,5.69,11.66a186.83,186.83,0,0,0,13.92,22.08,178,178,0,0,0,16.9,19.76c1.5,1.56,3.1,3,4.65,4.54s3.17,2.95,4.82,4.35c3.23,2.87,6.63,5.57,10.11,8.3,6.94,5.39,14.09,10.51,21.46,15.29s14.94,9.25,22.65,13.43c3.88,2.06,7.77,4.1,11.72,6,2,1,4,1.9,5.94,2.84l6.1,2.83q24.42,11.25,49.11,21.86l12.37,5.25,6.12,2.56,6.25,2.51q12.66,5.13,25.19,10.71,25,11.17,49.2,24.24,6,3.27,12,6.67c2,1.19,4.08,2.37,6.1,3.59s4,2.47,6,3.78a230.65,230.65,0,0,1,22.91,16.9,224.16,224.16,0,0,1,38.72,41.9A144.83,144.83,0,0,1,3837,611.68a171.77,171.77,0,0,1,9.43,27.65c4.7,18.79,6.54,37.88,6.72,56.71a258.49,258.49,0,0,1-5.51,56.76,179.69,179.69,0,0,1-21.27,54.42c-1.32,2.09-2.63,4.22-4,6.26s-2.69,4-4.1,5.94c-2.82,3.91-5.74,7.76-8.82,11.5A202,202,0,0,1,3789.41,852a186.3,186.3,0,0,1-23.12,18c-4.09,2.68-8.25,5.25-12.54,7.59l-3.21,1.77-3.26,1.66c-1.09.54-2.18,1.11-3.26,1.63l-3.26,1.53a227.51,227.51,0,0,1-55,17.7,224.42,224.42,0,0,1-57.73,2.85,261.7,261.7,0,0,1-56.33-10.46c-2.28-.71-4.56-1.38-6.81-2.15l-3.39-1.11-3.29-1.14q-6.6-2.29-13.13-4.8-13.07-5-25.82-10.86t-25.1-12.6c-4.09-2.25-8.22-4.59-12.17-6.94s-7.94-4.74-11.87-7.2a406.29,406.29,0,0,1-45.61-32.7l23.52-4.9-25.32,49.45-4.6-18.86c12.35,9,25.4,17.66,38.55,26.12l9.91,6.33c3.31,2.1,6.68,4.23,9.85,6.17,6.45,4,13.07,7.67,19.82,11.19a420,420,0,0,0,41.85,19c7.17,2.78,14.47,5.55,21.56,7.87s14.45,4.4,21.83,6.16a320.26,320.26,0,0,0,45.1,7.35c7.63.74,15.31,1.19,23,1.44,3.87.17,7.66.13,11.5.2l5.73-.09,2.87,0,2.86-.12c7.65-.23,15.25-.94,22.83-1.81s15.08-2.24,22.55-3.79,14.8-3.63,22.07-5.95,14.36-5.12,21.35-8.19a209.2,209.2,0,0,0,73.41-54.42c1.24-1.48,2.54-2.92,3.74-4.43l3.61-4.55c1.18-1.53,2.3-3.1,3.46-4.66s2.26-3.14,3.35-4.75c2.24-3.16,4.29-6.46,6.37-9.74s4-6.65,5.85-10.08,3.62-6.89,5.37-10.37c.85-1.75,1.63-3.53,2.45-5.3l1.22-2.66,1.12-2.69a230,230,0,0,0,8.07-22c2.38-7.45,4.24-15.06,5.94-22.7l1.17-5.76c.4-1.92.68-3.86,1-5.79.72-3.86,1.19-7.75,1.74-11.64a330.37,330.37,0,0,0,2.33-47.09,309.5,309.5,0,0,0-4.23-47A205.66,205.66,0,0,0,3874.47,591.41Zm2.7-1.14a215.48,215.48,0,0,1,13.38,45.82,330.4,330.4,0,0,1,5,47.46,356.06,356.06,0,0,1-1.24,47.76c-.84,7.94-1.84,15.87-3.27,23.75s-3.12,15.71-5.31,23.42-4.52,15.41-7.4,22.92l-1.06,2.83-1.14,2.79c-.77,1.85-1.5,3.73-2.31,5.57l-2.48,5.51c-.81,1.84-1.76,3.62-2.62,5.44-1.72,3.65-3.68,7.17-5.57,10.74s-4,7-6.15,10.43a226.06,226.06,0,0,1-13.86,19.94,219.34,219.34,0,0,1-33.94,35,243.5,243.5,0,0,1-19.73,14.52c-6.85,4.45-13.93,8.6-21.21,12.39s-14.81,7.06-22.46,10.07-15.49,5.49-23.4,7.71-16,4-24,5.39-16.22,2.55-24.39,3.23l-3.06.29-3.06.21-6.14.39c-4.07.12-8.19.36-12.25.38-8.13.13-16.29,0-24.45-.36a338.87,338.87,0,0,1-48.88-5.87q-12.14-2.44-24.11-5.88c-8-2.34-15.66-4.87-23.33-7.61a440.93,440.93,0,0,1-45.19-19c-7.37-3.63-14.66-7.5-21.8-11.67-3.62-2.13-7-4.17-10.4-6.25l-10.22-6.27c-13.6-8.47-27.09-17.13-40.45-26.6l-10.32-7.32,5.72-11.55,24.63-49.79,8.53-17.23,15,12.33a380.67,380.67,0,0,0,42.4,29.8q5.58,3.43,11.26,6.74c3.81,2.22,7.52,4.3,11.33,6.37,7.61,4.08,15.34,7.95,23.22,11.53s15.88,6.92,24,10,16.39,6,24.42,8.45,16.33,4.45,24.61,6a227.57,227.57,0,0,0,25,3.37,193.13,193.13,0,0,0,97.61-17l2.87-1.31c1-.44,1.86-.91,2.79-1.36l2.77-1.38,2.72-1.45c3.64-1.93,7.17-4,10.65-6.25a157.86,157.86,0,0,0,19.68-14.89,171.38,171.38,0,0,0,17.34-17.78c2.69-3.17,5.26-6.47,7.75-9.82,1.25-1.68,2.42-3.42,3.64-5.12s2.23-3.4,3.35-5.1a150.8,150.8,0,0,0,18.49-45.51,231.48,231.48,0,0,0,5.62-50.48c.09-17.15-1.35-34.18-5.17-50.4s-10-31.57-19.24-44.93a203.63,203.63,0,0,0-33.65-37.92,220.77,220.77,0,0,0-20.17-15.65c-1.74-1.22-3.55-2.36-5.33-3.55l-5.44-3.4c-3.79-2.27-7.6-4.53-11.43-6.74q-23-13.31-47-24.93-12-5.84-24.16-11.25l-6.19-2.75-6.25-2.86-12.3-5.73q-24.59-11.55-48.78-23.83l-6.05-3.08c-2-1.06-4.11-2.1-6.13-3.21-4.08-2.16-8.09-4.44-12.08-6.76-7.95-4.69-15.74-9.65-23.28-15s-14.89-10.91-22-16.81c-3.5-3-7-6-10.45-9.2-1.73-1.58-3.36-3.25-5-4.88s-3.28-3.33-4.84-5.07a197.57,197.57,0,0,1-31.62-45.87c-2.11-4.1-4-8.46-5.78-12.77s-3.31-8.75-4.62-13.23a186.11,186.11,0,0,1-6-27.15,262.59,262.59,0,0,1-2-55,234.55,234.55,0,0,1,9.74-54.16,197.52,197.52,0,0,1,23.47-49.85,207.14,207.14,0,0,1,57.63-58.69,220,220,0,0,1,23.72-14,223.11,223.11,0,0,1,25.32-11A228,228,0,0,1,3607,48.56a269,269,0,0,1,27.14-4.8c9.13-1.13,18.26-1.84,27.53-2.06,36.69-.41,73.24,4.6,108.69,13.86a484.4,484.4,0,0,1,52.32,16.77A370.7,370.7,0,0,1,3872.79,96l7.4,4.24-3.42,8.26-19.71,47.55-4.51,10.88-10.81-5.69a434.82,434.82,0,0,0-54.35-23.56c-9.35-3.35-18.83-6.6-28.3-9.54s-18.8-5.37-28.32-7.45-19.14-3.65-28.8-4.78-19.34-1.79-29-2c-2.43,0-4.86-.06-7.27,0l-7.22.17c-4.8.25-9.59.5-14.33,1a191.4,191.4,0,0,0-28,4.9A142.63,142.63,0,0,0,3566,143.58c-3.69,2.77-7.28,5.71-10.71,8.84s-6.75,6.45-9.86,9.91A133.24,133.24,0,0,0,3529,184.66,128.23,128.23,0,0,0,3517.7,210a144.24,144.24,0,0,0-5.88,27.44c-.29,2.34-.43,4.71-.65,7.07-.13,1.18-.16,2.37-.21,3.56l-.14,3.57-.08,1.79v5.36c0,1.19.07,2.37.1,3.56s0,2.38.13,3.56a132.44,132.44,0,0,0,4.31,27.81c.56,2.28,1.33,4.46,2,6.7s1.51,4.4,2.44,6.52a98.28,98.28,0,0,0,6.09,12.51,101.09,101.09,0,0,0,7.75,11.65c2.9,3.86,6,7.56,9.22,11.19a213.94,213.94,0,0,0,44.89,37.55c2.1,1.29,4.17,2.64,6.32,3.88l3.19,1.89,3.29,1.88q6.56,3.77,13.19,7.43,13.24,7.35,26.69,14.35c17.94,9.35,36.07,18.27,54.54,26.65,9.24,4.31,18.44,8.7,27.55,13.26s18.15,9.27,27.14,14,18,9.67,26.64,15.12,17.12,11.2,25.25,17.38,16,12.77,23.49,19.67c3.74,3.46,7.42,7,10.94,10.76s6.89,7.57,10.09,11.56A222.75,222.75,0,0,1,3877.17,590.27Z"/><rect class="cls-1" x="3161.64" y="52.54" width="54.7" height="892.78"/><path class="cls-1" d="M3162.67,944.28l14-1,13.58-1.07c8.91-.7,17.54-1.33,26.08-1.83l-4.91,4.91q-2.94-55.8-4.64-111.6t-2.63-111.6l-.23-13.94-.16-13.95-.33-27.9c-.1-18.6-.28-37.2-.31-55.8q0-55.8,1.73-111.6l.95-27.9,1.07-27.9,2.17-55.8c1.37-37.2,2.38-74.4,2.72-111.59.21-18.6.18-37.2.11-55.8,0-9.3-.14-18.6-.2-27.9l-.37-27.9q-.49-27.9-1.25-55.8c-.49-18.6-1.17-37.2-1.74-55.8l8,8-54.7,1.86,9.88-9.88q1.91,55.37,2.88,110.43c.57,36.74,1,73.43,1.4,110.06.89,73.28,1.21,146.31.13,220q-.81,55.26-2.08,110.91t-3,111.91q-1.66,56.28-3.68,113.26C3165.85,867.12,3164.42,905.4,3162.67,944.28Zm-2.07,2.08c-1.75-35.52-3.17-71.64-4.53-108s-2.57-73.05-3.69-109.93-2.06-74-3-111.28-1.54-74.73-2.07-112.29c-1.09-75.12-.76-150.89.12-226.41.44-37.77.84-75.47,1.4-113.13s1.62-75.28,2.88-112.77l.35-10.21,9.54.33,54.7,1.86,8.26.28-.24,7.74c-.58,18.6-1.26,37.2-1.75,55.8s-.91,37.2-1.25,55.8L3221,192c-.07,9.3-.19,18.6-.21,27.9-.06,18.6-.09,37.2.12,55.8.34,37.19,1.34,74.39,2.71,111.59l2.17,55.8,1.08,27.9,1,27.9q1.72,55.8,1.72,111.6c0,18.6-.21,37.2-.31,55.8l-.32,27.9-.17,13.95-.23,13.94q-.83,55.8-2.62,111.6t-4.64,111.6l-.28,5.15-4.63-.24c-9.7-.5-19.3-1.13-28.63-1.83L3174,947.33Z"/><polygon class="cls-1" points="2661.78 809.53 2392.88 51.56 2330.98 51.56 2658.95 947.67 2986.93 51.56 2926.11 51.56 2661.78 809.53"/><path class="cls-1" d="M2661.79,811q-33.78-90.86-69.2-183.94l-71.47-187.69c-23.93-63.2-47.89-126.93-71.35-191q-17.67-48-35-96.15t-34.25-96.29l12.33,8.71-31-.15L2331,64.25l11.92-17c26.72,74.9,52.46,150.16,78.28,225.39Q2440.53,329,2460,385.4t39.55,112.54q40,112.38,82,224,20.86,55.88,42.18,111.58c14.17,37.16,28.53,74.24,42.81,111.36H2651.4l39-112.74q19.54-56.35,39.31-112.63c26.35-75,53.29-149.86,80-224.74s53.57-149.75,80.59-224.54,54.32-149.48,82-224l14.55,20.82-60.82-.34,14.32-10.16Q2906.2,152.77,2871,248.77t-70.85,190.55l-70.42,187.39Q2695.06,719.58,2661.79,811Zm0-2.93q32.85-98.16,64.18-194.7t61.74-191.59c20.38-63.28,40.67-126,61.32-188.43s41.54-124.58,62.78-186.77l3.45-10.1,10.86-.06,60.82-.34,22.1-.13-7.55,21q-40.44,112.21-82,224t-83.4,223.52c-27.91,74.46-55.63,149-83.94,223.31Q2731,783.5,2709.48,839.14l-43,111.3-8,20.59-7.16-20.59q-19.58-56.36-39.19-112.68T2572.4,725.31q-40.24-112.29-82-224-21-55.83-42.44-111.49T2404.76,278.6c-28.83-74.13-57.76-148.22-85.7-222.67L2312.72,39l18.26-.14,30.95-.25,31-.15,9.18,0,3.15,8.76q16.82,46.56,33,93.2t32.25,93.34c21.36,62.28,42.22,124.87,63.1,188l63,191.29Q2628.43,709.64,2661.78,808.06Z"/><path class="cls-1" d="M2107.69,636.88q0,77.63-27.7,133.92t-76,87q-48.36,30.69-110.27,30.67-60.87,0-108.65-30.67t-75.5-87q-27.7-56.32-27.71-133.92V48.63h-52.74v592q0,96.4,34.77,165.21T1758.92,911q60.32,36.32,135.29,36.29T2029.5,911q60.3-36.29,95.62-105.14t35.32-165.21v-592h-52.75Z"/><path class="cls-1" d="M2109.16,636.88c0,27.75-2.63,55.61-9.08,82.7a262.48,262.48,0,0,1-12.77,39.75,248.3,248.3,0,0,1-19.15,37.18l-1.39,2.23-1.45,2.18c-1,1.46-1.92,2.93-2.91,4.37-2,2.84-4,5.73-6.19,8.48s-4.34,5.5-6.56,8.21c-1.12,1.35-2.31,2.64-3.46,4l-1.74,2-1.81,1.92a204.69,204.69,0,0,1-31.77,27.64A207,207,0,0,1,1993,868.7a210.75,210.75,0,0,1-19,9.31c-6.53,2.72-13.19,5.14-20,7.21s-13.67,3.77-20.63,5.1-14,2.43-21,3.07c-3.52.41-7.06.56-10.6.83l-5.31.2-2.66.1-2.66,0c-7.1.15-14.22-.2-21.33-.71s-14.2-1.54-21.25-2.76-14-3-21-5a211.33,211.33,0,0,1-20.35-7.25,208.24,208.24,0,0,1-19.48-9.47,210.49,210.49,0,0,1-18.36-11.51,206.05,206.05,0,0,1-32.66-28.59l-1.85-2-1.79-2c-1.19-1.37-2.4-2.72-3.57-4.11-2.28-2.81-4.6-5.6-6.74-8.51s-4.28-5.84-6.37-8.8c-1-1.48-2-3-3-4.51s-2-3-2.93-4.57l-2.83-4.62-2.7-4.69c-1.83-3.11-3.44-6.33-5.16-9.5-3.23-6.49-6.35-13-9-19.78a269.3,269.3,0,0,1-13-41.29c-.87-3.5-1.52-7-2.26-10.56s-1.28-7.07-1.9-10.61c-1.07-7.09-2-14.2-2.7-21.33l-.49-5.34c-.17-1.78-.26-3.57-.39-5.35l-.35-5.35-.23-5.34c-.18-3.57-.25-7.13-.31-10.69s-.08-7-.11-10.48q-.32-41.52-.35-83-.12-83,.63-166c1-110.69,3.29-221.39,5.22-332.09l7.34,7.34-52.74-.85,6.49-6.49q-2,131-2.09,262t1.48,262l.82,65.5c0,2.75.13,5.42.19,8.12s.1,5.39.26,8.07l.4,8.07c.13,2.68.38,5.36.56,8,.34,5.37,1,10.7,1.48,16,.69,5.32,1.27,10.65,2.15,15.93s1.77,10.56,2.71,15.82c1.11,5.23,2.15,10.47,3.48,15.63a307.92,307.92,0,0,0,9.08,30.58,292.69,292.69,0,0,0,12.19,29.31,298.08,298.08,0,0,0,15.41,27.69,245.77,245.77,0,0,0,39.67,48.62,230.09,230.09,0,0,0,50.72,36.14A237.34,237.34,0,0,0,1802.52,919a241.22,241.22,0,0,0,29.86,8.86,271.19,271.19,0,0,0,62.06,6.5,266.93,266.93,0,0,0,61.79-7.62,231.66,231.66,0,0,0,57.47-22.62A227.55,227.55,0,0,0,2063,867.34a234.14,234.14,0,0,0,20.54-23,262.7,262.7,0,0,0,17.54-25.57,270.34,270.34,0,0,0,26.11-56.33,296.58,296.58,0,0,0,8.33-30.08c1.21-5.08,2.13-10.23,3.14-15.36.83-5.18,1.76-10.33,2.4-15.55s1.24-10.43,1.82-15.65c.41-5.26.94-10.49,1.17-15.77.13-2.63.33-5.26.4-7.9l.24-7.93c.12-2.63.07-5.29.11-7.93s.06-5.25,0-8l-.14-65.5q-.24-131,.59-262c.27-43.67.47-87.35.93-131l.78-65.51,1.06-65.51L2160.44,61l-52.75-1L2119,48.63c-1,49-2.19,98-3.36,147.07L2114,269.23l-1.62,73.53L2111,416.29l-1,73.53Q2109.22,563.35,2109.16,636.88Zm-2.93,0q-.09-73.53-.86-147.06l-1-73.53L2103,342.76l-1.62-73.53-1.72-73.53c-1.17-49-2.38-98-3.36-147.07l-.22-11.12,11.57-.23,52.75-1,12.15-.24.2,12.59,1.06,65.51.79,65.51c.46,43.67.65,87.35.92,131q.78,131,.59,262l-.14,65.5c0,2.7-.05,5.57-.09,8.37s0,5.62-.18,8.44l-.33,8.44c-.11,2.81-.34,5.63-.51,8.45-.29,5.63-.9,11.25-1.39,16.88-.67,5.62-1.24,11.25-2.11,16.86s-1.78,11.21-2.74,16.8c-1.14,5.58-2.19,11.16-3.56,16.7a325.84,325.84,0,0,1-9.53,32.91A299.78,299.78,0,0,1,2126,834a294.57,294.57,0,0,1-19.86,28.15,263.35,263.35,0,0,1-23.35,25.52,260.22,260.22,0,0,1-87.28,55,265.26,265.26,0,0,1-33,10.05,296.5,296.5,0,0,1-135.85-.89,256.07,256.07,0,0,1-63.65-25.2,249.25,249.25,0,0,1-54.56-41.14,265.54,265.54,0,0,1-41.37-53.86,306.38,306.38,0,0,1-15.52-30,312.93,312.93,0,0,1-12-31.55,325.32,325.32,0,0,1-8.54-32.48c-1.21-5.45-2.13-11-3.12-16.45-.82-5.51-1.73-11-2.34-16.54s-1.19-11.05-1.73-16.58c-.37-5.54-.86-11.07-1-16.61-.58-11.06-.58-22.18-.46-33.18l.83-65.5q1.49-131,1.48-262t-2.09-262l-.1-6.38,6.59-.11,52.74-.85,7.21-.11.13,7.45c1.94,110.7,4.24,221.4,5.23,332.09q.69,83,.63,166-.08,41.51-.36,83c0,3.44-.07,7,0,10.28s0,6.71.11,10.06l.12,5,.25,5c.09,1.67.14,3.35.26,5l.37,5a311.1,311.1,0,0,0,5.42,39.55,256,256,0,0,0,10.77,38.16c2.22,6.22,4.89,12.25,7.63,18.25,1.47,3,2.84,6,4.42,8.9l2.31,4.4,2.43,4.32c.8,1.45,1.66,2.86,2.52,4.27s1.69,2.84,2.59,4.23c1.8,2.76,3.57,5.55,5.5,8.23s3.88,5.33,5.84,8c1,1.31,2,2.57,3.07,3.87l1.55,1.92,1.61,1.88A189.84,189.84,0,0,0,1780,843.38a192.17,192.17,0,0,0,16.3,11.29,185.8,185.8,0,0,0,17.43,9.49,191.75,191.75,0,0,0,18.42,7.54c6.28,2.16,12.7,4,19.19,5.51s13.11,2.65,19.76,3.49,13.37,1.41,20.11,1.57l2.53.1,2.53,0,5.06,0c3.37-.11,6.76-.1,10.12-.34,6.75-.3,13.46-1.06,20.14-2a186.53,186.53,0,0,0,75.34-28.51,189.87,189.87,0,0,0,31.59-25.77l1.81-1.81,1.74-1.87c1.15-1.25,2.34-2.48,3.47-3.76,2.24-2.58,4.51-5.13,6.62-7.82s4.19-5.4,6.26-8.12c1-1.38,2-2.79,3-4.19l1.47-2.1,1.4-2.15c3.83-5.69,7.24-11.64,10.57-17.64,1.57-3.05,3.23-6.05,4.68-9.16l2.22-4.64,2.08-4.71,1-2.36,1-2.39,1.92-4.78,1.75-4.84c.6-1.61,1.18-3.23,1.69-4.87l1.6-4.9c.53-1.63,1-3.29,1.48-4.94,1-3.28,1.83-6.62,2.69-10a300.43,300.43,0,0,0,7.16-40.65A381.56,381.56,0,0,0,2106.23,636.88Z"/><polygon class="cls-1" points="1134.3 190.29 1403.2 948.25 1465.1 948.25 1137.13 52.14 809.15 948.25 869.97 948.25 1134.3 190.29"/><path class="cls-1" d="M1134.3,188.82q33.78,90.87,69.19,183.94L1275,560.45c23.93,63.2,47.89,126.93,71.35,191q17.67,48,35,96.15t34.25,96.29l-12.33-8.71,31,.15,30.95.25-11.91,17.05c-26.73-74.9-52.46-150.16-78.29-225.38q-19.35-56.43-38.82-112.81t-39.55-112.54q-40-112.39-82-224Q1193.7,222,1172.38,166.26c-14.17-37.15-28.53-74.24-42.81-111.35h15.11l-39,112.73q-19.54,56.37-39.3,112.64c-26.35,75-53.3,149.85-80,224.74s-53.57,149.75-80.59,224.54-54.32,149.48-82,224l-14.56-20.83,60.82.34-14.31,10.17Q889.88,847,925,751T995.89,560.5l70.42-187.4Q1101,280.25,1134.3,188.82Zm0,2.93q-32.85,98.17-64.17,194.7c-20.93,64.4-41.37,128.31-61.75,191.59s-40.67,126-61.32,188.44-41.54,124.58-62.78,186.76l-3.45,10.11-10.86.06-60.82.34-22.1.12,7.55-21q40.44-112.21,82-224T960,495.38c27.91-74.47,55.63-149,83.94-223.32q21.18-55.76,42.69-111.39l43-111.29,8-20.6,7.15,20.6c13.06,37.56,26,75.15,39.19,112.67s26.39,75,39.82,112.45q40.23,112.29,82,224,21,55.83,42.45,111.48t43.17,111.22c28.84,74.12,57.76,148.22,85.7,222.67l6.34,16.9-18.26.15-30.95.25-31,.15-9.17,0-3.16-8.75q-16.8-46.56-33-93.2t-32.26-93.34c-21.35-62.28-42.22-124.88-63.1-188l-63-191.29Q1167.66,290.19,1134.3,191.75Z"/><polygon class="cls-2" points="110.19 43.75 106.26 43.75 106.26 925.78 164.87 925.78 163.7 196.67 468.65 540.7 468.65 451.35 110.19 43.75"/><path class="cls-3" d="M109.59,45.08c-1.16.15-2.25.27-3.33.34l1.67-1.67c1.84,36.75,3.21,73.5,4.43,110.25s2.17,73.51,3.06,110.26q2.51,110.25,3.4,220.51c.35,36.75.49,73.5.63,110.25q.06,27.57-.09,55.13c-.06,18.37-.29,36.75-.48,55.13-.94,73.5-3.19,147-5.11,220.5l-7.51-7.5,29.31.73,29.3.65-6.13,6.13c.33-15.19.52-30.38.77-45.57s.38-30.38.48-45.57q.34-45.57.15-91.14c-.07-30.38-.36-60.76-.71-91.14s-.9-60.76-1.57-91.13L153.47,379q-1.11-45.57-1.86-91.13t-1.23-91.14L150,161.62l23.68,26.21,77.07,85.28,38.5,42.66,38.43,42.72q19.21,21.38,38.33,42.82l38.21,42.92q38.12,43,75.93,86.28L453.3,540.7l.82-89.35,3.62,9.6Q414,410.05,370.45,358.77l-43.52-51.44-43.48-51.71q-43.44-51.9-86.9-104.41-21.72-26.31-43.47-52.8L131.33,71.84Zm1.2-2.66,23.07,24.19,23,24.38q23.09,24.39,46.15,49.1,46.16,49.33,92.33,99.4l46.14,50.19,46.09,50.45q46.08,50.58,91.94,101.63l3.57,4,.05,5.63L484,540.7l.37,40.46-27.21-30.28q-38.4-42.75-76.54-85.74l-38-43.08q-19-21.54-37.91-43.19l-37.8-43.28-37.73-43.35-75.42-86.73,23.3-8.86q-.36,45.57-.94,91.14c-.45,30.38-.92,60.76-1.57,91.14l-3.81,182.29q-.86,45.57-1.27,91.14c-.25,30.38-.45,60.76-.43,91.14s.13,60.76.45,91.14c.15,15.19.41,30.38.63,45.57s.53,30.37.91,45.56l.15,6-6.28.14-29.3.65-29.31.73-7.3.18-.2-7.69c-1.92-73.5-4.18-147-5.11-220.5-.2-18.38-.42-36.76-.48-55.13S93,613.4,93.07,595c.15-36.75.29-73.5.64-110.25q.95-110.26,3.4-220.51c.89-36.75,1.83-73.5,3.06-110.26s2.59-73.5,4.43-110.25l.08-1.74,1.58.07C107.8,42.15,109.33,42.27,110.79,42.42Z"/><polygon class="cls-1" points="582.93 63.29 584.12 800.37 276.22 452.35 276.22 541.66 637.92 947.27 639.59 947.27 639.59 63.29 582.93 63.29"/><path class="cls-1" d="M584,64.32q1.77,47.67,3.21,94.5L590,252.13q2.6,92.81,4.4,184.17t2.4,182.25c.46,60.59,0,121-1.23,181.8l-.6,30.5-19.38-22.91q-18.75-22.19-37.42-44.45L500.8,719q-37.31-44.55-74.91-88.83t-76-87.85q-38.36-43.62-77.25-86.76l8.41-3.19.21,22.33.29,22.33.68,44.65-1.52-4,23.09,24.92,23.16,24.85,46.37,49.67q46.4,49.67,92.57,99.49t91.69,100.28L649,937.44l-11-4.94,1.67,0L624.8,947.27c-.67-73.66-1.11-147.33-.94-221q.14-55.26.6-110.5l.49-55.25.65-55.25q1.42-110.5,3.84-221L630.75,229l1.49-55.25q1.57-55.25,3.6-110.49L639.59,67c-9-.36-18.05-.76-27.31-1.29S593.61,64.76,584,64.32Zm-2.07-2.07,28.34-1.43c9.63-.53,19.47-.93,29.35-1.29l3.6-.13.15,3.89q2.1,55.25,3.59,110.49l1.5,55.25,1.3,55.25q2.46,110.51,3.84,221l.65,55.25.49,55.25q.56,55.25.61,110.5c.17,73.66-.28,147.33-.94,221l-.14,14.92-14.65-.13h-1.67l-6.75-.06-4.28-4.88L537.42,854.85q-44.76-51.11-89.16-102.53T360,649l-44.05-51.74-22.05-25.85-22.12-25.78-1.55-1.8,0-2.18.68-44.65.29-22.33.21-22.33.12-12.71,8.28,9.53Q318,493,356.52,536.41t77.93,86.16q39.29,42.81,79,85.18l39.64,42.49Q573,771.45,592.67,792.8l-20,7.59c-1.4-62.09-2.09-124.49-1.82-186.74s.86-124.43,1.81-186.3S575,304,576.49,243q1.18-45.7,2.49-91T581.9,62.25Z"/></g></svg>